M48
;DRILL file {Pcbnew (2013-07-24 BZR 4024)-stable} date Tue 11 Feb 2014 04:10:04 PM NZDT
;FORMAT={-:-/ absolute / metric / decimal}
FMAT,2
METRIC,TZ
T1C0.600
T2C0.813
T3C1.016
%
G90
G05
M71
T1
X38.354Y-39.878
X44.196Y-43.434
X54.864Y-49.53
X55.118Y-46.482
T2
X30.226Y-42.926
X30.226Y-48.006
X40.386Y-42.926
X40.386Y-48.006
X50.292Y-43.434
X60.452Y-43.434
T3
X34.07Y-54.23
X34.07Y-56.77
X36.61Y-54.23
X36.61Y-56.77
X39.15Y-54.23
X39.15Y-56.77
X41.69Y-54.23
X41.69Y-56.77
X42.926Y-34.544
X42.926Y-37.084
X44.23Y-54.23
X44.23Y-56.77
X45.466Y-34.544
X45.466Y-37.084
X46.77Y-54.23
X46.77Y-56.77
X48.006Y-34.544
X48.006Y-37.084
X49.31Y-54.23
X49.31Y-56.77
X50.546Y-34.544
X50.546Y-37.084
X51.85Y-54.23
X51.85Y-56.77
X54.39Y-54.23
X54.39Y-56.77
X56.93Y-54.23
X56.93Y-56.77
T0
M30
