G04 (created by PCBNEW (2013-07-24 BZR 4024)-stable) date Tue 11 Feb 2014 04:24:29 PM NZDT*
%MOIN*%
G04 Gerber Fmt 3.4, Leading zero omitted, Abs format*
%FSLAX34Y34*%
G01*
G70*
G90*
G04 APERTURE LIST*
%ADD10C,0.00393701*%
%ADD11C,0.06*%
%ADD12R,0.06X0.06*%
%ADD13C,0.0629921*%
%ADD14C,0.0472441*%
G04 APERTURE END LIST*
G54D10*
G54D11*
X11900Y-18900D03*
X15900Y-18900D03*
X11900Y-16900D03*
X15900Y-16900D03*
X19800Y-17100D03*
X23800Y-17100D03*
G54D12*
X22413Y-21350D03*
G54D11*
X22413Y-22350D03*
X21413Y-21350D03*
X21413Y-22350D03*
X20413Y-21350D03*
X20413Y-22350D03*
X19413Y-21350D03*
X19413Y-22350D03*
X18413Y-21350D03*
X18413Y-22350D03*
X17413Y-21350D03*
X17413Y-22350D03*
X16413Y-21350D03*
X16413Y-22350D03*
X15413Y-21350D03*
X15413Y-22350D03*
X14413Y-21350D03*
X14413Y-22350D03*
X13413Y-21350D03*
X13413Y-22350D03*
G54D12*
X16900Y-14600D03*
G54D11*
X16900Y-13600D03*
X17900Y-14600D03*
X17900Y-13600D03*
X18900Y-14600D03*
X18900Y-13600D03*
X19900Y-14600D03*
X19900Y-13600D03*
G54D13*
X15100Y-15700D03*
X21600Y-19500D03*
X17400Y-17100D03*
X21700Y-18300D03*
G54D14*
X16700Y-20400D02*
X16700Y-16000D01*
X16413Y-20686D02*
X16700Y-20400D01*
X16413Y-20686D02*
X16413Y-21350D01*
X16400Y-15700D02*
X15100Y-15700D01*
X16700Y-16000D02*
X16400Y-15700D01*
X22413Y-22350D02*
X22413Y-21350D01*
X22413Y-21350D02*
X22600Y-21163D01*
X20800Y-14600D02*
X19900Y-14600D01*
X22600Y-16400D02*
X20800Y-14600D01*
X22600Y-21163D02*
X22600Y-16400D01*
X20413Y-21350D02*
X20413Y-20686D01*
X20413Y-20686D02*
X21600Y-19500D01*
X17413Y-21350D02*
X17413Y-17113D01*
X17413Y-17113D02*
X17400Y-17100D01*
X19413Y-21350D02*
X19413Y-18686D01*
X19800Y-18300D02*
X21700Y-18300D01*
X19413Y-18686D02*
X19800Y-18300D01*
X18413Y-21350D02*
X18413Y-16613D01*
X17900Y-16100D02*
X17900Y-14600D01*
X18413Y-16613D02*
X17900Y-16100D01*
X13413Y-21350D02*
X13413Y-20186D01*
X14700Y-18900D02*
X15900Y-18900D01*
X13413Y-20186D02*
X14700Y-18900D01*
X13413Y-22350D02*
X12850Y-22350D01*
X12850Y-22350D02*
X11900Y-21400D01*
X11900Y-21400D02*
X11900Y-16900D01*
X11900Y-16900D02*
X15200Y-13600D01*
X15200Y-13600D02*
X16900Y-13600D01*
X21413Y-22350D02*
X20413Y-22350D01*
X20413Y-22350D02*
X19413Y-22350D01*
X19413Y-22350D02*
X18413Y-22350D01*
X18413Y-22350D02*
X17413Y-22350D01*
X17413Y-22350D02*
X16413Y-22350D01*
X16413Y-22350D02*
X15413Y-22350D01*
X15413Y-22350D02*
X14413Y-22350D01*
X14413Y-22350D02*
X13413Y-22350D01*
M02*
