G04 (created by PCBNEW (2013-07-07 BZR 4022)-stable) date Tue 29 Oct 2013 08:55:39 AM NZDT*
%MOIN*%
G04 Gerber Fmt 3.4, Leading zero omitted, Abs format*
%FSLAX34Y34*%
G01*
G70*
G90*
G04 APERTURE LIST*
%ADD10C,0.00590551*%
%ADD11O,0.1181X0.0591*%
%ADD12R,0.1181X0.0591*%
%ADD13R,0.06X0.06*%
%ADD14C,0.06*%
%ADD15R,0.036X0.036*%
%ADD16R,0.025X0.045*%
%ADD17R,0.045X0.025*%
%ADD18O,0.0591X0.1181*%
%ADD19R,0.0591X0.1181*%
%ADD20O,0.0315X0.0098*%
%ADD21O,0.0098X0.0315*%
%ADD22R,0.0531496X0.0525591*%
G04 APERTURE END LIST*
G54D10*
G54D11*
X11184Y-20393D03*
G54D12*
X11184Y-21181D03*
G54D11*
X27756Y-23622D03*
X27756Y-22835D03*
G54D12*
X27756Y-22047D03*
G54D11*
X27756Y-24409D03*
X11220Y-15748D03*
X11220Y-16535D03*
G54D12*
X11220Y-17323D03*
G54D11*
X11220Y-14961D03*
X11220Y-14173D03*
G54D13*
X27000Y-11000D03*
G54D14*
X26000Y-11000D03*
X25000Y-11000D03*
X24000Y-11000D03*
X23000Y-11000D03*
X22000Y-11000D03*
X21000Y-11000D03*
X20000Y-11000D03*
G54D13*
X22000Y-30000D03*
G54D14*
X23000Y-30000D03*
X24000Y-30000D03*
X25000Y-30000D03*
X26000Y-30000D03*
X27000Y-30000D03*
G54D13*
X15000Y-30000D03*
G54D14*
X16000Y-30000D03*
X17000Y-30000D03*
X18000Y-30000D03*
X19000Y-30000D03*
X20000Y-30000D03*
G54D13*
X18400Y-11000D03*
G54D14*
X17400Y-11000D03*
X16400Y-11000D03*
X15400Y-11000D03*
X14400Y-11000D03*
X13400Y-11000D03*
X12400Y-11000D03*
X11400Y-11000D03*
G54D15*
X20516Y-15151D03*
X21216Y-15151D03*
X20866Y-15951D03*
G54D16*
X21166Y-17716D03*
X20566Y-17716D03*
X24207Y-17913D03*
X24807Y-17913D03*
X19099Y-15748D03*
X18499Y-15748D03*
X19099Y-16535D03*
X18499Y-16535D03*
X17425Y-15748D03*
X16825Y-15748D03*
X17425Y-14960D03*
X16825Y-14960D03*
X17425Y-16535D03*
X16825Y-16535D03*
G54D17*
X23818Y-15251D03*
X23818Y-15851D03*
X24606Y-15251D03*
X24606Y-15851D03*
G54D16*
X17425Y-17322D03*
X16825Y-17322D03*
G54D17*
X24606Y-16432D03*
X24606Y-17032D03*
G54D16*
X24306Y-13582D03*
X24906Y-13582D03*
G54D17*
X19685Y-15260D03*
X19685Y-14660D03*
X19685Y-16038D03*
X19685Y-16638D03*
G54D16*
X21166Y-16929D03*
X20566Y-16929D03*
G54D17*
X22834Y-15251D03*
X22834Y-15851D03*
X22047Y-15251D03*
X22047Y-15851D03*
X26181Y-17032D03*
X26181Y-16432D03*
G54D16*
X23823Y-16633D03*
X23223Y-16633D03*
G54D17*
X25393Y-17032D03*
X25393Y-16432D03*
X25393Y-15251D03*
X25393Y-15851D03*
X26181Y-15251D03*
X26181Y-15851D03*
G54D16*
X25684Y-14370D03*
X26284Y-14370D03*
G54D17*
X26968Y-15251D03*
X26968Y-15851D03*
G54D16*
X24306Y-14370D03*
X24906Y-14370D03*
G54D17*
X15551Y-17810D03*
X15551Y-18410D03*
X14370Y-18410D03*
X14370Y-17810D03*
X13188Y-16835D03*
X13188Y-16235D03*
X13188Y-15654D03*
X13188Y-15054D03*
G54D16*
X20566Y-28444D03*
X21166Y-28444D03*
G54D17*
X21948Y-28449D03*
X21948Y-27849D03*
G54D16*
X12012Y-12303D03*
X11412Y-12303D03*
G54D17*
X19980Y-12692D03*
X19980Y-13292D03*
X23031Y-12692D03*
X23031Y-13292D03*
X21062Y-12692D03*
X21062Y-13292D03*
G54D16*
X21747Y-12992D03*
X22347Y-12992D03*
X18400Y-12401D03*
X19000Y-12401D03*
X18400Y-13090D03*
X19000Y-13090D03*
G54D17*
X19586Y-26176D03*
X19586Y-26776D03*
X20472Y-25881D03*
X20472Y-26481D03*
X19094Y-20369D03*
X19094Y-20969D03*
X21338Y-20369D03*
X21338Y-20969D03*
G54D16*
X17130Y-12007D03*
X16530Y-12007D03*
X16530Y-12795D03*
X17130Y-12795D03*
G54D18*
X26181Y-27460D03*
X26968Y-27460D03*
G54D19*
X27756Y-27460D03*
G54D18*
X25394Y-27460D03*
X15039Y-12404D03*
G54D19*
X14251Y-12404D03*
G54D20*
X15748Y-16535D03*
X15748Y-16338D03*
X15748Y-16141D03*
X15748Y-15944D03*
X15748Y-15748D03*
G54D21*
X15157Y-15354D03*
X14960Y-15354D03*
X14763Y-15354D03*
X14566Y-15354D03*
X15354Y-15354D03*
G54D20*
X14173Y-15748D03*
X14173Y-15944D03*
X14173Y-16141D03*
X14173Y-16338D03*
X14173Y-16535D03*
G54D21*
X14566Y-16929D03*
X14763Y-16929D03*
X14960Y-16929D03*
X15157Y-16929D03*
X15354Y-16929D03*
G54D22*
X14692Y-16405D03*
X15224Y-16405D03*
X15224Y-15881D03*
X14692Y-15881D03*
G54D17*
X12204Y-18518D03*
X12204Y-19118D03*
X13070Y-18518D03*
X13070Y-19118D03*
G54D11*
X27756Y-19881D03*
X27756Y-19094D03*
G54D12*
X27756Y-18306D03*
G54D11*
X24409Y-23621D03*
X24409Y-22834D03*
G54D12*
X24409Y-22046D03*
M02*
