G04 (created by PCBNEW (2013-07-07 BZR 4022)-stable) date Tue 29 Oct 2013 08:55:39 AM NZDT*
%MOIN*%
G04 Gerber Fmt 3.4, Leading zero omitted, Abs format*
%FSLAX34Y34*%
G01*
G70*
G90*
G04 APERTURE LIST*
%ADD10C,0.00590551*%
%ADD11O,0.1181X0.0591*%
%ADD12R,0.1181X0.0591*%
%ADD13R,0.06X0.06*%
%ADD14C,0.06*%
%ADD15O,0.0591X0.1181*%
%ADD16R,0.0591X0.1181*%
%ADD17R,0.0531496X0.0525591*%
%ADD18C,0.035*%
%ADD19C,0.01*%
%ADD20C,0.02*%
G04 APERTURE END LIST*
G54D10*
G54D11*
X11184Y-20393D03*
G54D12*
X11184Y-21181D03*
G54D11*
X27756Y-23622D03*
X27756Y-22835D03*
G54D12*
X27756Y-22047D03*
G54D11*
X27756Y-24409D03*
X11220Y-15748D03*
X11220Y-16535D03*
G54D12*
X11220Y-17323D03*
G54D11*
X11220Y-14961D03*
X11220Y-14173D03*
G54D13*
X27000Y-11000D03*
G54D14*
X26000Y-11000D03*
X25000Y-11000D03*
X24000Y-11000D03*
X23000Y-11000D03*
X22000Y-11000D03*
X21000Y-11000D03*
X20000Y-11000D03*
G54D13*
X22000Y-30000D03*
G54D14*
X23000Y-30000D03*
X24000Y-30000D03*
X25000Y-30000D03*
X26000Y-30000D03*
X27000Y-30000D03*
G54D13*
X15000Y-30000D03*
G54D14*
X16000Y-30000D03*
X17000Y-30000D03*
X18000Y-30000D03*
X19000Y-30000D03*
X20000Y-30000D03*
G54D13*
X18400Y-11000D03*
G54D14*
X17400Y-11000D03*
X16400Y-11000D03*
X15400Y-11000D03*
X14400Y-11000D03*
X13400Y-11000D03*
X12400Y-11000D03*
X11400Y-11000D03*
G54D15*
X26181Y-27460D03*
X26968Y-27460D03*
G54D16*
X27756Y-27460D03*
G54D15*
X25394Y-27460D03*
X15039Y-12404D03*
G54D16*
X14251Y-12404D03*
G54D17*
X14692Y-16405D03*
X15224Y-16405D03*
X15224Y-15881D03*
X14692Y-15881D03*
G54D11*
X27756Y-19881D03*
X27756Y-19094D03*
G54D12*
X27756Y-18306D03*
G54D11*
X24409Y-23621D03*
X24409Y-22834D03*
G54D12*
X24409Y-22046D03*
G54D18*
X22125Y-20669D03*
X12795Y-14173D03*
X13681Y-17559D03*
X12401Y-15551D03*
X16220Y-17834D03*
X17322Y-18996D03*
X15551Y-14370D03*
X17814Y-18602D03*
X14960Y-14370D03*
X12401Y-16141D03*
X24685Y-27086D03*
X22559Y-27598D03*
X21732Y-27047D03*
X18267Y-19251D03*
X18622Y-18385D03*
X19173Y-10944D03*
X25748Y-23740D03*
X26732Y-24803D03*
X27165Y-25669D03*
X17165Y-26141D03*
X17480Y-27047D03*
X10629Y-10629D03*
X27460Y-14074D03*
X10826Y-23425D03*
X10826Y-30118D03*
X13681Y-30019D03*
X18897Y-14665D03*
X17913Y-16141D03*
X21338Y-19881D03*
X19094Y-18700D03*
X19094Y-23031D03*
X21850Y-23622D03*
X13188Y-17559D03*
X12204Y-18011D03*
X22736Y-27066D03*
X21358Y-18700D03*
X21358Y-13779D03*
X19783Y-18700D03*
X22440Y-13779D03*
X20570Y-13779D03*
X20570Y-18700D03*
G54D19*
X17519Y-17814D02*
X20374Y-20669D01*
X11400Y-12777D02*
X12007Y-13385D01*
X12007Y-13385D02*
X17125Y-13385D01*
X17125Y-13385D02*
X17519Y-13779D01*
X17519Y-13779D02*
X17519Y-17814D01*
X11400Y-11000D02*
X11400Y-12777D01*
X20374Y-20669D02*
X22125Y-20669D01*
G54D20*
X12795Y-14173D02*
X13681Y-15059D01*
X13681Y-15059D02*
X13681Y-17559D01*
G54D19*
X12795Y-17716D02*
X13070Y-17992D01*
X12401Y-15551D02*
X12696Y-15551D01*
X12795Y-15649D02*
X12795Y-17716D01*
X12696Y-15551D02*
X12795Y-15649D01*
X16062Y-17992D02*
X16220Y-17834D01*
X13070Y-17992D02*
X16062Y-17992D01*
X16830Y-18503D02*
X17322Y-18996D01*
X15551Y-14370D02*
X16535Y-14370D01*
X16535Y-14370D02*
X16830Y-14665D01*
X16830Y-14665D02*
X16830Y-18503D01*
X17125Y-17913D02*
X17814Y-18602D01*
X17125Y-14566D02*
X16535Y-13976D01*
X14960Y-14074D02*
X15059Y-13976D01*
X15059Y-13976D02*
X16535Y-13976D01*
X14960Y-14370D02*
X14960Y-14074D01*
X17125Y-14566D02*
X17125Y-17913D01*
X11184Y-21181D02*
X10393Y-21181D01*
X11220Y-17323D02*
X11220Y-18110D01*
X12598Y-16338D02*
X12401Y-16141D01*
X12598Y-18208D02*
X12598Y-16338D01*
X12401Y-18405D02*
X12598Y-18208D01*
X11515Y-18405D02*
X12401Y-18405D01*
X11220Y-18110D02*
X11515Y-18405D01*
X22283Y-27598D02*
X22559Y-27598D01*
X21732Y-27047D02*
X22283Y-27598D01*
X17913Y-16141D02*
X17913Y-17677D01*
X17913Y-17677D02*
X18622Y-18385D01*
X12400Y-11000D02*
X12400Y-10631D01*
X19173Y-10551D02*
X19173Y-10944D01*
X18976Y-10354D02*
X19173Y-10551D01*
X12677Y-10354D02*
X18976Y-10354D01*
X12400Y-10631D02*
X12677Y-10354D01*
X26732Y-24803D02*
X26732Y-25236D01*
X25748Y-23740D02*
X26732Y-24724D01*
X26732Y-24724D02*
X26732Y-24803D01*
X26732Y-25236D02*
X27165Y-25669D01*
X17165Y-26732D02*
X17165Y-26141D01*
X17480Y-27047D02*
X17165Y-26732D01*
X10629Y-10629D02*
X10925Y-10334D01*
X10334Y-10925D02*
X10629Y-10629D01*
X10334Y-17519D02*
X10334Y-10925D01*
X12400Y-10529D02*
X12400Y-11000D01*
X12204Y-10334D02*
X12400Y-10529D01*
X10925Y-10334D02*
X12204Y-10334D01*
X10334Y-23425D02*
X10826Y-23425D01*
X10334Y-30118D02*
X10826Y-30118D01*
X13681Y-30610D02*
X13681Y-30019D01*
X17716Y-30610D02*
X13681Y-30610D01*
X13681Y-30610D02*
X10826Y-30610D01*
X18000Y-30326D02*
X17716Y-30610D01*
X18000Y-30000D02*
X18000Y-30326D01*
X10531Y-17323D02*
X11220Y-17323D01*
X10334Y-17519D02*
X10531Y-17323D01*
X10334Y-30118D02*
X10334Y-25098D01*
X10334Y-25098D02*
X10334Y-23425D01*
X10334Y-23425D02*
X10334Y-17519D01*
X10826Y-30610D02*
X10334Y-30118D01*
X11220Y-17322D02*
X11220Y-17323D01*
X18897Y-15157D02*
X18897Y-14665D01*
X17913Y-16141D02*
X18897Y-15157D01*
X18000Y-30000D02*
X19000Y-30000D01*
X25000Y-16889D02*
X22007Y-19881D01*
X22007Y-19881D02*
X21338Y-19881D01*
X25000Y-16889D02*
X25000Y-11000D01*
X17400Y-11986D02*
X17400Y-11000D01*
X19291Y-18503D02*
X19094Y-18700D01*
X19291Y-13877D02*
X19291Y-18503D01*
X17400Y-11986D02*
X19291Y-13877D01*
X19685Y-23622D02*
X19094Y-23031D01*
X21850Y-23622D02*
X19685Y-23622D01*
X12894Y-14961D02*
X13188Y-15255D01*
X13188Y-15255D02*
X13188Y-17559D01*
X12894Y-14961D02*
X11220Y-14961D01*
X11811Y-15748D02*
X12007Y-15944D01*
X12007Y-15944D02*
X12007Y-16437D01*
X12007Y-16437D02*
X12204Y-16633D01*
X12204Y-16633D02*
X12204Y-18011D01*
X11811Y-15748D02*
X11220Y-15748D01*
X22736Y-27066D02*
X22736Y-20275D01*
X23917Y-19094D02*
X27756Y-19094D01*
X22736Y-20275D02*
X23917Y-19094D01*
X21358Y-18700D02*
X21358Y-13779D01*
X22440Y-18484D02*
X21633Y-19291D01*
X21633Y-19291D02*
X20374Y-19291D01*
X20374Y-19291D02*
X19783Y-18700D01*
X22440Y-13779D02*
X22440Y-18484D01*
X20570Y-18700D02*
X20570Y-13779D01*
G54D10*
G36*
X28801Y-28917D02*
X28593Y-29125D01*
X28593Y-22391D01*
X28593Y-21702D01*
X28593Y-18650D01*
X28593Y-17962D01*
X28555Y-17871D01*
X28486Y-17801D01*
X28395Y-17764D01*
X28297Y-17764D01*
X27866Y-17764D01*
X27804Y-17825D01*
X27804Y-18258D01*
X28531Y-18258D01*
X28593Y-18196D01*
X28593Y-17962D01*
X28593Y-18650D01*
X28593Y-18416D01*
X28531Y-18354D01*
X27804Y-18354D01*
X27804Y-18362D01*
X27707Y-18362D01*
X27707Y-18354D01*
X27707Y-18258D01*
X27707Y-17825D01*
X27645Y-17764D01*
X27448Y-17764D01*
X27448Y-11270D01*
X27448Y-10670D01*
X27425Y-10616D01*
X27384Y-10574D01*
X27329Y-10551D01*
X27270Y-10551D01*
X26670Y-10551D01*
X26616Y-10574D01*
X26574Y-10615D01*
X26551Y-10670D01*
X26551Y-10729D01*
X26551Y-11329D01*
X26574Y-11383D01*
X26615Y-11425D01*
X26670Y-11448D01*
X26729Y-11448D01*
X27329Y-11448D01*
X27383Y-11425D01*
X27425Y-11384D01*
X27448Y-11329D01*
X27448Y-11270D01*
X27448Y-17764D01*
X27214Y-17764D01*
X27116Y-17764D01*
X27025Y-17801D01*
X26956Y-17871D01*
X26918Y-17962D01*
X26918Y-18196D01*
X26980Y-18258D01*
X27707Y-18258D01*
X27707Y-18354D01*
X26980Y-18354D01*
X26918Y-18416D01*
X26918Y-18650D01*
X26956Y-18741D01*
X27025Y-18811D01*
X27093Y-18839D01*
X27055Y-18896D01*
X26448Y-18896D01*
X26448Y-10911D01*
X26380Y-10746D01*
X26254Y-10620D01*
X26089Y-10551D01*
X25911Y-10551D01*
X25746Y-10619D01*
X25620Y-10745D01*
X25551Y-10910D01*
X25551Y-11088D01*
X25619Y-11253D01*
X25745Y-11379D01*
X25910Y-11448D01*
X26088Y-11448D01*
X26253Y-11380D01*
X26379Y-11254D01*
X26448Y-11089D01*
X26448Y-10911D01*
X26448Y-18896D01*
X25448Y-18896D01*
X25448Y-10911D01*
X25380Y-10746D01*
X25254Y-10620D01*
X25089Y-10551D01*
X24911Y-10551D01*
X24746Y-10619D01*
X24620Y-10745D01*
X24551Y-10910D01*
X24551Y-11088D01*
X24619Y-11253D01*
X24745Y-11379D01*
X24801Y-11403D01*
X24801Y-16807D01*
X24448Y-17160D01*
X24448Y-10911D01*
X24380Y-10746D01*
X24254Y-10620D01*
X24089Y-10551D01*
X23911Y-10551D01*
X23746Y-10619D01*
X23620Y-10745D01*
X23551Y-10910D01*
X23551Y-11088D01*
X23619Y-11253D01*
X23745Y-11379D01*
X23910Y-11448D01*
X24088Y-11448D01*
X24253Y-11380D01*
X24379Y-11254D01*
X24448Y-11089D01*
X24448Y-10911D01*
X24448Y-17160D01*
X23448Y-18160D01*
X23448Y-10911D01*
X23380Y-10746D01*
X23254Y-10620D01*
X23089Y-10551D01*
X22911Y-10551D01*
X22746Y-10619D01*
X22620Y-10745D01*
X22551Y-10910D01*
X22551Y-11088D01*
X22619Y-11253D01*
X22745Y-11379D01*
X22910Y-11448D01*
X23088Y-11448D01*
X23253Y-11380D01*
X23379Y-11254D01*
X23448Y-11089D01*
X23448Y-10911D01*
X23448Y-18160D01*
X22764Y-18844D01*
X22764Y-13715D01*
X22715Y-13596D01*
X22624Y-13505D01*
X22505Y-13456D01*
X22448Y-13456D01*
X22448Y-10911D01*
X22380Y-10746D01*
X22254Y-10620D01*
X22089Y-10551D01*
X21911Y-10551D01*
X21746Y-10619D01*
X21620Y-10745D01*
X21551Y-10910D01*
X21551Y-11088D01*
X21619Y-11253D01*
X21745Y-11379D01*
X21910Y-11448D01*
X22088Y-11448D01*
X22253Y-11380D01*
X22379Y-11254D01*
X22448Y-11089D01*
X22448Y-10911D01*
X22448Y-13456D01*
X22376Y-13456D01*
X22257Y-13505D01*
X22166Y-13596D01*
X22117Y-13714D01*
X22117Y-13843D01*
X22166Y-13962D01*
X22242Y-14038D01*
X22242Y-18402D01*
X21681Y-18962D01*
X21681Y-18636D01*
X21632Y-18517D01*
X21556Y-18441D01*
X21556Y-14038D01*
X21632Y-13962D01*
X21681Y-13844D01*
X21681Y-13715D01*
X21632Y-13596D01*
X21541Y-13505D01*
X21448Y-13466D01*
X21448Y-10911D01*
X21380Y-10746D01*
X21254Y-10620D01*
X21089Y-10551D01*
X20911Y-10551D01*
X20746Y-10619D01*
X20620Y-10745D01*
X20551Y-10910D01*
X20551Y-11088D01*
X20619Y-11253D01*
X20745Y-11379D01*
X20910Y-11448D01*
X21088Y-11448D01*
X21253Y-11380D01*
X21379Y-11254D01*
X21448Y-11089D01*
X21448Y-10911D01*
X21448Y-13466D01*
X21422Y-13456D01*
X21294Y-13456D01*
X21175Y-13505D01*
X21084Y-13596D01*
X21034Y-13714D01*
X21034Y-13843D01*
X21083Y-13962D01*
X21159Y-14038D01*
X21159Y-18441D01*
X21084Y-18517D01*
X21034Y-18636D01*
X21034Y-18764D01*
X21083Y-18883D01*
X21174Y-18974D01*
X21293Y-19024D01*
X21422Y-19024D01*
X21541Y-18975D01*
X21632Y-18884D01*
X21681Y-18765D01*
X21681Y-18636D01*
X21681Y-18962D01*
X21551Y-19092D01*
X20894Y-19092D01*
X20894Y-18636D01*
X20845Y-18517D01*
X20769Y-18441D01*
X20769Y-14038D01*
X20844Y-13962D01*
X20894Y-13844D01*
X20894Y-13715D01*
X20845Y-13596D01*
X20754Y-13505D01*
X20635Y-13456D01*
X20506Y-13456D01*
X20448Y-13480D01*
X20448Y-10911D01*
X20380Y-10746D01*
X20254Y-10620D01*
X20089Y-10551D01*
X19911Y-10551D01*
X19746Y-10619D01*
X19620Y-10745D01*
X19551Y-10910D01*
X19551Y-11088D01*
X19619Y-11253D01*
X19745Y-11379D01*
X19910Y-11448D01*
X20088Y-11448D01*
X20253Y-11380D01*
X20379Y-11254D01*
X20448Y-11089D01*
X20448Y-10911D01*
X20448Y-13480D01*
X20387Y-13505D01*
X20296Y-13596D01*
X20247Y-13714D01*
X20247Y-13843D01*
X20296Y-13962D01*
X20372Y-14038D01*
X20372Y-18441D01*
X20296Y-18517D01*
X20247Y-18636D01*
X20247Y-18764D01*
X20296Y-18883D01*
X20387Y-18974D01*
X20506Y-19024D01*
X20634Y-19024D01*
X20753Y-18975D01*
X20844Y-18884D01*
X20894Y-18765D01*
X20894Y-18636D01*
X20894Y-19092D01*
X20456Y-19092D01*
X20106Y-18743D01*
X20106Y-18636D01*
X20057Y-18517D01*
X19966Y-18426D01*
X19848Y-18377D01*
X19719Y-18377D01*
X19600Y-18426D01*
X19509Y-18517D01*
X19460Y-18636D01*
X19459Y-18764D01*
X19509Y-18883D01*
X19600Y-18974D01*
X19718Y-19024D01*
X19826Y-19024D01*
X20233Y-19431D01*
X20298Y-19474D01*
X20298Y-19474D01*
X20374Y-19489D01*
X21633Y-19489D01*
X21709Y-19474D01*
X21709Y-19474D01*
X21774Y-19431D01*
X22581Y-18624D01*
X22581Y-18624D01*
X22581Y-18624D01*
X22624Y-18560D01*
X22624Y-18560D01*
X22636Y-18499D01*
X22639Y-18484D01*
X22639Y-18484D01*
X22639Y-18484D01*
X22639Y-14038D01*
X22714Y-13962D01*
X22764Y-13844D01*
X22764Y-13715D01*
X22764Y-18844D01*
X21925Y-19683D01*
X21597Y-19683D01*
X21522Y-19607D01*
X21403Y-19558D01*
X21274Y-19558D01*
X21155Y-19607D01*
X21064Y-19698D01*
X21015Y-19817D01*
X21015Y-19945D01*
X21064Y-20064D01*
X21155Y-20155D01*
X21273Y-20205D01*
X21402Y-20205D01*
X21521Y-20156D01*
X21597Y-20080D01*
X22007Y-20080D01*
X22083Y-20065D01*
X22083Y-20065D01*
X22148Y-20022D01*
X25140Y-17030D01*
X25183Y-16965D01*
X25183Y-16965D01*
X25198Y-16889D01*
X25198Y-11403D01*
X25253Y-11380D01*
X25379Y-11254D01*
X25448Y-11089D01*
X25448Y-10911D01*
X25448Y-18896D01*
X23917Y-18896D01*
X23841Y-18911D01*
X23777Y-18954D01*
X23777Y-18954D01*
X22595Y-20135D01*
X22552Y-20199D01*
X22537Y-20275D01*
X22537Y-26808D01*
X22462Y-26883D01*
X22449Y-26914D01*
X22449Y-20605D01*
X22400Y-20486D01*
X22309Y-20395D01*
X22190Y-20345D01*
X22061Y-20345D01*
X21943Y-20394D01*
X21866Y-20470D01*
X20456Y-20470D01*
X18995Y-19009D01*
X19029Y-19024D01*
X19158Y-19024D01*
X19277Y-18975D01*
X19368Y-18884D01*
X19417Y-18765D01*
X19417Y-18657D01*
X19431Y-18644D01*
X19431Y-18644D01*
X19431Y-18644D01*
X19474Y-18579D01*
X19474Y-18579D01*
X19486Y-18519D01*
X19489Y-18503D01*
X19489Y-18503D01*
X19489Y-18503D01*
X19489Y-13877D01*
X19489Y-13877D01*
X19489Y-13877D01*
X19486Y-13862D01*
X19474Y-13802D01*
X19474Y-13802D01*
X19431Y-13737D01*
X19431Y-13737D01*
X18848Y-13154D01*
X18848Y-11270D01*
X18848Y-10670D01*
X18825Y-10616D01*
X18784Y-10574D01*
X18729Y-10551D01*
X18670Y-10551D01*
X18070Y-10551D01*
X18016Y-10574D01*
X17974Y-10615D01*
X17951Y-10670D01*
X17951Y-10729D01*
X17951Y-11329D01*
X17974Y-11383D01*
X18015Y-11425D01*
X18070Y-11448D01*
X18129Y-11448D01*
X18729Y-11448D01*
X18783Y-11425D01*
X18825Y-11384D01*
X18848Y-11329D01*
X18848Y-11270D01*
X18848Y-13154D01*
X17598Y-11904D01*
X17598Y-11403D01*
X17653Y-11380D01*
X17779Y-11254D01*
X17848Y-11089D01*
X17848Y-10911D01*
X17780Y-10746D01*
X17654Y-10620D01*
X17489Y-10551D01*
X17311Y-10551D01*
X17146Y-10619D01*
X17020Y-10745D01*
X16951Y-10910D01*
X16951Y-11088D01*
X17019Y-11253D01*
X17145Y-11379D01*
X17201Y-11403D01*
X17201Y-11986D01*
X17216Y-12062D01*
X17259Y-12126D01*
X19092Y-13960D01*
X19092Y-18377D01*
X19030Y-18377D01*
X18911Y-18426D01*
X18820Y-18517D01*
X18771Y-18636D01*
X18771Y-18764D01*
X18785Y-18800D01*
X17718Y-17732D01*
X17718Y-13779D01*
X17703Y-13703D01*
X17703Y-13703D01*
X17659Y-13639D01*
X17659Y-13639D01*
X17266Y-13245D01*
X17201Y-13202D01*
X17125Y-13187D01*
X16848Y-13187D01*
X16848Y-10911D01*
X16780Y-10746D01*
X16654Y-10620D01*
X16489Y-10551D01*
X16311Y-10551D01*
X16146Y-10619D01*
X16020Y-10745D01*
X15951Y-10910D01*
X15951Y-11088D01*
X16019Y-11253D01*
X16145Y-11379D01*
X16310Y-11448D01*
X16488Y-11448D01*
X16653Y-11380D01*
X16779Y-11254D01*
X16848Y-11089D01*
X16848Y-10911D01*
X16848Y-13187D01*
X15848Y-13187D01*
X15848Y-10911D01*
X15780Y-10746D01*
X15654Y-10620D01*
X15489Y-10551D01*
X15311Y-10551D01*
X15146Y-10619D01*
X15020Y-10745D01*
X14951Y-10910D01*
X14951Y-11088D01*
X15019Y-11253D01*
X15145Y-11379D01*
X15310Y-11448D01*
X15488Y-11448D01*
X15653Y-11380D01*
X15779Y-11254D01*
X15848Y-11089D01*
X15848Y-10911D01*
X15848Y-13187D01*
X14704Y-13187D01*
X14756Y-13135D01*
X14784Y-13067D01*
X14870Y-13124D01*
X15039Y-13157D01*
X15209Y-13124D01*
X15353Y-13027D01*
X15450Y-12883D01*
X15483Y-12714D01*
X15483Y-12095D01*
X15450Y-11925D01*
X15353Y-11781D01*
X15209Y-11684D01*
X15039Y-11651D01*
X14870Y-11684D01*
X14848Y-11699D01*
X14848Y-10911D01*
X14780Y-10746D01*
X14654Y-10620D01*
X14489Y-10551D01*
X14311Y-10551D01*
X14146Y-10619D01*
X14020Y-10745D01*
X13951Y-10910D01*
X13951Y-11088D01*
X14019Y-11253D01*
X14145Y-11379D01*
X14310Y-11448D01*
X14488Y-11448D01*
X14653Y-11380D01*
X14779Y-11254D01*
X14848Y-11089D01*
X14848Y-10911D01*
X14848Y-11699D01*
X14784Y-11741D01*
X14756Y-11674D01*
X14687Y-11604D01*
X14596Y-11567D01*
X14362Y-11567D01*
X14300Y-11628D01*
X14300Y-12356D01*
X14308Y-12356D01*
X14308Y-12453D01*
X14300Y-12453D01*
X14300Y-12460D01*
X14203Y-12460D01*
X14203Y-12453D01*
X14203Y-12356D01*
X14203Y-11628D01*
X14141Y-11567D01*
X13907Y-11567D01*
X13848Y-11591D01*
X13848Y-10911D01*
X13780Y-10746D01*
X13654Y-10620D01*
X13489Y-10551D01*
X13311Y-10551D01*
X13146Y-10619D01*
X13020Y-10745D01*
X12951Y-10910D01*
X12951Y-11088D01*
X13019Y-11253D01*
X13145Y-11379D01*
X13310Y-11448D01*
X13488Y-11448D01*
X13653Y-11380D01*
X13779Y-11254D01*
X13848Y-11089D01*
X13848Y-10911D01*
X13848Y-11591D01*
X13816Y-11604D01*
X13747Y-11674D01*
X13709Y-11764D01*
X13709Y-11862D01*
X13709Y-12294D01*
X13771Y-12356D01*
X14203Y-12356D01*
X14203Y-12453D01*
X13771Y-12453D01*
X13709Y-12514D01*
X13709Y-12946D01*
X13709Y-13044D01*
X13747Y-13135D01*
X13799Y-13187D01*
X12951Y-13187D01*
X12951Y-11082D01*
X12941Y-10865D01*
X12877Y-10712D01*
X12783Y-10685D01*
X12714Y-10753D01*
X12714Y-10616D01*
X12687Y-10522D01*
X12482Y-10448D01*
X12265Y-10458D01*
X12112Y-10522D01*
X12085Y-10616D01*
X12400Y-10931D01*
X12714Y-10616D01*
X12714Y-10753D01*
X12468Y-11000D01*
X12783Y-11314D01*
X12877Y-11287D01*
X12951Y-11082D01*
X12951Y-13187D01*
X12714Y-13187D01*
X12714Y-11383D01*
X12400Y-11068D01*
X12331Y-11136D01*
X12331Y-11000D01*
X12016Y-10685D01*
X11922Y-10712D01*
X11848Y-10917D01*
X11858Y-11134D01*
X11922Y-11287D01*
X12016Y-11314D01*
X12331Y-11000D01*
X12331Y-11136D01*
X12085Y-11383D01*
X12112Y-11477D01*
X12317Y-11551D01*
X12534Y-11541D01*
X12687Y-11477D01*
X12714Y-11383D01*
X12714Y-13187D01*
X12090Y-13187D01*
X11598Y-12695D01*
X11598Y-11403D01*
X11653Y-11380D01*
X11779Y-11254D01*
X11848Y-11089D01*
X11848Y-10911D01*
X11780Y-10746D01*
X11654Y-10620D01*
X11489Y-10551D01*
X11311Y-10551D01*
X11146Y-10619D01*
X11020Y-10745D01*
X10951Y-10910D01*
X10951Y-11088D01*
X11019Y-11253D01*
X11145Y-11379D01*
X11201Y-11403D01*
X11201Y-12777D01*
X11216Y-12853D01*
X11259Y-12918D01*
X11867Y-13526D01*
X11867Y-13526D01*
X11931Y-13569D01*
X11931Y-13569D01*
X11992Y-13581D01*
X12007Y-13584D01*
X12007Y-13584D01*
X12007Y-13584D01*
X17043Y-13584D01*
X17321Y-13861D01*
X17321Y-14551D01*
X17309Y-14490D01*
X17309Y-14490D01*
X17266Y-14426D01*
X16675Y-13836D01*
X16611Y-13793D01*
X16535Y-13777D01*
X15059Y-13777D01*
X14983Y-13793D01*
X14918Y-13836D01*
X14820Y-13934D01*
X14777Y-13998D01*
X14762Y-14074D01*
X14762Y-14111D01*
X14686Y-14186D01*
X14637Y-14305D01*
X14637Y-14434D01*
X14686Y-14553D01*
X14777Y-14644D01*
X14896Y-14693D01*
X15024Y-14693D01*
X15143Y-14644D01*
X15234Y-14553D01*
X15255Y-14502D01*
X15276Y-14553D01*
X15367Y-14644D01*
X15486Y-14693D01*
X15615Y-14693D01*
X15734Y-14644D01*
X15810Y-14568D01*
X16453Y-14568D01*
X16632Y-14747D01*
X16632Y-18503D01*
X16647Y-18579D01*
X16690Y-18644D01*
X16999Y-18953D01*
X16999Y-19060D01*
X17048Y-19179D01*
X17139Y-19270D01*
X17258Y-19319D01*
X17386Y-19319D01*
X17505Y-19270D01*
X17596Y-19179D01*
X17646Y-19060D01*
X17646Y-18932D01*
X17617Y-18862D01*
X17631Y-18876D01*
X17750Y-18925D01*
X17879Y-18925D01*
X17997Y-18876D01*
X18088Y-18785D01*
X18124Y-18700D01*
X20233Y-20809D01*
X20298Y-20852D01*
X20298Y-20852D01*
X20374Y-20867D01*
X21867Y-20867D01*
X21942Y-20943D01*
X22061Y-20992D01*
X22190Y-20992D01*
X22308Y-20943D01*
X22400Y-20852D01*
X22449Y-20733D01*
X22449Y-20605D01*
X22449Y-26914D01*
X22412Y-27002D01*
X22412Y-27130D01*
X22461Y-27249D01*
X22552Y-27340D01*
X22671Y-27390D01*
X22800Y-27390D01*
X22919Y-27341D01*
X23010Y-27250D01*
X23059Y-27131D01*
X23059Y-27002D01*
X23010Y-26883D01*
X22934Y-26807D01*
X22934Y-20357D01*
X23999Y-19292D01*
X27055Y-19292D01*
X27132Y-19408D01*
X27251Y-19487D01*
X27132Y-19567D01*
X27036Y-19711D01*
X27002Y-19881D01*
X27036Y-20051D01*
X27132Y-20195D01*
X27276Y-20291D01*
X27446Y-20325D01*
X28065Y-20325D01*
X28235Y-20291D01*
X28379Y-20195D01*
X28475Y-20051D01*
X28509Y-19881D01*
X28475Y-19711D01*
X28379Y-19567D01*
X28260Y-19487D01*
X28379Y-19408D01*
X28475Y-19264D01*
X28509Y-19094D01*
X28475Y-18924D01*
X28418Y-18839D01*
X28486Y-18811D01*
X28555Y-18741D01*
X28593Y-18650D01*
X28593Y-21702D01*
X28555Y-21611D01*
X28486Y-21542D01*
X28395Y-21504D01*
X28297Y-21504D01*
X27866Y-21504D01*
X27804Y-21566D01*
X27804Y-21998D01*
X28531Y-21998D01*
X28593Y-21936D01*
X28593Y-21702D01*
X28593Y-22391D01*
X28593Y-22157D01*
X28531Y-22095D01*
X27804Y-22095D01*
X27804Y-22103D01*
X27707Y-22103D01*
X27707Y-22095D01*
X27707Y-21998D01*
X27707Y-21566D01*
X27645Y-21504D01*
X27214Y-21504D01*
X27116Y-21504D01*
X27025Y-21542D01*
X26956Y-21611D01*
X26918Y-21702D01*
X26918Y-21936D01*
X26980Y-21998D01*
X27707Y-21998D01*
X27707Y-22095D01*
X26980Y-22095D01*
X26918Y-22157D01*
X26918Y-22391D01*
X26956Y-22482D01*
X27025Y-22551D01*
X27093Y-22579D01*
X27036Y-22665D01*
X27002Y-22835D01*
X27036Y-23004D01*
X27132Y-23148D01*
X27251Y-23228D01*
X27132Y-23308D01*
X27036Y-23452D01*
X27002Y-23622D01*
X27036Y-23791D01*
X27132Y-23935D01*
X27251Y-24015D01*
X27132Y-24095D01*
X27036Y-24239D01*
X27002Y-24409D01*
X27036Y-24578D01*
X27132Y-24722D01*
X27276Y-24819D01*
X27446Y-24852D01*
X28065Y-24852D01*
X28235Y-24819D01*
X28379Y-24722D01*
X28475Y-24578D01*
X28509Y-24409D01*
X28475Y-24239D01*
X28379Y-24095D01*
X28260Y-24015D01*
X28379Y-23935D01*
X28475Y-23791D01*
X28509Y-23622D01*
X28475Y-23452D01*
X28379Y-23308D01*
X28260Y-23228D01*
X28379Y-23148D01*
X28475Y-23004D01*
X28509Y-22835D01*
X28475Y-22665D01*
X28418Y-22579D01*
X28486Y-22551D01*
X28555Y-22482D01*
X28593Y-22391D01*
X28593Y-29125D01*
X28298Y-29420D01*
X28298Y-28002D01*
X28298Y-26919D01*
X28298Y-26820D01*
X28260Y-26730D01*
X28191Y-26660D01*
X28100Y-26623D01*
X27866Y-26623D01*
X27804Y-26685D01*
X27804Y-27412D01*
X28236Y-27412D01*
X28298Y-27350D01*
X28298Y-26919D01*
X28298Y-28002D01*
X28298Y-27570D01*
X28236Y-27509D01*
X27804Y-27509D01*
X27804Y-28236D01*
X27866Y-28298D01*
X28100Y-28298D01*
X28191Y-28260D01*
X28260Y-28191D01*
X28298Y-28100D01*
X28298Y-28002D01*
X28298Y-29420D01*
X27859Y-29859D01*
X27816Y-29924D01*
X27801Y-30000D01*
X27801Y-30579D01*
X27782Y-30675D01*
X27740Y-30739D01*
X27707Y-30761D01*
X27707Y-28236D01*
X27707Y-27509D01*
X27699Y-27509D01*
X27699Y-27412D01*
X27707Y-27412D01*
X27707Y-26685D01*
X27645Y-26623D01*
X27411Y-26623D01*
X27320Y-26660D01*
X27251Y-26730D01*
X27223Y-26798D01*
X27137Y-26741D01*
X26968Y-26707D01*
X26798Y-26741D01*
X26654Y-26837D01*
X26574Y-26956D01*
X26495Y-26837D01*
X26350Y-26741D01*
X26181Y-26707D01*
X26011Y-26741D01*
X25867Y-26837D01*
X25787Y-26956D01*
X25708Y-26837D01*
X25563Y-26741D01*
X25394Y-26707D01*
X25246Y-26736D01*
X25246Y-22391D01*
X25246Y-21702D01*
X25209Y-21611D01*
X25140Y-21541D01*
X25049Y-21504D01*
X24951Y-21504D01*
X24519Y-21504D01*
X24458Y-21566D01*
X24458Y-21998D01*
X25185Y-21998D01*
X25246Y-21936D01*
X25246Y-21702D01*
X25246Y-22391D01*
X25246Y-22156D01*
X25185Y-22095D01*
X24458Y-22095D01*
X24458Y-22102D01*
X24361Y-22102D01*
X24361Y-22095D01*
X24361Y-21998D01*
X24361Y-21566D01*
X24299Y-21504D01*
X23867Y-21504D01*
X23769Y-21504D01*
X23679Y-21541D01*
X23609Y-21611D01*
X23572Y-21702D01*
X23572Y-21936D01*
X23633Y-21998D01*
X24361Y-21998D01*
X24361Y-22095D01*
X23633Y-22095D01*
X23572Y-22156D01*
X23572Y-22391D01*
X23609Y-22481D01*
X23679Y-22551D01*
X23746Y-22579D01*
X23689Y-22664D01*
X23656Y-22834D01*
X23689Y-23004D01*
X23786Y-23148D01*
X23905Y-23228D01*
X23786Y-23307D01*
X23689Y-23451D01*
X23656Y-23621D01*
X23689Y-23791D01*
X23786Y-23935D01*
X23930Y-24031D01*
X24100Y-24065D01*
X24719Y-24065D01*
X24888Y-24031D01*
X25032Y-23935D01*
X25129Y-23791D01*
X25163Y-23621D01*
X25129Y-23451D01*
X25032Y-23307D01*
X24913Y-23228D01*
X25032Y-23148D01*
X25129Y-23004D01*
X25163Y-22834D01*
X25129Y-22664D01*
X25072Y-22579D01*
X25140Y-22551D01*
X25209Y-22481D01*
X25246Y-22391D01*
X25246Y-26736D01*
X25224Y-26741D01*
X25080Y-26837D01*
X24983Y-26981D01*
X24950Y-27151D01*
X24950Y-27770D01*
X24983Y-27940D01*
X25080Y-28084D01*
X25224Y-28180D01*
X25394Y-28214D01*
X25563Y-28180D01*
X25708Y-28084D01*
X25787Y-27965D01*
X25867Y-28084D01*
X26011Y-28180D01*
X26181Y-28214D01*
X26350Y-28180D01*
X26495Y-28084D01*
X26574Y-27965D01*
X26654Y-28084D01*
X26798Y-28180D01*
X26968Y-28214D01*
X27137Y-28180D01*
X27223Y-28123D01*
X27251Y-28191D01*
X27320Y-28260D01*
X27411Y-28298D01*
X27645Y-28298D01*
X27707Y-28236D01*
X27707Y-30761D01*
X27675Y-30782D01*
X27580Y-30801D01*
X27448Y-30801D01*
X27448Y-29911D01*
X27380Y-29746D01*
X27254Y-29620D01*
X27089Y-29551D01*
X26911Y-29551D01*
X26746Y-29619D01*
X26620Y-29745D01*
X26551Y-29910D01*
X26551Y-30088D01*
X26619Y-30253D01*
X26745Y-30379D01*
X26910Y-30448D01*
X27088Y-30448D01*
X27253Y-30380D01*
X27379Y-30254D01*
X27448Y-30089D01*
X27448Y-29911D01*
X27448Y-30801D01*
X26448Y-30801D01*
X26448Y-29911D01*
X26380Y-29746D01*
X26254Y-29620D01*
X26089Y-29551D01*
X25911Y-29551D01*
X25746Y-29619D01*
X25620Y-29745D01*
X25551Y-29910D01*
X25551Y-30088D01*
X25619Y-30253D01*
X25745Y-30379D01*
X25910Y-30448D01*
X26088Y-30448D01*
X26253Y-30380D01*
X26379Y-30254D01*
X26448Y-30089D01*
X26448Y-29911D01*
X26448Y-30801D01*
X25448Y-30801D01*
X25448Y-29911D01*
X25380Y-29746D01*
X25254Y-29620D01*
X25089Y-29551D01*
X24911Y-29551D01*
X24746Y-29619D01*
X24620Y-29745D01*
X24551Y-29910D01*
X24551Y-30088D01*
X24619Y-30253D01*
X24745Y-30379D01*
X24910Y-30448D01*
X25088Y-30448D01*
X25253Y-30380D01*
X25379Y-30254D01*
X25448Y-30089D01*
X25448Y-29911D01*
X25448Y-30801D01*
X24448Y-30801D01*
X24448Y-29911D01*
X24380Y-29746D01*
X24254Y-29620D01*
X24089Y-29551D01*
X23911Y-29551D01*
X23746Y-29619D01*
X23620Y-29745D01*
X23551Y-29910D01*
X23551Y-30088D01*
X23619Y-30253D01*
X23745Y-30379D01*
X23910Y-30448D01*
X24088Y-30448D01*
X24253Y-30380D01*
X24379Y-30254D01*
X24448Y-30089D01*
X24448Y-29911D01*
X24448Y-30801D01*
X23448Y-30801D01*
X23448Y-29911D01*
X23380Y-29746D01*
X23254Y-29620D01*
X23089Y-29551D01*
X22911Y-29551D01*
X22746Y-29619D01*
X22620Y-29745D01*
X22551Y-29910D01*
X22551Y-30088D01*
X22619Y-30253D01*
X22745Y-30379D01*
X22910Y-30448D01*
X23088Y-30448D01*
X23253Y-30380D01*
X23379Y-30254D01*
X23448Y-30089D01*
X23448Y-29911D01*
X23448Y-30801D01*
X22448Y-30801D01*
X22448Y-30270D01*
X22448Y-29670D01*
X22425Y-29616D01*
X22384Y-29574D01*
X22329Y-29551D01*
X22270Y-29551D01*
X22173Y-29551D01*
X22173Y-23557D01*
X22124Y-23439D01*
X22033Y-23348D01*
X21915Y-23298D01*
X21786Y-23298D01*
X21667Y-23347D01*
X21591Y-23423D01*
X19767Y-23423D01*
X19417Y-23074D01*
X19417Y-22967D01*
X19368Y-22848D01*
X19277Y-22757D01*
X19159Y-22708D01*
X19030Y-22708D01*
X18911Y-22757D01*
X18820Y-22848D01*
X18771Y-22966D01*
X18771Y-23095D01*
X18820Y-23214D01*
X18911Y-23305D01*
X19029Y-23354D01*
X19137Y-23354D01*
X19544Y-23762D01*
X19609Y-23805D01*
X19609Y-23805D01*
X19685Y-23820D01*
X21591Y-23820D01*
X21666Y-23896D01*
X21785Y-23945D01*
X21914Y-23945D01*
X22033Y-23896D01*
X22124Y-23805D01*
X22173Y-23686D01*
X22173Y-23557D01*
X22173Y-29551D01*
X21670Y-29551D01*
X21616Y-29574D01*
X21574Y-29615D01*
X21551Y-29670D01*
X21551Y-29729D01*
X21551Y-30329D01*
X21574Y-30383D01*
X21615Y-30425D01*
X21670Y-30448D01*
X21729Y-30448D01*
X22329Y-30448D01*
X22383Y-30425D01*
X22425Y-30384D01*
X22448Y-30329D01*
X22448Y-30270D01*
X22448Y-30801D01*
X20448Y-30801D01*
X20448Y-29911D01*
X20380Y-29746D01*
X20254Y-29620D01*
X20089Y-29551D01*
X19911Y-29551D01*
X19746Y-29619D01*
X19620Y-29745D01*
X19551Y-29910D01*
X19551Y-30088D01*
X19619Y-30253D01*
X19745Y-30379D01*
X19910Y-30448D01*
X20088Y-30448D01*
X20253Y-30380D01*
X20379Y-30254D01*
X20448Y-30089D01*
X20448Y-29911D01*
X20448Y-30801D01*
X19551Y-30801D01*
X19551Y-30082D01*
X19541Y-29865D01*
X19477Y-29712D01*
X19383Y-29685D01*
X19314Y-29753D01*
X19314Y-29616D01*
X19287Y-29522D01*
X19082Y-29448D01*
X18865Y-29458D01*
X18712Y-29522D01*
X18685Y-29616D01*
X19000Y-29931D01*
X19314Y-29616D01*
X19314Y-29753D01*
X19068Y-30000D01*
X19383Y-30314D01*
X19477Y-30287D01*
X19551Y-30082D01*
X19551Y-30801D01*
X19314Y-30801D01*
X19314Y-30383D01*
X19000Y-30068D01*
X18931Y-30136D01*
X18931Y-30000D01*
X18616Y-29685D01*
X18522Y-29712D01*
X18501Y-29769D01*
X18477Y-29712D01*
X18383Y-29685D01*
X18314Y-29753D01*
X18314Y-29616D01*
X18287Y-29522D01*
X18082Y-29448D01*
X17865Y-29458D01*
X17712Y-29522D01*
X17685Y-29616D01*
X18000Y-29931D01*
X18314Y-29616D01*
X18314Y-29753D01*
X18068Y-30000D01*
X18383Y-30314D01*
X18477Y-30287D01*
X18498Y-30230D01*
X18522Y-30287D01*
X18616Y-30314D01*
X18931Y-30000D01*
X18931Y-30136D01*
X18685Y-30383D01*
X18712Y-30477D01*
X18917Y-30551D01*
X19134Y-30541D01*
X19287Y-30477D01*
X19314Y-30383D01*
X19314Y-30801D01*
X18314Y-30801D01*
X18314Y-30383D01*
X18000Y-30068D01*
X17931Y-30136D01*
X17931Y-30000D01*
X17616Y-29685D01*
X17522Y-29712D01*
X17448Y-29917D01*
X17458Y-30134D01*
X17522Y-30287D01*
X17616Y-30314D01*
X17931Y-30000D01*
X17931Y-30136D01*
X17685Y-30383D01*
X17712Y-30477D01*
X17917Y-30551D01*
X18134Y-30541D01*
X18287Y-30477D01*
X18314Y-30383D01*
X18314Y-30801D01*
X17448Y-30801D01*
X17448Y-29911D01*
X17380Y-29746D01*
X17254Y-29620D01*
X17089Y-29551D01*
X16911Y-29551D01*
X16746Y-29619D01*
X16620Y-29745D01*
X16551Y-29910D01*
X16551Y-30088D01*
X16619Y-30253D01*
X16745Y-30379D01*
X16910Y-30448D01*
X17088Y-30448D01*
X17253Y-30380D01*
X17379Y-30254D01*
X17448Y-30089D01*
X17448Y-29911D01*
X17448Y-30801D01*
X16543Y-30801D01*
X16543Y-17770D01*
X16494Y-17651D01*
X16403Y-17560D01*
X16285Y-17511D01*
X16156Y-17511D01*
X16037Y-17560D01*
X15946Y-17651D01*
X15897Y-17770D01*
X15897Y-17793D01*
X15737Y-17793D01*
X15737Y-16717D01*
X15737Y-16193D01*
X15737Y-16143D01*
X15737Y-16093D01*
X15737Y-15570D01*
X15699Y-15479D01*
X15630Y-15409D01*
X15539Y-15372D01*
X15441Y-15372D01*
X15334Y-15372D01*
X15272Y-15433D01*
X15272Y-15833D01*
X15675Y-15833D01*
X15737Y-15771D01*
X15737Y-15570D01*
X15737Y-16093D01*
X15737Y-16093D01*
X15737Y-15992D01*
X15675Y-15930D01*
X15622Y-15930D01*
X15539Y-15895D01*
X15441Y-15895D01*
X15334Y-15895D01*
X15300Y-15930D01*
X15272Y-15930D01*
X15272Y-15957D01*
X15272Y-16329D01*
X15272Y-16357D01*
X15300Y-16357D01*
X15334Y-16391D01*
X15441Y-16391D01*
X15539Y-16391D01*
X15622Y-16357D01*
X15675Y-16357D01*
X15737Y-16295D01*
X15737Y-16193D01*
X15737Y-16193D01*
X15737Y-16717D01*
X15737Y-16515D01*
X15675Y-16453D01*
X15272Y-16453D01*
X15272Y-16853D01*
X15334Y-16915D01*
X15441Y-16915D01*
X15539Y-16915D01*
X15630Y-16877D01*
X15699Y-16807D01*
X15737Y-16717D01*
X15737Y-17793D01*
X15205Y-17793D01*
X15205Y-16717D01*
X15205Y-16193D01*
X15205Y-16143D01*
X15205Y-16093D01*
X15205Y-15570D01*
X15175Y-15498D01*
X15175Y-15433D01*
X15114Y-15372D01*
X15007Y-15372D01*
X14958Y-15372D01*
X14909Y-15372D01*
X14803Y-15372D01*
X14741Y-15433D01*
X14741Y-15498D01*
X14711Y-15570D01*
X14711Y-15771D01*
X14741Y-15801D01*
X14741Y-15833D01*
X14773Y-15833D01*
X15143Y-15833D01*
X15175Y-15833D01*
X15175Y-15801D01*
X15205Y-15771D01*
X15205Y-15570D01*
X15205Y-16093D01*
X15205Y-16093D01*
X15205Y-15992D01*
X15175Y-15962D01*
X15175Y-15957D01*
X15175Y-15930D01*
X15148Y-15930D01*
X15114Y-15895D01*
X15007Y-15895D01*
X14958Y-15895D01*
X14909Y-15895D01*
X14803Y-15895D01*
X14768Y-15930D01*
X14741Y-15930D01*
X14741Y-15957D01*
X14741Y-15962D01*
X14711Y-15992D01*
X14711Y-16093D01*
X14711Y-16093D01*
X14711Y-16143D01*
X14711Y-16193D01*
X14711Y-16193D01*
X14711Y-16295D01*
X14741Y-16324D01*
X14741Y-16329D01*
X14741Y-16357D01*
X14768Y-16357D01*
X14803Y-16391D01*
X14909Y-16391D01*
X14958Y-16391D01*
X15007Y-16391D01*
X15114Y-16391D01*
X15148Y-16357D01*
X15175Y-16357D01*
X15175Y-16329D01*
X15175Y-16324D01*
X15205Y-16295D01*
X15205Y-16193D01*
X15205Y-16193D01*
X15205Y-16717D01*
X15205Y-16515D01*
X15175Y-16486D01*
X15175Y-16453D01*
X15143Y-16453D01*
X14773Y-16453D01*
X14741Y-16453D01*
X14741Y-16486D01*
X14711Y-16515D01*
X14711Y-16717D01*
X14741Y-16788D01*
X14741Y-16853D01*
X14803Y-16915D01*
X14909Y-16915D01*
X14958Y-16915D01*
X15007Y-16915D01*
X15114Y-16915D01*
X15175Y-16853D01*
X15175Y-16788D01*
X15205Y-16717D01*
X15205Y-17793D01*
X14644Y-17793D01*
X14644Y-16853D01*
X14644Y-16453D01*
X14644Y-16357D01*
X14644Y-16329D01*
X14644Y-15957D01*
X14644Y-15930D01*
X14644Y-15833D01*
X14644Y-15433D01*
X14582Y-15372D01*
X14476Y-15372D01*
X14377Y-15372D01*
X14287Y-15409D01*
X14217Y-15479D01*
X14180Y-15570D01*
X14180Y-15771D01*
X14242Y-15833D01*
X14644Y-15833D01*
X14644Y-15930D01*
X14617Y-15930D01*
X14582Y-15895D01*
X14476Y-15895D01*
X14377Y-15895D01*
X14294Y-15930D01*
X14242Y-15930D01*
X14180Y-15992D01*
X14180Y-16093D01*
X14180Y-16093D01*
X14180Y-16143D01*
X14180Y-16193D01*
X14180Y-16193D01*
X14180Y-16295D01*
X14242Y-16357D01*
X14294Y-16357D01*
X14377Y-16391D01*
X14476Y-16391D01*
X14582Y-16391D01*
X14617Y-16357D01*
X14644Y-16357D01*
X14644Y-16453D01*
X14242Y-16453D01*
X14180Y-16515D01*
X14180Y-16717D01*
X14217Y-16807D01*
X14287Y-16877D01*
X14377Y-16915D01*
X14476Y-16915D01*
X14582Y-16915D01*
X14644Y-16853D01*
X14644Y-17793D01*
X13903Y-17793D01*
X13955Y-17742D01*
X14004Y-17623D01*
X14004Y-17495D01*
X13955Y-17376D01*
X13929Y-17350D01*
X13929Y-15059D01*
X13910Y-14963D01*
X13910Y-14963D01*
X13892Y-14937D01*
X13856Y-14883D01*
X13856Y-14883D01*
X13118Y-14145D01*
X13118Y-14109D01*
X13069Y-13990D01*
X12978Y-13899D01*
X12859Y-13849D01*
X12731Y-13849D01*
X12612Y-13898D01*
X12521Y-13989D01*
X12471Y-14108D01*
X12471Y-14237D01*
X12520Y-14356D01*
X12611Y-14447D01*
X12730Y-14496D01*
X12767Y-14496D01*
X13432Y-15161D01*
X13432Y-17345D01*
X13387Y-17300D01*
X13387Y-15255D01*
X13372Y-15179D01*
X13372Y-15179D01*
X13329Y-15115D01*
X13329Y-15115D01*
X13034Y-14820D01*
X12970Y-14777D01*
X12894Y-14762D01*
X11920Y-14762D01*
X11843Y-14647D01*
X11723Y-14567D01*
X11843Y-14486D01*
X11939Y-14342D01*
X11973Y-14173D01*
X11939Y-14003D01*
X11843Y-13859D01*
X11699Y-13762D01*
X11529Y-13729D01*
X10910Y-13729D01*
X10740Y-13762D01*
X10596Y-13859D01*
X10500Y-14003D01*
X10466Y-14173D01*
X10500Y-14342D01*
X10596Y-14486D01*
X10716Y-14567D01*
X10596Y-14647D01*
X10500Y-14791D01*
X10466Y-14961D01*
X10500Y-15130D01*
X10596Y-15274D01*
X10716Y-15354D01*
X10596Y-15434D01*
X10500Y-15578D01*
X10466Y-15748D01*
X10500Y-15917D01*
X10596Y-16061D01*
X10716Y-16141D01*
X10596Y-16221D01*
X10500Y-16365D01*
X10466Y-16535D01*
X10500Y-16704D01*
X10557Y-16790D01*
X10489Y-16818D01*
X10420Y-16887D01*
X10382Y-16978D01*
X10382Y-17212D01*
X10444Y-17274D01*
X11171Y-17274D01*
X11171Y-17266D01*
X11268Y-17266D01*
X11268Y-17274D01*
X11276Y-17274D01*
X11276Y-17371D01*
X11268Y-17371D01*
X11268Y-17803D01*
X11330Y-17865D01*
X11761Y-17865D01*
X11860Y-17865D01*
X11926Y-17837D01*
X11881Y-17947D01*
X11881Y-18075D01*
X11930Y-18194D01*
X12021Y-18285D01*
X12140Y-18335D01*
X12268Y-18335D01*
X12387Y-18286D01*
X12478Y-18195D01*
X12528Y-18076D01*
X12528Y-17947D01*
X12479Y-17828D01*
X12403Y-17752D01*
X12403Y-16633D01*
X12403Y-16633D01*
X12403Y-16633D01*
X12400Y-16618D01*
X12388Y-16557D01*
X12388Y-16557D01*
X12345Y-16493D01*
X12345Y-16493D01*
X12206Y-16354D01*
X12206Y-15944D01*
X12206Y-15944D01*
X12206Y-15944D01*
X12203Y-15929D01*
X12191Y-15868D01*
X12191Y-15868D01*
X12148Y-15804D01*
X12148Y-15804D01*
X11951Y-15607D01*
X11944Y-15603D01*
X11939Y-15578D01*
X11843Y-15434D01*
X11724Y-15354D01*
X11843Y-15274D01*
X11920Y-15159D01*
X12811Y-15159D01*
X12990Y-15338D01*
X12990Y-15633D01*
X12978Y-15573D01*
X12978Y-15573D01*
X12935Y-15509D01*
X12837Y-15410D01*
X12772Y-15367D01*
X12696Y-15352D01*
X12660Y-15352D01*
X12585Y-15277D01*
X12466Y-15227D01*
X12337Y-15227D01*
X12218Y-15276D01*
X12127Y-15367D01*
X12078Y-15486D01*
X12078Y-15615D01*
X12127Y-15734D01*
X12218Y-15825D01*
X12336Y-15874D01*
X12465Y-15874D01*
X12584Y-15825D01*
X12596Y-15813D01*
X12596Y-17716D01*
X12611Y-17792D01*
X12654Y-17856D01*
X12930Y-18132D01*
X12930Y-18132D01*
X12994Y-18175D01*
X12994Y-18175D01*
X13070Y-18190D01*
X16062Y-18190D01*
X16138Y-18175D01*
X16138Y-18175D01*
X16165Y-18158D01*
X16165Y-18158D01*
X16284Y-18158D01*
X16403Y-18108D01*
X16494Y-18018D01*
X16543Y-17899D01*
X16543Y-17770D01*
X16543Y-30801D01*
X16448Y-30801D01*
X16448Y-29911D01*
X16380Y-29746D01*
X16254Y-29620D01*
X16089Y-29551D01*
X15911Y-29551D01*
X15746Y-29619D01*
X15620Y-29745D01*
X15551Y-29910D01*
X15551Y-30088D01*
X15619Y-30253D01*
X15745Y-30379D01*
X15910Y-30448D01*
X16088Y-30448D01*
X16253Y-30380D01*
X16379Y-30254D01*
X16448Y-30089D01*
X16448Y-29911D01*
X16448Y-30801D01*
X15448Y-30801D01*
X15448Y-30270D01*
X15448Y-29670D01*
X15425Y-29616D01*
X15384Y-29574D01*
X15329Y-29551D01*
X15270Y-29551D01*
X14670Y-29551D01*
X14616Y-29574D01*
X14574Y-29615D01*
X14551Y-29670D01*
X14551Y-29729D01*
X14551Y-30329D01*
X14574Y-30383D01*
X14615Y-30425D01*
X14670Y-30448D01*
X14729Y-30448D01*
X15329Y-30448D01*
X15383Y-30425D01*
X15425Y-30384D01*
X15448Y-30329D01*
X15448Y-30270D01*
X15448Y-30801D01*
X12021Y-30801D01*
X12021Y-21525D01*
X12021Y-20836D01*
X11983Y-20745D01*
X11914Y-20676D01*
X11846Y-20648D01*
X11903Y-20562D01*
X11937Y-20393D01*
X11903Y-20223D01*
X11807Y-20079D01*
X11663Y-19982D01*
X11493Y-19949D01*
X11171Y-19949D01*
X11171Y-17803D01*
X11171Y-17371D01*
X10444Y-17371D01*
X10382Y-17433D01*
X10382Y-17667D01*
X10420Y-17758D01*
X10489Y-17827D01*
X10580Y-17865D01*
X10678Y-17865D01*
X11110Y-17865D01*
X11171Y-17803D01*
X11171Y-19949D01*
X10874Y-19949D01*
X10704Y-19982D01*
X10560Y-20079D01*
X10464Y-20223D01*
X10430Y-20393D01*
X10464Y-20562D01*
X10521Y-20648D01*
X10453Y-20676D01*
X10384Y-20745D01*
X10346Y-20836D01*
X10346Y-21070D01*
X10408Y-21132D01*
X11135Y-21132D01*
X11135Y-21124D01*
X11232Y-21124D01*
X11232Y-21132D01*
X11959Y-21132D01*
X12021Y-21070D01*
X12021Y-20836D01*
X12021Y-21525D01*
X12021Y-21291D01*
X11959Y-21229D01*
X11232Y-21229D01*
X11232Y-21661D01*
X11294Y-21723D01*
X11725Y-21723D01*
X11823Y-21723D01*
X11914Y-21685D01*
X11983Y-21616D01*
X12021Y-21525D01*
X12021Y-30801D01*
X11135Y-30801D01*
X11135Y-21661D01*
X11135Y-21229D01*
X10408Y-21229D01*
X10346Y-21291D01*
X10346Y-21525D01*
X10384Y-21616D01*
X10453Y-21685D01*
X10544Y-21723D01*
X10642Y-21723D01*
X11073Y-21723D01*
X11135Y-21661D01*
X11135Y-30801D01*
X10420Y-30801D01*
X10324Y-30782D01*
X10260Y-30740D01*
X10217Y-30675D01*
X10198Y-30580D01*
X10198Y-10419D01*
X10217Y-10324D01*
X10260Y-10259D01*
X10324Y-10217D01*
X10420Y-10198D01*
X27317Y-10198D01*
X27801Y-10682D01*
X27801Y-15100D01*
X27816Y-15175D01*
X27859Y-15240D01*
X28801Y-16182D01*
X28801Y-28917D01*
X28801Y-28917D01*
G37*
G54D19*
X28801Y-28917D02*
X28593Y-29125D01*
X28593Y-22391D01*
X28593Y-21702D01*
X28593Y-18650D01*
X28593Y-17962D01*
X28555Y-17871D01*
X28486Y-17801D01*
X28395Y-17764D01*
X28297Y-17764D01*
X27866Y-17764D01*
X27804Y-17825D01*
X27804Y-18258D01*
X28531Y-18258D01*
X28593Y-18196D01*
X28593Y-17962D01*
X28593Y-18650D01*
X28593Y-18416D01*
X28531Y-18354D01*
X27804Y-18354D01*
X27804Y-18362D01*
X27707Y-18362D01*
X27707Y-18354D01*
X27707Y-18258D01*
X27707Y-17825D01*
X27645Y-17764D01*
X27448Y-17764D01*
X27448Y-11270D01*
X27448Y-10670D01*
X27425Y-10616D01*
X27384Y-10574D01*
X27329Y-10551D01*
X27270Y-10551D01*
X26670Y-10551D01*
X26616Y-10574D01*
X26574Y-10615D01*
X26551Y-10670D01*
X26551Y-10729D01*
X26551Y-11329D01*
X26574Y-11383D01*
X26615Y-11425D01*
X26670Y-11448D01*
X26729Y-11448D01*
X27329Y-11448D01*
X27383Y-11425D01*
X27425Y-11384D01*
X27448Y-11329D01*
X27448Y-11270D01*
X27448Y-17764D01*
X27214Y-17764D01*
X27116Y-17764D01*
X27025Y-17801D01*
X26956Y-17871D01*
X26918Y-17962D01*
X26918Y-18196D01*
X26980Y-18258D01*
X27707Y-18258D01*
X27707Y-18354D01*
X26980Y-18354D01*
X26918Y-18416D01*
X26918Y-18650D01*
X26956Y-18741D01*
X27025Y-18811D01*
X27093Y-18839D01*
X27055Y-18896D01*
X26448Y-18896D01*
X26448Y-10911D01*
X26380Y-10746D01*
X26254Y-10620D01*
X26089Y-10551D01*
X25911Y-10551D01*
X25746Y-10619D01*
X25620Y-10745D01*
X25551Y-10910D01*
X25551Y-11088D01*
X25619Y-11253D01*
X25745Y-11379D01*
X25910Y-11448D01*
X26088Y-11448D01*
X26253Y-11380D01*
X26379Y-11254D01*
X26448Y-11089D01*
X26448Y-10911D01*
X26448Y-18896D01*
X25448Y-18896D01*
X25448Y-10911D01*
X25380Y-10746D01*
X25254Y-10620D01*
X25089Y-10551D01*
X24911Y-10551D01*
X24746Y-10619D01*
X24620Y-10745D01*
X24551Y-10910D01*
X24551Y-11088D01*
X24619Y-11253D01*
X24745Y-11379D01*
X24801Y-11403D01*
X24801Y-16807D01*
X24448Y-17160D01*
X24448Y-10911D01*
X24380Y-10746D01*
X24254Y-10620D01*
X24089Y-10551D01*
X23911Y-10551D01*
X23746Y-10619D01*
X23620Y-10745D01*
X23551Y-10910D01*
X23551Y-11088D01*
X23619Y-11253D01*
X23745Y-11379D01*
X23910Y-11448D01*
X24088Y-11448D01*
X24253Y-11380D01*
X24379Y-11254D01*
X24448Y-11089D01*
X24448Y-10911D01*
X24448Y-17160D01*
X23448Y-18160D01*
X23448Y-10911D01*
X23380Y-10746D01*
X23254Y-10620D01*
X23089Y-10551D01*
X22911Y-10551D01*
X22746Y-10619D01*
X22620Y-10745D01*
X22551Y-10910D01*
X22551Y-11088D01*
X22619Y-11253D01*
X22745Y-11379D01*
X22910Y-11448D01*
X23088Y-11448D01*
X23253Y-11380D01*
X23379Y-11254D01*
X23448Y-11089D01*
X23448Y-10911D01*
X23448Y-18160D01*
X22764Y-18844D01*
X22764Y-13715D01*
X22715Y-13596D01*
X22624Y-13505D01*
X22505Y-13456D01*
X22448Y-13456D01*
X22448Y-10911D01*
X22380Y-10746D01*
X22254Y-10620D01*
X22089Y-10551D01*
X21911Y-10551D01*
X21746Y-10619D01*
X21620Y-10745D01*
X21551Y-10910D01*
X21551Y-11088D01*
X21619Y-11253D01*
X21745Y-11379D01*
X21910Y-11448D01*
X22088Y-11448D01*
X22253Y-11380D01*
X22379Y-11254D01*
X22448Y-11089D01*
X22448Y-10911D01*
X22448Y-13456D01*
X22376Y-13456D01*
X22257Y-13505D01*
X22166Y-13596D01*
X22117Y-13714D01*
X22117Y-13843D01*
X22166Y-13962D01*
X22242Y-14038D01*
X22242Y-18402D01*
X21681Y-18962D01*
X21681Y-18636D01*
X21632Y-18517D01*
X21556Y-18441D01*
X21556Y-14038D01*
X21632Y-13962D01*
X21681Y-13844D01*
X21681Y-13715D01*
X21632Y-13596D01*
X21541Y-13505D01*
X21448Y-13466D01*
X21448Y-10911D01*
X21380Y-10746D01*
X21254Y-10620D01*
X21089Y-10551D01*
X20911Y-10551D01*
X20746Y-10619D01*
X20620Y-10745D01*
X20551Y-10910D01*
X20551Y-11088D01*
X20619Y-11253D01*
X20745Y-11379D01*
X20910Y-11448D01*
X21088Y-11448D01*
X21253Y-11380D01*
X21379Y-11254D01*
X21448Y-11089D01*
X21448Y-10911D01*
X21448Y-13466D01*
X21422Y-13456D01*
X21294Y-13456D01*
X21175Y-13505D01*
X21084Y-13596D01*
X21034Y-13714D01*
X21034Y-13843D01*
X21083Y-13962D01*
X21159Y-14038D01*
X21159Y-18441D01*
X21084Y-18517D01*
X21034Y-18636D01*
X21034Y-18764D01*
X21083Y-18883D01*
X21174Y-18974D01*
X21293Y-19024D01*
X21422Y-19024D01*
X21541Y-18975D01*
X21632Y-18884D01*
X21681Y-18765D01*
X21681Y-18636D01*
X21681Y-18962D01*
X21551Y-19092D01*
X20894Y-19092D01*
X20894Y-18636D01*
X20845Y-18517D01*
X20769Y-18441D01*
X20769Y-14038D01*
X20844Y-13962D01*
X20894Y-13844D01*
X20894Y-13715D01*
X20845Y-13596D01*
X20754Y-13505D01*
X20635Y-13456D01*
X20506Y-13456D01*
X20448Y-13480D01*
X20448Y-10911D01*
X20380Y-10746D01*
X20254Y-10620D01*
X20089Y-10551D01*
X19911Y-10551D01*
X19746Y-10619D01*
X19620Y-10745D01*
X19551Y-10910D01*
X19551Y-11088D01*
X19619Y-11253D01*
X19745Y-11379D01*
X19910Y-11448D01*
X20088Y-11448D01*
X20253Y-11380D01*
X20379Y-11254D01*
X20448Y-11089D01*
X20448Y-10911D01*
X20448Y-13480D01*
X20387Y-13505D01*
X20296Y-13596D01*
X20247Y-13714D01*
X20247Y-13843D01*
X20296Y-13962D01*
X20372Y-14038D01*
X20372Y-18441D01*
X20296Y-18517D01*
X20247Y-18636D01*
X20247Y-18764D01*
X20296Y-18883D01*
X20387Y-18974D01*
X20506Y-19024D01*
X20634Y-19024D01*
X20753Y-18975D01*
X20844Y-18884D01*
X20894Y-18765D01*
X20894Y-18636D01*
X20894Y-19092D01*
X20456Y-19092D01*
X20106Y-18743D01*
X20106Y-18636D01*
X20057Y-18517D01*
X19966Y-18426D01*
X19848Y-18377D01*
X19719Y-18377D01*
X19600Y-18426D01*
X19509Y-18517D01*
X19460Y-18636D01*
X19459Y-18764D01*
X19509Y-18883D01*
X19600Y-18974D01*
X19718Y-19024D01*
X19826Y-19024D01*
X20233Y-19431D01*
X20298Y-19474D01*
X20298Y-19474D01*
X20374Y-19489D01*
X21633Y-19489D01*
X21709Y-19474D01*
X21709Y-19474D01*
X21774Y-19431D01*
X22581Y-18624D01*
X22581Y-18624D01*
X22581Y-18624D01*
X22624Y-18560D01*
X22624Y-18560D01*
X22636Y-18499D01*
X22639Y-18484D01*
X22639Y-18484D01*
X22639Y-18484D01*
X22639Y-14038D01*
X22714Y-13962D01*
X22764Y-13844D01*
X22764Y-13715D01*
X22764Y-18844D01*
X21925Y-19683D01*
X21597Y-19683D01*
X21522Y-19607D01*
X21403Y-19558D01*
X21274Y-19558D01*
X21155Y-19607D01*
X21064Y-19698D01*
X21015Y-19817D01*
X21015Y-19945D01*
X21064Y-20064D01*
X21155Y-20155D01*
X21273Y-20205D01*
X21402Y-20205D01*
X21521Y-20156D01*
X21597Y-20080D01*
X22007Y-20080D01*
X22083Y-20065D01*
X22083Y-20065D01*
X22148Y-20022D01*
X25140Y-17030D01*
X25183Y-16965D01*
X25183Y-16965D01*
X25198Y-16889D01*
X25198Y-11403D01*
X25253Y-11380D01*
X25379Y-11254D01*
X25448Y-11089D01*
X25448Y-10911D01*
X25448Y-18896D01*
X23917Y-18896D01*
X23841Y-18911D01*
X23777Y-18954D01*
X23777Y-18954D01*
X22595Y-20135D01*
X22552Y-20199D01*
X22537Y-20275D01*
X22537Y-26808D01*
X22462Y-26883D01*
X22449Y-26914D01*
X22449Y-20605D01*
X22400Y-20486D01*
X22309Y-20395D01*
X22190Y-20345D01*
X22061Y-20345D01*
X21943Y-20394D01*
X21866Y-20470D01*
X20456Y-20470D01*
X18995Y-19009D01*
X19029Y-19024D01*
X19158Y-19024D01*
X19277Y-18975D01*
X19368Y-18884D01*
X19417Y-18765D01*
X19417Y-18657D01*
X19431Y-18644D01*
X19431Y-18644D01*
X19431Y-18644D01*
X19474Y-18579D01*
X19474Y-18579D01*
X19486Y-18519D01*
X19489Y-18503D01*
X19489Y-18503D01*
X19489Y-18503D01*
X19489Y-13877D01*
X19489Y-13877D01*
X19489Y-13877D01*
X19486Y-13862D01*
X19474Y-13802D01*
X19474Y-13802D01*
X19431Y-13737D01*
X19431Y-13737D01*
X18848Y-13154D01*
X18848Y-11270D01*
X18848Y-10670D01*
X18825Y-10616D01*
X18784Y-10574D01*
X18729Y-10551D01*
X18670Y-10551D01*
X18070Y-10551D01*
X18016Y-10574D01*
X17974Y-10615D01*
X17951Y-10670D01*
X17951Y-10729D01*
X17951Y-11329D01*
X17974Y-11383D01*
X18015Y-11425D01*
X18070Y-11448D01*
X18129Y-11448D01*
X18729Y-11448D01*
X18783Y-11425D01*
X18825Y-11384D01*
X18848Y-11329D01*
X18848Y-11270D01*
X18848Y-13154D01*
X17598Y-11904D01*
X17598Y-11403D01*
X17653Y-11380D01*
X17779Y-11254D01*
X17848Y-11089D01*
X17848Y-10911D01*
X17780Y-10746D01*
X17654Y-10620D01*
X17489Y-10551D01*
X17311Y-10551D01*
X17146Y-10619D01*
X17020Y-10745D01*
X16951Y-10910D01*
X16951Y-11088D01*
X17019Y-11253D01*
X17145Y-11379D01*
X17201Y-11403D01*
X17201Y-11986D01*
X17216Y-12062D01*
X17259Y-12126D01*
X19092Y-13960D01*
X19092Y-18377D01*
X19030Y-18377D01*
X18911Y-18426D01*
X18820Y-18517D01*
X18771Y-18636D01*
X18771Y-18764D01*
X18785Y-18800D01*
X17718Y-17732D01*
X17718Y-13779D01*
X17703Y-13703D01*
X17703Y-13703D01*
X17659Y-13639D01*
X17659Y-13639D01*
X17266Y-13245D01*
X17201Y-13202D01*
X17125Y-13187D01*
X16848Y-13187D01*
X16848Y-10911D01*
X16780Y-10746D01*
X16654Y-10620D01*
X16489Y-10551D01*
X16311Y-10551D01*
X16146Y-10619D01*
X16020Y-10745D01*
X15951Y-10910D01*
X15951Y-11088D01*
X16019Y-11253D01*
X16145Y-11379D01*
X16310Y-11448D01*
X16488Y-11448D01*
X16653Y-11380D01*
X16779Y-11254D01*
X16848Y-11089D01*
X16848Y-10911D01*
X16848Y-13187D01*
X15848Y-13187D01*
X15848Y-10911D01*
X15780Y-10746D01*
X15654Y-10620D01*
X15489Y-10551D01*
X15311Y-10551D01*
X15146Y-10619D01*
X15020Y-10745D01*
X14951Y-10910D01*
X14951Y-11088D01*
X15019Y-11253D01*
X15145Y-11379D01*
X15310Y-11448D01*
X15488Y-11448D01*
X15653Y-11380D01*
X15779Y-11254D01*
X15848Y-11089D01*
X15848Y-10911D01*
X15848Y-13187D01*
X14704Y-13187D01*
X14756Y-13135D01*
X14784Y-13067D01*
X14870Y-13124D01*
X15039Y-13157D01*
X15209Y-13124D01*
X15353Y-13027D01*
X15450Y-12883D01*
X15483Y-12714D01*
X15483Y-12095D01*
X15450Y-11925D01*
X15353Y-11781D01*
X15209Y-11684D01*
X15039Y-11651D01*
X14870Y-11684D01*
X14848Y-11699D01*
X14848Y-10911D01*
X14780Y-10746D01*
X14654Y-10620D01*
X14489Y-10551D01*
X14311Y-10551D01*
X14146Y-10619D01*
X14020Y-10745D01*
X13951Y-10910D01*
X13951Y-11088D01*
X14019Y-11253D01*
X14145Y-11379D01*
X14310Y-11448D01*
X14488Y-11448D01*
X14653Y-11380D01*
X14779Y-11254D01*
X14848Y-11089D01*
X14848Y-10911D01*
X14848Y-11699D01*
X14784Y-11741D01*
X14756Y-11674D01*
X14687Y-11604D01*
X14596Y-11567D01*
X14362Y-11567D01*
X14300Y-11628D01*
X14300Y-12356D01*
X14308Y-12356D01*
X14308Y-12453D01*
X14300Y-12453D01*
X14300Y-12460D01*
X14203Y-12460D01*
X14203Y-12453D01*
X14203Y-12356D01*
X14203Y-11628D01*
X14141Y-11567D01*
X13907Y-11567D01*
X13848Y-11591D01*
X13848Y-10911D01*
X13780Y-10746D01*
X13654Y-10620D01*
X13489Y-10551D01*
X13311Y-10551D01*
X13146Y-10619D01*
X13020Y-10745D01*
X12951Y-10910D01*
X12951Y-11088D01*
X13019Y-11253D01*
X13145Y-11379D01*
X13310Y-11448D01*
X13488Y-11448D01*
X13653Y-11380D01*
X13779Y-11254D01*
X13848Y-11089D01*
X13848Y-10911D01*
X13848Y-11591D01*
X13816Y-11604D01*
X13747Y-11674D01*
X13709Y-11764D01*
X13709Y-11862D01*
X13709Y-12294D01*
X13771Y-12356D01*
X14203Y-12356D01*
X14203Y-12453D01*
X13771Y-12453D01*
X13709Y-12514D01*
X13709Y-12946D01*
X13709Y-13044D01*
X13747Y-13135D01*
X13799Y-13187D01*
X12951Y-13187D01*
X12951Y-11082D01*
X12941Y-10865D01*
X12877Y-10712D01*
X12783Y-10685D01*
X12714Y-10753D01*
X12714Y-10616D01*
X12687Y-10522D01*
X12482Y-10448D01*
X12265Y-10458D01*
X12112Y-10522D01*
X12085Y-10616D01*
X12400Y-10931D01*
X12714Y-10616D01*
X12714Y-10753D01*
X12468Y-11000D01*
X12783Y-11314D01*
X12877Y-11287D01*
X12951Y-11082D01*
X12951Y-13187D01*
X12714Y-13187D01*
X12714Y-11383D01*
X12400Y-11068D01*
X12331Y-11136D01*
X12331Y-11000D01*
X12016Y-10685D01*
X11922Y-10712D01*
X11848Y-10917D01*
X11858Y-11134D01*
X11922Y-11287D01*
X12016Y-11314D01*
X12331Y-11000D01*
X12331Y-11136D01*
X12085Y-11383D01*
X12112Y-11477D01*
X12317Y-11551D01*
X12534Y-11541D01*
X12687Y-11477D01*
X12714Y-11383D01*
X12714Y-13187D01*
X12090Y-13187D01*
X11598Y-12695D01*
X11598Y-11403D01*
X11653Y-11380D01*
X11779Y-11254D01*
X11848Y-11089D01*
X11848Y-10911D01*
X11780Y-10746D01*
X11654Y-10620D01*
X11489Y-10551D01*
X11311Y-10551D01*
X11146Y-10619D01*
X11020Y-10745D01*
X10951Y-10910D01*
X10951Y-11088D01*
X11019Y-11253D01*
X11145Y-11379D01*
X11201Y-11403D01*
X11201Y-12777D01*
X11216Y-12853D01*
X11259Y-12918D01*
X11867Y-13526D01*
X11867Y-13526D01*
X11931Y-13569D01*
X11931Y-13569D01*
X11992Y-13581D01*
X12007Y-13584D01*
X12007Y-13584D01*
X12007Y-13584D01*
X17043Y-13584D01*
X17321Y-13861D01*
X17321Y-14551D01*
X17309Y-14490D01*
X17309Y-14490D01*
X17266Y-14426D01*
X16675Y-13836D01*
X16611Y-13793D01*
X16535Y-13777D01*
X15059Y-13777D01*
X14983Y-13793D01*
X14918Y-13836D01*
X14820Y-13934D01*
X14777Y-13998D01*
X14762Y-14074D01*
X14762Y-14111D01*
X14686Y-14186D01*
X14637Y-14305D01*
X14637Y-14434D01*
X14686Y-14553D01*
X14777Y-14644D01*
X14896Y-14693D01*
X15024Y-14693D01*
X15143Y-14644D01*
X15234Y-14553D01*
X15255Y-14502D01*
X15276Y-14553D01*
X15367Y-14644D01*
X15486Y-14693D01*
X15615Y-14693D01*
X15734Y-14644D01*
X15810Y-14568D01*
X16453Y-14568D01*
X16632Y-14747D01*
X16632Y-18503D01*
X16647Y-18579D01*
X16690Y-18644D01*
X16999Y-18953D01*
X16999Y-19060D01*
X17048Y-19179D01*
X17139Y-19270D01*
X17258Y-19319D01*
X17386Y-19319D01*
X17505Y-19270D01*
X17596Y-19179D01*
X17646Y-19060D01*
X17646Y-18932D01*
X17617Y-18862D01*
X17631Y-18876D01*
X17750Y-18925D01*
X17879Y-18925D01*
X17997Y-18876D01*
X18088Y-18785D01*
X18124Y-18700D01*
X20233Y-20809D01*
X20298Y-20852D01*
X20298Y-20852D01*
X20374Y-20867D01*
X21867Y-20867D01*
X21942Y-20943D01*
X22061Y-20992D01*
X22190Y-20992D01*
X22308Y-20943D01*
X22400Y-20852D01*
X22449Y-20733D01*
X22449Y-20605D01*
X22449Y-26914D01*
X22412Y-27002D01*
X22412Y-27130D01*
X22461Y-27249D01*
X22552Y-27340D01*
X22671Y-27390D01*
X22800Y-27390D01*
X22919Y-27341D01*
X23010Y-27250D01*
X23059Y-27131D01*
X23059Y-27002D01*
X23010Y-26883D01*
X22934Y-26807D01*
X22934Y-20357D01*
X23999Y-19292D01*
X27055Y-19292D01*
X27132Y-19408D01*
X27251Y-19487D01*
X27132Y-19567D01*
X27036Y-19711D01*
X27002Y-19881D01*
X27036Y-20051D01*
X27132Y-20195D01*
X27276Y-20291D01*
X27446Y-20325D01*
X28065Y-20325D01*
X28235Y-20291D01*
X28379Y-20195D01*
X28475Y-20051D01*
X28509Y-19881D01*
X28475Y-19711D01*
X28379Y-19567D01*
X28260Y-19487D01*
X28379Y-19408D01*
X28475Y-19264D01*
X28509Y-19094D01*
X28475Y-18924D01*
X28418Y-18839D01*
X28486Y-18811D01*
X28555Y-18741D01*
X28593Y-18650D01*
X28593Y-21702D01*
X28555Y-21611D01*
X28486Y-21542D01*
X28395Y-21504D01*
X28297Y-21504D01*
X27866Y-21504D01*
X27804Y-21566D01*
X27804Y-21998D01*
X28531Y-21998D01*
X28593Y-21936D01*
X28593Y-21702D01*
X28593Y-22391D01*
X28593Y-22157D01*
X28531Y-22095D01*
X27804Y-22095D01*
X27804Y-22103D01*
X27707Y-22103D01*
X27707Y-22095D01*
X27707Y-21998D01*
X27707Y-21566D01*
X27645Y-21504D01*
X27214Y-21504D01*
X27116Y-21504D01*
X27025Y-21542D01*
X26956Y-21611D01*
X26918Y-21702D01*
X26918Y-21936D01*
X26980Y-21998D01*
X27707Y-21998D01*
X27707Y-22095D01*
X26980Y-22095D01*
X26918Y-22157D01*
X26918Y-22391D01*
X26956Y-22482D01*
X27025Y-22551D01*
X27093Y-22579D01*
X27036Y-22665D01*
X27002Y-22835D01*
X27036Y-23004D01*
X27132Y-23148D01*
X27251Y-23228D01*
X27132Y-23308D01*
X27036Y-23452D01*
X27002Y-23622D01*
X27036Y-23791D01*
X27132Y-23935D01*
X27251Y-24015D01*
X27132Y-24095D01*
X27036Y-24239D01*
X27002Y-24409D01*
X27036Y-24578D01*
X27132Y-24722D01*
X27276Y-24819D01*
X27446Y-24852D01*
X28065Y-24852D01*
X28235Y-24819D01*
X28379Y-24722D01*
X28475Y-24578D01*
X28509Y-24409D01*
X28475Y-24239D01*
X28379Y-24095D01*
X28260Y-24015D01*
X28379Y-23935D01*
X28475Y-23791D01*
X28509Y-23622D01*
X28475Y-23452D01*
X28379Y-23308D01*
X28260Y-23228D01*
X28379Y-23148D01*
X28475Y-23004D01*
X28509Y-22835D01*
X28475Y-22665D01*
X28418Y-22579D01*
X28486Y-22551D01*
X28555Y-22482D01*
X28593Y-22391D01*
X28593Y-29125D01*
X28298Y-29420D01*
X28298Y-28002D01*
X28298Y-26919D01*
X28298Y-26820D01*
X28260Y-26730D01*
X28191Y-26660D01*
X28100Y-26623D01*
X27866Y-26623D01*
X27804Y-26685D01*
X27804Y-27412D01*
X28236Y-27412D01*
X28298Y-27350D01*
X28298Y-26919D01*
X28298Y-28002D01*
X28298Y-27570D01*
X28236Y-27509D01*
X27804Y-27509D01*
X27804Y-28236D01*
X27866Y-28298D01*
X28100Y-28298D01*
X28191Y-28260D01*
X28260Y-28191D01*
X28298Y-28100D01*
X28298Y-28002D01*
X28298Y-29420D01*
X27859Y-29859D01*
X27816Y-29924D01*
X27801Y-30000D01*
X27801Y-30579D01*
X27782Y-30675D01*
X27740Y-30739D01*
X27707Y-30761D01*
X27707Y-28236D01*
X27707Y-27509D01*
X27699Y-27509D01*
X27699Y-27412D01*
X27707Y-27412D01*
X27707Y-26685D01*
X27645Y-26623D01*
X27411Y-26623D01*
X27320Y-26660D01*
X27251Y-26730D01*
X27223Y-26798D01*
X27137Y-26741D01*
X26968Y-26707D01*
X26798Y-26741D01*
X26654Y-26837D01*
X26574Y-26956D01*
X26495Y-26837D01*
X26350Y-26741D01*
X26181Y-26707D01*
X26011Y-26741D01*
X25867Y-26837D01*
X25787Y-26956D01*
X25708Y-26837D01*
X25563Y-26741D01*
X25394Y-26707D01*
X25246Y-26736D01*
X25246Y-22391D01*
X25246Y-21702D01*
X25209Y-21611D01*
X25140Y-21541D01*
X25049Y-21504D01*
X24951Y-21504D01*
X24519Y-21504D01*
X24458Y-21566D01*
X24458Y-21998D01*
X25185Y-21998D01*
X25246Y-21936D01*
X25246Y-21702D01*
X25246Y-22391D01*
X25246Y-22156D01*
X25185Y-22095D01*
X24458Y-22095D01*
X24458Y-22102D01*
X24361Y-22102D01*
X24361Y-22095D01*
X24361Y-21998D01*
X24361Y-21566D01*
X24299Y-21504D01*
X23867Y-21504D01*
X23769Y-21504D01*
X23679Y-21541D01*
X23609Y-21611D01*
X23572Y-21702D01*
X23572Y-21936D01*
X23633Y-21998D01*
X24361Y-21998D01*
X24361Y-22095D01*
X23633Y-22095D01*
X23572Y-22156D01*
X23572Y-22391D01*
X23609Y-22481D01*
X23679Y-22551D01*
X23746Y-22579D01*
X23689Y-22664D01*
X23656Y-22834D01*
X23689Y-23004D01*
X23786Y-23148D01*
X23905Y-23228D01*
X23786Y-23307D01*
X23689Y-23451D01*
X23656Y-23621D01*
X23689Y-23791D01*
X23786Y-23935D01*
X23930Y-24031D01*
X24100Y-24065D01*
X24719Y-24065D01*
X24888Y-24031D01*
X25032Y-23935D01*
X25129Y-23791D01*
X25163Y-23621D01*
X25129Y-23451D01*
X25032Y-23307D01*
X24913Y-23228D01*
X25032Y-23148D01*
X25129Y-23004D01*
X25163Y-22834D01*
X25129Y-22664D01*
X25072Y-22579D01*
X25140Y-22551D01*
X25209Y-22481D01*
X25246Y-22391D01*
X25246Y-26736D01*
X25224Y-26741D01*
X25080Y-26837D01*
X24983Y-26981D01*
X24950Y-27151D01*
X24950Y-27770D01*
X24983Y-27940D01*
X25080Y-28084D01*
X25224Y-28180D01*
X25394Y-28214D01*
X25563Y-28180D01*
X25708Y-28084D01*
X25787Y-27965D01*
X25867Y-28084D01*
X26011Y-28180D01*
X26181Y-28214D01*
X26350Y-28180D01*
X26495Y-28084D01*
X26574Y-27965D01*
X26654Y-28084D01*
X26798Y-28180D01*
X26968Y-28214D01*
X27137Y-28180D01*
X27223Y-28123D01*
X27251Y-28191D01*
X27320Y-28260D01*
X27411Y-28298D01*
X27645Y-28298D01*
X27707Y-28236D01*
X27707Y-30761D01*
X27675Y-30782D01*
X27580Y-30801D01*
X27448Y-30801D01*
X27448Y-29911D01*
X27380Y-29746D01*
X27254Y-29620D01*
X27089Y-29551D01*
X26911Y-29551D01*
X26746Y-29619D01*
X26620Y-29745D01*
X26551Y-29910D01*
X26551Y-30088D01*
X26619Y-30253D01*
X26745Y-30379D01*
X26910Y-30448D01*
X27088Y-30448D01*
X27253Y-30380D01*
X27379Y-30254D01*
X27448Y-30089D01*
X27448Y-29911D01*
X27448Y-30801D01*
X26448Y-30801D01*
X26448Y-29911D01*
X26380Y-29746D01*
X26254Y-29620D01*
X26089Y-29551D01*
X25911Y-29551D01*
X25746Y-29619D01*
X25620Y-29745D01*
X25551Y-29910D01*
X25551Y-30088D01*
X25619Y-30253D01*
X25745Y-30379D01*
X25910Y-30448D01*
X26088Y-30448D01*
X26253Y-30380D01*
X26379Y-30254D01*
X26448Y-30089D01*
X26448Y-29911D01*
X26448Y-30801D01*
X25448Y-30801D01*
X25448Y-29911D01*
X25380Y-29746D01*
X25254Y-29620D01*
X25089Y-29551D01*
X24911Y-29551D01*
X24746Y-29619D01*
X24620Y-29745D01*
X24551Y-29910D01*
X24551Y-30088D01*
X24619Y-30253D01*
X24745Y-30379D01*
X24910Y-30448D01*
X25088Y-30448D01*
X25253Y-30380D01*
X25379Y-30254D01*
X25448Y-30089D01*
X25448Y-29911D01*
X25448Y-30801D01*
X24448Y-30801D01*
X24448Y-29911D01*
X24380Y-29746D01*
X24254Y-29620D01*
X24089Y-29551D01*
X23911Y-29551D01*
X23746Y-29619D01*
X23620Y-29745D01*
X23551Y-29910D01*
X23551Y-30088D01*
X23619Y-30253D01*
X23745Y-30379D01*
X23910Y-30448D01*
X24088Y-30448D01*
X24253Y-30380D01*
X24379Y-30254D01*
X24448Y-30089D01*
X24448Y-29911D01*
X24448Y-30801D01*
X23448Y-30801D01*
X23448Y-29911D01*
X23380Y-29746D01*
X23254Y-29620D01*
X23089Y-29551D01*
X22911Y-29551D01*
X22746Y-29619D01*
X22620Y-29745D01*
X22551Y-29910D01*
X22551Y-30088D01*
X22619Y-30253D01*
X22745Y-30379D01*
X22910Y-30448D01*
X23088Y-30448D01*
X23253Y-30380D01*
X23379Y-30254D01*
X23448Y-30089D01*
X23448Y-29911D01*
X23448Y-30801D01*
X22448Y-30801D01*
X22448Y-30270D01*
X22448Y-29670D01*
X22425Y-29616D01*
X22384Y-29574D01*
X22329Y-29551D01*
X22270Y-29551D01*
X22173Y-29551D01*
X22173Y-23557D01*
X22124Y-23439D01*
X22033Y-23348D01*
X21915Y-23298D01*
X21786Y-23298D01*
X21667Y-23347D01*
X21591Y-23423D01*
X19767Y-23423D01*
X19417Y-23074D01*
X19417Y-22967D01*
X19368Y-22848D01*
X19277Y-22757D01*
X19159Y-22708D01*
X19030Y-22708D01*
X18911Y-22757D01*
X18820Y-22848D01*
X18771Y-22966D01*
X18771Y-23095D01*
X18820Y-23214D01*
X18911Y-23305D01*
X19029Y-23354D01*
X19137Y-23354D01*
X19544Y-23762D01*
X19609Y-23805D01*
X19609Y-23805D01*
X19685Y-23820D01*
X21591Y-23820D01*
X21666Y-23896D01*
X21785Y-23945D01*
X21914Y-23945D01*
X22033Y-23896D01*
X22124Y-23805D01*
X22173Y-23686D01*
X22173Y-23557D01*
X22173Y-29551D01*
X21670Y-29551D01*
X21616Y-29574D01*
X21574Y-29615D01*
X21551Y-29670D01*
X21551Y-29729D01*
X21551Y-30329D01*
X21574Y-30383D01*
X21615Y-30425D01*
X21670Y-30448D01*
X21729Y-30448D01*
X22329Y-30448D01*
X22383Y-30425D01*
X22425Y-30384D01*
X22448Y-30329D01*
X22448Y-30270D01*
X22448Y-30801D01*
X20448Y-30801D01*
X20448Y-29911D01*
X20380Y-29746D01*
X20254Y-29620D01*
X20089Y-29551D01*
X19911Y-29551D01*
X19746Y-29619D01*
X19620Y-29745D01*
X19551Y-29910D01*
X19551Y-30088D01*
X19619Y-30253D01*
X19745Y-30379D01*
X19910Y-30448D01*
X20088Y-30448D01*
X20253Y-30380D01*
X20379Y-30254D01*
X20448Y-30089D01*
X20448Y-29911D01*
X20448Y-30801D01*
X19551Y-30801D01*
X19551Y-30082D01*
X19541Y-29865D01*
X19477Y-29712D01*
X19383Y-29685D01*
X19314Y-29753D01*
X19314Y-29616D01*
X19287Y-29522D01*
X19082Y-29448D01*
X18865Y-29458D01*
X18712Y-29522D01*
X18685Y-29616D01*
X19000Y-29931D01*
X19314Y-29616D01*
X19314Y-29753D01*
X19068Y-30000D01*
X19383Y-30314D01*
X19477Y-30287D01*
X19551Y-30082D01*
X19551Y-30801D01*
X19314Y-30801D01*
X19314Y-30383D01*
X19000Y-30068D01*
X18931Y-30136D01*
X18931Y-30000D01*
X18616Y-29685D01*
X18522Y-29712D01*
X18501Y-29769D01*
X18477Y-29712D01*
X18383Y-29685D01*
X18314Y-29753D01*
X18314Y-29616D01*
X18287Y-29522D01*
X18082Y-29448D01*
X17865Y-29458D01*
X17712Y-29522D01*
X17685Y-29616D01*
X18000Y-29931D01*
X18314Y-29616D01*
X18314Y-29753D01*
X18068Y-30000D01*
X18383Y-30314D01*
X18477Y-30287D01*
X18498Y-30230D01*
X18522Y-30287D01*
X18616Y-30314D01*
X18931Y-30000D01*
X18931Y-30136D01*
X18685Y-30383D01*
X18712Y-30477D01*
X18917Y-30551D01*
X19134Y-30541D01*
X19287Y-30477D01*
X19314Y-30383D01*
X19314Y-30801D01*
X18314Y-30801D01*
X18314Y-30383D01*
X18000Y-30068D01*
X17931Y-30136D01*
X17931Y-30000D01*
X17616Y-29685D01*
X17522Y-29712D01*
X17448Y-29917D01*
X17458Y-30134D01*
X17522Y-30287D01*
X17616Y-30314D01*
X17931Y-30000D01*
X17931Y-30136D01*
X17685Y-30383D01*
X17712Y-30477D01*
X17917Y-30551D01*
X18134Y-30541D01*
X18287Y-30477D01*
X18314Y-30383D01*
X18314Y-30801D01*
X17448Y-30801D01*
X17448Y-29911D01*
X17380Y-29746D01*
X17254Y-29620D01*
X17089Y-29551D01*
X16911Y-29551D01*
X16746Y-29619D01*
X16620Y-29745D01*
X16551Y-29910D01*
X16551Y-30088D01*
X16619Y-30253D01*
X16745Y-30379D01*
X16910Y-30448D01*
X17088Y-30448D01*
X17253Y-30380D01*
X17379Y-30254D01*
X17448Y-30089D01*
X17448Y-29911D01*
X17448Y-30801D01*
X16543Y-30801D01*
X16543Y-17770D01*
X16494Y-17651D01*
X16403Y-17560D01*
X16285Y-17511D01*
X16156Y-17511D01*
X16037Y-17560D01*
X15946Y-17651D01*
X15897Y-17770D01*
X15897Y-17793D01*
X15737Y-17793D01*
X15737Y-16717D01*
X15737Y-16193D01*
X15737Y-16143D01*
X15737Y-16093D01*
X15737Y-15570D01*
X15699Y-15479D01*
X15630Y-15409D01*
X15539Y-15372D01*
X15441Y-15372D01*
X15334Y-15372D01*
X15272Y-15433D01*
X15272Y-15833D01*
X15675Y-15833D01*
X15737Y-15771D01*
X15737Y-15570D01*
X15737Y-16093D01*
X15737Y-16093D01*
X15737Y-15992D01*
X15675Y-15930D01*
X15622Y-15930D01*
X15539Y-15895D01*
X15441Y-15895D01*
X15334Y-15895D01*
X15300Y-15930D01*
X15272Y-15930D01*
X15272Y-15957D01*
X15272Y-16329D01*
X15272Y-16357D01*
X15300Y-16357D01*
X15334Y-16391D01*
X15441Y-16391D01*
X15539Y-16391D01*
X15622Y-16357D01*
X15675Y-16357D01*
X15737Y-16295D01*
X15737Y-16193D01*
X15737Y-16193D01*
X15737Y-16717D01*
X15737Y-16515D01*
X15675Y-16453D01*
X15272Y-16453D01*
X15272Y-16853D01*
X15334Y-16915D01*
X15441Y-16915D01*
X15539Y-16915D01*
X15630Y-16877D01*
X15699Y-16807D01*
X15737Y-16717D01*
X15737Y-17793D01*
X15205Y-17793D01*
X15205Y-16717D01*
X15205Y-16193D01*
X15205Y-16143D01*
X15205Y-16093D01*
X15205Y-15570D01*
X15175Y-15498D01*
X15175Y-15433D01*
X15114Y-15372D01*
X15007Y-15372D01*
X14958Y-15372D01*
X14909Y-15372D01*
X14803Y-15372D01*
X14741Y-15433D01*
X14741Y-15498D01*
X14711Y-15570D01*
X14711Y-15771D01*
X14741Y-15801D01*
X14741Y-15833D01*
X14773Y-15833D01*
X15143Y-15833D01*
X15175Y-15833D01*
X15175Y-15801D01*
X15205Y-15771D01*
X15205Y-15570D01*
X15205Y-16093D01*
X15205Y-16093D01*
X15205Y-15992D01*
X15175Y-15962D01*
X15175Y-15957D01*
X15175Y-15930D01*
X15148Y-15930D01*
X15114Y-15895D01*
X15007Y-15895D01*
X14958Y-15895D01*
X14909Y-15895D01*
X14803Y-15895D01*
X14768Y-15930D01*
X14741Y-15930D01*
X14741Y-15957D01*
X14741Y-15962D01*
X14711Y-15992D01*
X14711Y-16093D01*
X14711Y-16093D01*
X14711Y-16143D01*
X14711Y-16193D01*
X14711Y-16193D01*
X14711Y-16295D01*
X14741Y-16324D01*
X14741Y-16329D01*
X14741Y-16357D01*
X14768Y-16357D01*
X14803Y-16391D01*
X14909Y-16391D01*
X14958Y-16391D01*
X15007Y-16391D01*
X15114Y-16391D01*
X15148Y-16357D01*
X15175Y-16357D01*
X15175Y-16329D01*
X15175Y-16324D01*
X15205Y-16295D01*
X15205Y-16193D01*
X15205Y-16193D01*
X15205Y-16717D01*
X15205Y-16515D01*
X15175Y-16486D01*
X15175Y-16453D01*
X15143Y-16453D01*
X14773Y-16453D01*
X14741Y-16453D01*
X14741Y-16486D01*
X14711Y-16515D01*
X14711Y-16717D01*
X14741Y-16788D01*
X14741Y-16853D01*
X14803Y-16915D01*
X14909Y-16915D01*
X14958Y-16915D01*
X15007Y-16915D01*
X15114Y-16915D01*
X15175Y-16853D01*
X15175Y-16788D01*
X15205Y-16717D01*
X15205Y-17793D01*
X14644Y-17793D01*
X14644Y-16853D01*
X14644Y-16453D01*
X14644Y-16357D01*
X14644Y-16329D01*
X14644Y-15957D01*
X14644Y-15930D01*
X14644Y-15833D01*
X14644Y-15433D01*
X14582Y-15372D01*
X14476Y-15372D01*
X14377Y-15372D01*
X14287Y-15409D01*
X14217Y-15479D01*
X14180Y-15570D01*
X14180Y-15771D01*
X14242Y-15833D01*
X14644Y-15833D01*
X14644Y-15930D01*
X14617Y-15930D01*
X14582Y-15895D01*
X14476Y-15895D01*
X14377Y-15895D01*
X14294Y-15930D01*
X14242Y-15930D01*
X14180Y-15992D01*
X14180Y-16093D01*
X14180Y-16093D01*
X14180Y-16143D01*
X14180Y-16193D01*
X14180Y-16193D01*
X14180Y-16295D01*
X14242Y-16357D01*
X14294Y-16357D01*
X14377Y-16391D01*
X14476Y-16391D01*
X14582Y-16391D01*
X14617Y-16357D01*
X14644Y-16357D01*
X14644Y-16453D01*
X14242Y-16453D01*
X14180Y-16515D01*
X14180Y-16717D01*
X14217Y-16807D01*
X14287Y-16877D01*
X14377Y-16915D01*
X14476Y-16915D01*
X14582Y-16915D01*
X14644Y-16853D01*
X14644Y-17793D01*
X13903Y-17793D01*
X13955Y-17742D01*
X14004Y-17623D01*
X14004Y-17495D01*
X13955Y-17376D01*
X13929Y-17350D01*
X13929Y-15059D01*
X13910Y-14963D01*
X13910Y-14963D01*
X13892Y-14937D01*
X13856Y-14883D01*
X13856Y-14883D01*
X13118Y-14145D01*
X13118Y-14109D01*
X13069Y-13990D01*
X12978Y-13899D01*
X12859Y-13849D01*
X12731Y-13849D01*
X12612Y-13898D01*
X12521Y-13989D01*
X12471Y-14108D01*
X12471Y-14237D01*
X12520Y-14356D01*
X12611Y-14447D01*
X12730Y-14496D01*
X12767Y-14496D01*
X13432Y-15161D01*
X13432Y-17345D01*
X13387Y-17300D01*
X13387Y-15255D01*
X13372Y-15179D01*
X13372Y-15179D01*
X13329Y-15115D01*
X13329Y-15115D01*
X13034Y-14820D01*
X12970Y-14777D01*
X12894Y-14762D01*
X11920Y-14762D01*
X11843Y-14647D01*
X11723Y-14567D01*
X11843Y-14486D01*
X11939Y-14342D01*
X11973Y-14173D01*
X11939Y-14003D01*
X11843Y-13859D01*
X11699Y-13762D01*
X11529Y-13729D01*
X10910Y-13729D01*
X10740Y-13762D01*
X10596Y-13859D01*
X10500Y-14003D01*
X10466Y-14173D01*
X10500Y-14342D01*
X10596Y-14486D01*
X10716Y-14567D01*
X10596Y-14647D01*
X10500Y-14791D01*
X10466Y-14961D01*
X10500Y-15130D01*
X10596Y-15274D01*
X10716Y-15354D01*
X10596Y-15434D01*
X10500Y-15578D01*
X10466Y-15748D01*
X10500Y-15917D01*
X10596Y-16061D01*
X10716Y-16141D01*
X10596Y-16221D01*
X10500Y-16365D01*
X10466Y-16535D01*
X10500Y-16704D01*
X10557Y-16790D01*
X10489Y-16818D01*
X10420Y-16887D01*
X10382Y-16978D01*
X10382Y-17212D01*
X10444Y-17274D01*
X11171Y-17274D01*
X11171Y-17266D01*
X11268Y-17266D01*
X11268Y-17274D01*
X11276Y-17274D01*
X11276Y-17371D01*
X11268Y-17371D01*
X11268Y-17803D01*
X11330Y-17865D01*
X11761Y-17865D01*
X11860Y-17865D01*
X11926Y-17837D01*
X11881Y-17947D01*
X11881Y-18075D01*
X11930Y-18194D01*
X12021Y-18285D01*
X12140Y-18335D01*
X12268Y-18335D01*
X12387Y-18286D01*
X12478Y-18195D01*
X12528Y-18076D01*
X12528Y-17947D01*
X12479Y-17828D01*
X12403Y-17752D01*
X12403Y-16633D01*
X12403Y-16633D01*
X12403Y-16633D01*
X12400Y-16618D01*
X12388Y-16557D01*
X12388Y-16557D01*
X12345Y-16493D01*
X12345Y-16493D01*
X12206Y-16354D01*
X12206Y-15944D01*
X12206Y-15944D01*
X12206Y-15944D01*
X12203Y-15929D01*
X12191Y-15868D01*
X12191Y-15868D01*
X12148Y-15804D01*
X12148Y-15804D01*
X11951Y-15607D01*
X11944Y-15603D01*
X11939Y-15578D01*
X11843Y-15434D01*
X11724Y-15354D01*
X11843Y-15274D01*
X11920Y-15159D01*
X12811Y-15159D01*
X12990Y-15338D01*
X12990Y-15633D01*
X12978Y-15573D01*
X12978Y-15573D01*
X12935Y-15509D01*
X12837Y-15410D01*
X12772Y-15367D01*
X12696Y-15352D01*
X12660Y-15352D01*
X12585Y-15277D01*
X12466Y-15227D01*
X12337Y-15227D01*
X12218Y-15276D01*
X12127Y-15367D01*
X12078Y-15486D01*
X12078Y-15615D01*
X12127Y-15734D01*
X12218Y-15825D01*
X12336Y-15874D01*
X12465Y-15874D01*
X12584Y-15825D01*
X12596Y-15813D01*
X12596Y-17716D01*
X12611Y-17792D01*
X12654Y-17856D01*
X12930Y-18132D01*
X12930Y-18132D01*
X12994Y-18175D01*
X12994Y-18175D01*
X13070Y-18190D01*
X16062Y-18190D01*
X16138Y-18175D01*
X16138Y-18175D01*
X16165Y-18158D01*
X16165Y-18158D01*
X16284Y-18158D01*
X16403Y-18108D01*
X16494Y-18018D01*
X16543Y-17899D01*
X16543Y-17770D01*
X16543Y-30801D01*
X16448Y-30801D01*
X16448Y-29911D01*
X16380Y-29746D01*
X16254Y-29620D01*
X16089Y-29551D01*
X15911Y-29551D01*
X15746Y-29619D01*
X15620Y-29745D01*
X15551Y-29910D01*
X15551Y-30088D01*
X15619Y-30253D01*
X15745Y-30379D01*
X15910Y-30448D01*
X16088Y-30448D01*
X16253Y-30380D01*
X16379Y-30254D01*
X16448Y-30089D01*
X16448Y-29911D01*
X16448Y-30801D01*
X15448Y-30801D01*
X15448Y-30270D01*
X15448Y-29670D01*
X15425Y-29616D01*
X15384Y-29574D01*
X15329Y-29551D01*
X15270Y-29551D01*
X14670Y-29551D01*
X14616Y-29574D01*
X14574Y-29615D01*
X14551Y-29670D01*
X14551Y-29729D01*
X14551Y-30329D01*
X14574Y-30383D01*
X14615Y-30425D01*
X14670Y-30448D01*
X14729Y-30448D01*
X15329Y-30448D01*
X15383Y-30425D01*
X15425Y-30384D01*
X15448Y-30329D01*
X15448Y-30270D01*
X15448Y-30801D01*
X12021Y-30801D01*
X12021Y-21525D01*
X12021Y-20836D01*
X11983Y-20745D01*
X11914Y-20676D01*
X11846Y-20648D01*
X11903Y-20562D01*
X11937Y-20393D01*
X11903Y-20223D01*
X11807Y-20079D01*
X11663Y-19982D01*
X11493Y-19949D01*
X11171Y-19949D01*
X11171Y-17803D01*
X11171Y-17371D01*
X10444Y-17371D01*
X10382Y-17433D01*
X10382Y-17667D01*
X10420Y-17758D01*
X10489Y-17827D01*
X10580Y-17865D01*
X10678Y-17865D01*
X11110Y-17865D01*
X11171Y-17803D01*
X11171Y-19949D01*
X10874Y-19949D01*
X10704Y-19982D01*
X10560Y-20079D01*
X10464Y-20223D01*
X10430Y-20393D01*
X10464Y-20562D01*
X10521Y-20648D01*
X10453Y-20676D01*
X10384Y-20745D01*
X10346Y-20836D01*
X10346Y-21070D01*
X10408Y-21132D01*
X11135Y-21132D01*
X11135Y-21124D01*
X11232Y-21124D01*
X11232Y-21132D01*
X11959Y-21132D01*
X12021Y-21070D01*
X12021Y-20836D01*
X12021Y-21525D01*
X12021Y-21291D01*
X11959Y-21229D01*
X11232Y-21229D01*
X11232Y-21661D01*
X11294Y-21723D01*
X11725Y-21723D01*
X11823Y-21723D01*
X11914Y-21685D01*
X11983Y-21616D01*
X12021Y-21525D01*
X12021Y-30801D01*
X11135Y-30801D01*
X11135Y-21661D01*
X11135Y-21229D01*
X10408Y-21229D01*
X10346Y-21291D01*
X10346Y-21525D01*
X10384Y-21616D01*
X10453Y-21685D01*
X10544Y-21723D01*
X10642Y-21723D01*
X11073Y-21723D01*
X11135Y-21661D01*
X11135Y-30801D01*
X10420Y-30801D01*
X10324Y-30782D01*
X10260Y-30740D01*
X10217Y-30675D01*
X10198Y-30580D01*
X10198Y-10419D01*
X10217Y-10324D01*
X10260Y-10259D01*
X10324Y-10217D01*
X10420Y-10198D01*
X27317Y-10198D01*
X27801Y-10682D01*
X27801Y-15100D01*
X27816Y-15175D01*
X27859Y-15240D01*
X28801Y-16182D01*
X28801Y-28917D01*
M02*
