G04 (created by PCBNEW (2013-07-07 BZR 4022)-stable) date Mon 05 Aug 2013 03:22:25 PM NZST*
%MOIN*%
G04 Gerber Fmt 3.4, Leading zero omitted, Abs format*
%FSLAX34Y34*%
G01*
G70*
G90*
G04 APERTURE LIST*
%ADD10C,0.00590551*%
%ADD11O,0.1181X0.0591*%
%ADD12R,0.1181X0.0591*%
%ADD13R,0.06X0.06*%
%ADD14C,0.06*%
%ADD15O,0.0591X0.1181*%
%ADD16R,0.0591X0.1181*%
%ADD17R,0.0531496X0.0525591*%
G04 APERTURE END LIST*
G54D10*
G54D11*
X11184Y-20393D03*
G54D12*
X11184Y-21181D03*
G54D11*
X27756Y-23622D03*
X27756Y-22835D03*
G54D12*
X27756Y-22047D03*
G54D11*
X27756Y-24409D03*
X11220Y-15748D03*
X11220Y-16535D03*
G54D12*
X11220Y-17323D03*
G54D11*
X11220Y-14961D03*
X11220Y-14173D03*
G54D13*
X27000Y-11000D03*
G54D14*
X26000Y-11000D03*
X25000Y-11000D03*
X24000Y-11000D03*
X23000Y-11000D03*
X22000Y-11000D03*
X21000Y-11000D03*
X20000Y-11000D03*
G54D13*
X22000Y-30000D03*
G54D14*
X23000Y-30000D03*
X24000Y-30000D03*
X25000Y-30000D03*
X26000Y-30000D03*
X27000Y-30000D03*
G54D13*
X15000Y-30000D03*
G54D14*
X16000Y-30000D03*
X17000Y-30000D03*
X18000Y-30000D03*
X19000Y-30000D03*
X20000Y-30000D03*
G54D13*
X18400Y-11000D03*
G54D14*
X17400Y-11000D03*
X16400Y-11000D03*
X15400Y-11000D03*
X14400Y-11000D03*
X13400Y-11000D03*
X12400Y-11000D03*
X11400Y-11000D03*
G54D15*
X26181Y-27460D03*
X26968Y-27460D03*
G54D16*
X27756Y-27460D03*
G54D15*
X25394Y-27460D03*
X15039Y-12404D03*
G54D16*
X14251Y-12404D03*
G54D17*
X14692Y-16405D03*
X15224Y-16405D03*
X15224Y-15881D03*
X14692Y-15881D03*
G54D11*
X27756Y-19881D03*
X27756Y-19094D03*
G54D12*
X27756Y-18306D03*
G54D11*
X24409Y-23621D03*
X24409Y-22834D03*
G54D12*
X24409Y-22046D03*
M02*
