G04 (created by PCBNEW (2013-07-07 BZR 4022)-stable) date Mon 05 Aug 2013 03:22:25 PM NZST*
%MOIN*%
G04 Gerber Fmt 3.4, Leading zero omitted, Abs format*
%FSLAX34Y34*%
G01*
G70*
G90*
G04 APERTURE LIST*
%ADD10C,0.00590551*%
%ADD11O,0.1181X0.0591*%
%ADD12R,0.1181X0.0591*%
%ADD13R,0.06X0.06*%
%ADD14C,0.06*%
%ADD15R,0.036X0.036*%
%ADD16R,0.025X0.045*%
%ADD17R,0.045X0.025*%
%ADD18O,0.0591X0.1181*%
%ADD19R,0.0591X0.1181*%
%ADD20O,0.0315X0.0098*%
%ADD21O,0.0098X0.0315*%
%ADD22R,0.0531496X0.0525591*%
%ADD23C,0.035*%
%ADD24C,0.01*%
%ADD25C,0.02*%
G04 APERTURE END LIST*
G54D10*
G54D11*
X11184Y-20393D03*
G54D12*
X11184Y-21181D03*
G54D11*
X27756Y-23622D03*
X27756Y-22835D03*
G54D12*
X27756Y-22047D03*
G54D11*
X27756Y-24409D03*
X11220Y-15748D03*
X11220Y-16535D03*
G54D12*
X11220Y-17323D03*
G54D11*
X11220Y-14961D03*
X11220Y-14173D03*
G54D13*
X27000Y-11000D03*
G54D14*
X26000Y-11000D03*
X25000Y-11000D03*
X24000Y-11000D03*
X23000Y-11000D03*
X22000Y-11000D03*
X21000Y-11000D03*
X20000Y-11000D03*
G54D13*
X22000Y-30000D03*
G54D14*
X23000Y-30000D03*
X24000Y-30000D03*
X25000Y-30000D03*
X26000Y-30000D03*
X27000Y-30000D03*
G54D13*
X15000Y-30000D03*
G54D14*
X16000Y-30000D03*
X17000Y-30000D03*
X18000Y-30000D03*
X19000Y-30000D03*
X20000Y-30000D03*
G54D13*
X18400Y-11000D03*
G54D14*
X17400Y-11000D03*
X16400Y-11000D03*
X15400Y-11000D03*
X14400Y-11000D03*
X13400Y-11000D03*
X12400Y-11000D03*
X11400Y-11000D03*
G54D15*
X20516Y-15151D03*
X21216Y-15151D03*
X20866Y-15951D03*
G54D16*
X21166Y-17716D03*
X20566Y-17716D03*
X24207Y-17913D03*
X24807Y-17913D03*
X19099Y-15748D03*
X18499Y-15748D03*
X19099Y-16535D03*
X18499Y-16535D03*
X17425Y-15748D03*
X16825Y-15748D03*
X17425Y-14960D03*
X16825Y-14960D03*
X17425Y-16535D03*
X16825Y-16535D03*
G54D17*
X23818Y-15251D03*
X23818Y-15851D03*
X24606Y-15251D03*
X24606Y-15851D03*
G54D16*
X17425Y-17322D03*
X16825Y-17322D03*
G54D17*
X24606Y-16432D03*
X24606Y-17032D03*
G54D16*
X24306Y-13582D03*
X24906Y-13582D03*
G54D17*
X19685Y-15260D03*
X19685Y-14660D03*
X19685Y-16038D03*
X19685Y-16638D03*
G54D16*
X21166Y-16929D03*
X20566Y-16929D03*
G54D17*
X22834Y-15251D03*
X22834Y-15851D03*
X22047Y-15251D03*
X22047Y-15851D03*
X26181Y-17032D03*
X26181Y-16432D03*
G54D16*
X23823Y-16633D03*
X23223Y-16633D03*
G54D17*
X25393Y-17032D03*
X25393Y-16432D03*
X25393Y-15251D03*
X25393Y-15851D03*
X26181Y-15251D03*
X26181Y-15851D03*
G54D16*
X25684Y-14370D03*
X26284Y-14370D03*
G54D17*
X26968Y-15251D03*
X26968Y-15851D03*
G54D16*
X24306Y-14370D03*
X24906Y-14370D03*
G54D17*
X15551Y-17810D03*
X15551Y-18410D03*
X14370Y-18410D03*
X14370Y-17810D03*
X13188Y-16835D03*
X13188Y-16235D03*
X13188Y-15654D03*
X13188Y-15054D03*
G54D16*
X20566Y-28444D03*
X21166Y-28444D03*
G54D17*
X21948Y-28449D03*
X21948Y-27849D03*
G54D16*
X12012Y-12303D03*
X11412Y-12303D03*
G54D17*
X19980Y-12692D03*
X19980Y-13292D03*
X23031Y-12692D03*
X23031Y-13292D03*
X21062Y-12692D03*
X21062Y-13292D03*
G54D16*
X21747Y-12992D03*
X22347Y-12992D03*
X18400Y-12401D03*
X19000Y-12401D03*
X18400Y-13090D03*
X19000Y-13090D03*
G54D17*
X19586Y-26176D03*
X19586Y-26776D03*
X20472Y-25881D03*
X20472Y-26481D03*
X19094Y-20566D03*
X19094Y-21166D03*
X21338Y-20369D03*
X21338Y-20969D03*
G54D16*
X17130Y-12007D03*
X16530Y-12007D03*
X16530Y-12795D03*
X17130Y-12795D03*
G54D18*
X26181Y-27460D03*
X26968Y-27460D03*
G54D19*
X27756Y-27460D03*
G54D18*
X25394Y-27460D03*
X15039Y-12404D03*
G54D19*
X14251Y-12404D03*
G54D20*
X15748Y-16535D03*
X15748Y-16338D03*
X15748Y-16141D03*
X15748Y-15944D03*
X15748Y-15748D03*
G54D21*
X15157Y-15354D03*
X14960Y-15354D03*
X14763Y-15354D03*
X14566Y-15354D03*
X15354Y-15354D03*
G54D20*
X14173Y-15748D03*
X14173Y-15944D03*
X14173Y-16141D03*
X14173Y-16338D03*
X14173Y-16535D03*
G54D21*
X14566Y-16929D03*
X14763Y-16929D03*
X14960Y-16929D03*
X15157Y-16929D03*
X15354Y-16929D03*
G54D22*
X14692Y-16405D03*
X15224Y-16405D03*
X15224Y-15881D03*
X14692Y-15881D03*
G54D17*
X12204Y-18518D03*
X12204Y-19118D03*
X13070Y-18518D03*
X13070Y-19118D03*
G54D11*
X27756Y-19881D03*
X27756Y-19094D03*
G54D12*
X27756Y-18306D03*
G54D11*
X24409Y-23621D03*
X24409Y-22834D03*
G54D12*
X24409Y-22046D03*
G54D23*
X22125Y-20669D03*
X12795Y-14173D03*
X13681Y-17421D03*
X16220Y-17834D03*
X12401Y-15551D03*
X17322Y-18996D03*
X15551Y-14370D03*
X17814Y-18602D03*
X14960Y-14370D03*
X12401Y-16141D03*
X24685Y-27086D03*
X22559Y-27598D03*
X21732Y-27047D03*
X18267Y-19251D03*
X18622Y-18385D03*
X19173Y-10944D03*
X25748Y-23740D03*
X26732Y-24803D03*
X27165Y-25669D03*
X17165Y-26141D03*
X17480Y-27047D03*
X10629Y-10629D03*
X27460Y-14074D03*
X10826Y-23425D03*
X10826Y-30118D03*
X13681Y-30019D03*
X18897Y-14665D03*
X17913Y-16141D03*
X21338Y-19881D03*
X19094Y-18700D03*
X19094Y-23031D03*
X21850Y-23622D03*
X13188Y-17421D03*
X12204Y-18011D03*
X22736Y-27066D03*
X21358Y-18700D03*
X21358Y-13779D03*
X19783Y-18700D03*
X22440Y-13779D03*
X20570Y-13779D03*
X20570Y-18700D03*
G54D24*
X27756Y-20354D02*
X27756Y-19881D01*
X27440Y-20669D02*
X27756Y-20354D01*
X22125Y-20669D02*
X27440Y-20669D01*
G54D25*
X11412Y-12303D02*
X11412Y-12790D01*
X11412Y-12790D02*
X12795Y-14173D01*
X13681Y-17421D02*
X13681Y-19685D01*
X13681Y-19685D02*
X16000Y-22003D01*
X16000Y-22003D02*
X16000Y-30000D01*
G54D24*
X11412Y-12303D02*
X11412Y-11012D01*
X11412Y-11012D02*
X11400Y-11000D01*
X11412Y-12303D02*
X11400Y-12290D01*
G54D25*
X20472Y-26481D02*
X25201Y-26481D01*
X25394Y-26673D02*
X25394Y-27460D01*
X25201Y-26481D02*
X25394Y-26673D01*
X19586Y-26776D02*
X20177Y-26776D01*
X20177Y-26776D02*
X20472Y-26481D01*
X17000Y-26574D02*
X19385Y-26574D01*
X19385Y-26574D02*
X19586Y-26776D01*
G54D24*
X20472Y-26481D02*
X20575Y-26481D01*
X20575Y-26481D02*
X20669Y-26574D01*
X20669Y-26574D02*
X20472Y-26481D01*
X19586Y-26776D02*
X19586Y-26574D01*
X20669Y-26574D02*
X20472Y-26481D01*
X20575Y-26481D02*
X20669Y-26574D01*
G54D25*
X16220Y-17834D02*
X16732Y-18425D01*
X16732Y-26307D02*
X17000Y-26574D01*
X16732Y-18425D02*
X16732Y-26307D01*
G54D24*
X12504Y-15654D02*
X13188Y-15654D01*
X12504Y-15654D02*
X12401Y-15551D01*
G54D25*
X17000Y-30000D02*
X17000Y-27165D01*
X17000Y-27165D02*
X17000Y-26574D01*
G54D24*
X16220Y-17834D02*
X16220Y-17829D01*
G54D25*
X20566Y-17716D02*
X20472Y-17810D01*
X20472Y-17810D02*
X16220Y-17829D01*
X16220Y-17829D02*
X15551Y-17810D01*
G54D24*
X15354Y-16929D02*
X15354Y-17125D01*
X15354Y-17125D02*
X15551Y-17322D01*
G54D25*
X15551Y-17322D02*
X15551Y-17810D01*
G54D24*
X14173Y-15944D02*
X13779Y-15944D01*
X13779Y-15944D02*
X13488Y-15654D01*
X13488Y-15654D02*
X13188Y-15654D01*
X21948Y-28449D02*
X21170Y-28449D01*
X21170Y-28449D02*
X21166Y-28444D01*
X21948Y-28449D02*
X21948Y-29948D01*
X21948Y-29948D02*
X22000Y-30000D01*
X19586Y-26176D02*
X19492Y-26082D01*
X15157Y-14763D02*
X15551Y-14370D01*
X15157Y-14763D02*
X15157Y-15354D01*
X17618Y-19291D02*
X17322Y-18996D01*
X17618Y-25787D02*
X17618Y-19291D01*
X17913Y-26082D02*
X17618Y-25787D01*
X19492Y-26082D02*
X17913Y-26082D01*
X19586Y-26176D02*
X25782Y-26176D01*
X26181Y-26574D02*
X26181Y-27460D01*
X25782Y-26176D02*
X26181Y-26574D01*
X19581Y-26181D02*
X19586Y-26176D01*
X26181Y-27460D02*
X26181Y-28248D01*
X26181Y-28248D02*
X26000Y-28429D01*
X26000Y-28429D02*
X26000Y-30000D01*
X20472Y-25881D02*
X26274Y-25881D01*
X26968Y-26574D02*
X26968Y-27460D01*
X26274Y-25881D02*
X26968Y-26574D01*
X17814Y-18602D02*
X17814Y-25684D01*
X14960Y-15354D02*
X14960Y-14370D01*
X18011Y-25881D02*
X20472Y-25881D01*
X17814Y-25684D02*
X18011Y-25881D01*
X20472Y-25881D02*
X20566Y-25787D01*
X20378Y-25787D02*
X20472Y-25881D01*
X20472Y-25881D02*
X20575Y-25881D01*
X20669Y-25787D02*
X20472Y-25881D01*
X20575Y-25881D02*
X20669Y-25787D01*
X20472Y-25881D02*
X20674Y-25881D01*
X27000Y-30000D02*
X26968Y-29968D01*
X26968Y-29968D02*
X26968Y-27460D01*
X12495Y-16235D02*
X12401Y-16141D01*
X12495Y-16235D02*
X13188Y-16235D01*
X18000Y-27566D02*
X21212Y-27566D01*
X24173Y-27598D02*
X24685Y-27086D01*
X22559Y-27598D02*
X24173Y-27598D01*
X21212Y-27566D02*
X21732Y-27047D01*
X14173Y-16141D02*
X14429Y-16141D01*
X14429Y-16141D02*
X14692Y-16405D01*
X14566Y-15354D02*
X14566Y-15755D01*
X14566Y-15755D02*
X14692Y-15881D01*
X14763Y-15354D02*
X14763Y-15811D01*
X14763Y-15811D02*
X14692Y-15881D01*
X15354Y-15354D02*
X15354Y-15751D01*
X15354Y-15751D02*
X15224Y-15881D01*
X15224Y-16405D02*
X14692Y-16405D01*
X14692Y-16405D02*
X14692Y-15881D01*
X14692Y-15881D02*
X15224Y-15881D01*
X15224Y-15881D02*
X15224Y-16405D01*
X15748Y-16141D02*
X15488Y-16141D01*
X15488Y-16141D02*
X15224Y-16405D01*
X14251Y-12404D02*
X14150Y-12303D01*
X14150Y-12303D02*
X12400Y-12303D01*
X18267Y-18740D02*
X18267Y-19251D01*
X18622Y-18385D02*
X18267Y-18740D01*
X27441Y-22047D02*
X25748Y-23740D01*
X27756Y-22047D02*
X27441Y-22047D01*
X18000Y-30000D02*
X18000Y-27566D01*
X18000Y-27566D02*
X17480Y-27047D01*
X16530Y-12795D02*
X15940Y-13385D01*
X15940Y-13385D02*
X15551Y-13385D01*
X16530Y-12795D02*
X16437Y-12795D01*
X27756Y-27460D02*
X27756Y-27165D01*
X28346Y-22047D02*
X27756Y-22047D01*
X28740Y-22440D02*
X28346Y-22047D01*
X28740Y-26181D02*
X28740Y-22440D01*
X27756Y-27165D02*
X28740Y-26181D01*
X27756Y-22047D02*
X28346Y-22047D01*
X28444Y-18306D02*
X27756Y-18306D01*
X28641Y-18503D02*
X28444Y-18306D01*
X28641Y-21751D02*
X28641Y-18503D01*
X28346Y-22047D02*
X28641Y-21751D01*
X24409Y-22046D02*
X27755Y-22046D01*
X27755Y-22046D02*
X27756Y-22047D01*
X27756Y-18306D02*
X27756Y-16634D01*
X27756Y-16634D02*
X27559Y-16437D01*
X26968Y-15251D02*
X26968Y-14566D01*
X26968Y-14566D02*
X27460Y-14074D01*
X20566Y-28444D02*
X19586Y-28444D01*
X19000Y-29031D02*
X19000Y-30000D01*
X19586Y-28444D02*
X19000Y-29031D01*
X17618Y-14271D02*
X16437Y-14271D01*
X12012Y-12303D02*
X12400Y-12303D01*
X12400Y-12303D02*
X12401Y-12303D01*
X12401Y-12303D02*
X12400Y-12303D01*
X21653Y-14370D02*
X18996Y-14370D01*
X21747Y-14276D02*
X21653Y-14370D01*
X21747Y-12992D02*
X21747Y-14276D01*
X18897Y-14468D02*
X18897Y-14665D01*
X18996Y-14370D02*
X18897Y-14468D01*
X18400Y-13090D02*
X18400Y-14168D01*
X18400Y-14168D02*
X18897Y-14665D01*
X18897Y-14665D02*
X18011Y-14665D01*
X18011Y-14665D02*
X17618Y-14271D01*
X16437Y-14271D02*
X15551Y-13385D01*
X15551Y-13385D02*
X13188Y-13385D01*
X15354Y-15354D02*
X16437Y-14271D01*
X25393Y-17032D02*
X25487Y-17032D01*
X27357Y-15251D02*
X26968Y-15251D01*
X27559Y-15452D02*
X27357Y-15251D01*
X27559Y-16338D02*
X27559Y-15452D01*
X27165Y-16732D02*
X27559Y-16338D01*
X25787Y-16732D02*
X27165Y-16732D01*
X25487Y-17032D02*
X25787Y-16732D01*
X19685Y-14660D02*
X20270Y-14660D01*
X20270Y-14660D02*
X20516Y-14905D01*
X20516Y-14905D02*
X20516Y-15151D01*
X17425Y-16141D02*
X17913Y-16141D01*
X18897Y-14665D02*
X18902Y-14660D01*
X18902Y-14660D02*
X19685Y-14660D01*
X17425Y-16535D02*
X17425Y-16141D01*
X17425Y-16141D02*
X17425Y-15748D01*
X15748Y-16141D02*
X17322Y-16141D01*
X17425Y-16038D02*
X17425Y-15748D01*
X17322Y-16141D02*
X17425Y-16038D01*
X14763Y-15354D02*
X14763Y-14960D01*
X14763Y-14960D02*
X14566Y-14960D01*
X14566Y-15354D02*
X14566Y-14960D01*
X14566Y-14960D02*
X14566Y-14566D01*
X14173Y-14173D02*
X13188Y-14173D01*
X14566Y-14566D02*
X14173Y-14173D01*
X13188Y-15054D02*
X13188Y-14173D01*
X13188Y-14173D02*
X13188Y-13385D01*
X12400Y-12596D02*
X12400Y-12303D01*
X12400Y-12303D02*
X12400Y-11000D01*
X13188Y-13385D02*
X12400Y-12596D01*
X14173Y-16141D02*
X13282Y-16141D01*
X13282Y-16141D02*
X13188Y-16235D01*
X18400Y-13577D02*
X18400Y-13090D01*
X18400Y-13090D02*
X18400Y-12401D01*
X21338Y-20369D02*
X21338Y-19881D01*
X24306Y-13582D02*
X24000Y-13276D01*
X24000Y-13276D02*
X24000Y-11000D01*
X23000Y-11000D02*
X23000Y-12660D01*
X22678Y-12660D02*
X22347Y-12992D01*
X23000Y-12660D02*
X22678Y-12660D01*
X22000Y-11000D02*
X22047Y-11047D01*
X22244Y-14370D02*
X24306Y-14370D01*
X22047Y-14173D02*
X22244Y-14370D01*
X22047Y-11047D02*
X22047Y-14173D01*
X21062Y-12692D02*
X20772Y-12692D01*
X19099Y-12992D02*
X19000Y-13090D01*
X20472Y-12992D02*
X19099Y-12992D01*
X20772Y-12692D02*
X20472Y-12992D01*
X21062Y-12692D02*
X21062Y-11062D01*
X21062Y-11062D02*
X21000Y-11000D01*
X19000Y-12401D02*
X19980Y-12401D01*
X19980Y-12692D02*
X19980Y-12401D01*
X19980Y-12401D02*
X19980Y-11019D01*
X19980Y-11019D02*
X20000Y-11000D01*
X17130Y-12795D02*
X17130Y-12007D01*
X17130Y-12007D02*
X18011Y-12007D01*
X18400Y-11619D02*
X18400Y-11000D01*
X18011Y-12007D02*
X18400Y-11619D01*
X19094Y-20566D02*
X19094Y-18700D01*
X15748Y-15944D02*
X16629Y-15944D01*
X16629Y-15944D02*
X16825Y-15748D01*
X15748Y-15748D02*
X15944Y-15748D01*
X16338Y-14960D02*
X16825Y-14960D01*
X16141Y-15157D02*
X16338Y-14960D01*
X16141Y-15551D02*
X16141Y-15157D01*
X15944Y-15748D02*
X16141Y-15551D01*
X17425Y-14960D02*
X18307Y-14960D01*
X18499Y-15152D02*
X18499Y-15748D01*
X18307Y-14960D02*
X18499Y-15152D01*
X15748Y-16338D02*
X16629Y-16338D01*
X16629Y-16338D02*
X16825Y-16535D01*
X15748Y-16535D02*
X15944Y-16535D01*
X16338Y-17322D02*
X16825Y-17322D01*
X16141Y-17125D02*
X16338Y-17322D01*
X16141Y-16732D02*
X16141Y-17125D01*
X15944Y-16535D02*
X16141Y-16732D01*
X17425Y-17322D02*
X18307Y-17322D01*
X18499Y-17130D02*
X18499Y-16535D01*
X18307Y-17322D02*
X18499Y-17130D01*
X14173Y-16338D02*
X13976Y-16338D01*
X13779Y-16535D02*
X11220Y-16535D01*
X13976Y-16338D02*
X13779Y-16535D01*
X14173Y-15748D02*
X13976Y-15748D01*
X12007Y-14173D02*
X11220Y-14173D01*
X12204Y-14370D02*
X12007Y-14173D01*
X12204Y-14763D02*
X12204Y-14370D01*
X12795Y-15354D02*
X12204Y-14763D01*
X13582Y-15354D02*
X12795Y-15354D01*
X13976Y-15748D02*
X13582Y-15354D01*
X20566Y-16929D02*
X19975Y-16929D01*
X19975Y-16929D02*
X19685Y-16638D01*
X24906Y-13582D02*
X24906Y-14370D01*
X24906Y-14370D02*
X25684Y-14370D01*
X19099Y-16141D02*
X19581Y-16141D01*
X19581Y-16141D02*
X19685Y-16038D01*
X19099Y-16535D02*
X19099Y-16141D01*
X19099Y-16141D02*
X19099Y-15748D01*
X19685Y-16038D02*
X19685Y-15260D01*
X21338Y-20969D02*
X21338Y-22598D01*
X21574Y-22834D02*
X24409Y-22834D01*
X21338Y-22598D02*
X21574Y-22834D01*
X24409Y-23621D02*
X21850Y-23621D01*
X19094Y-23031D02*
X19094Y-21166D01*
X21850Y-23621D02*
X21850Y-23622D01*
X24409Y-23622D02*
X24409Y-23621D01*
X16530Y-12007D02*
X15436Y-12007D01*
X15436Y-12007D02*
X15039Y-12404D01*
X11184Y-20393D02*
X11184Y-19445D01*
X11184Y-19445D02*
X11511Y-19118D01*
X11511Y-19118D02*
X12204Y-19118D01*
X12204Y-19118D02*
X13070Y-19118D01*
X13070Y-18518D02*
X13070Y-17539D01*
X13070Y-17539D02*
X13188Y-17421D01*
X12204Y-18518D02*
X12204Y-18011D01*
X26284Y-14370D02*
X26284Y-15148D01*
X26284Y-15148D02*
X26181Y-15251D01*
X23823Y-16633D02*
X23823Y-15855D01*
X23823Y-15855D02*
X23818Y-15851D01*
X21948Y-27460D02*
X22342Y-27066D01*
X22342Y-27066D02*
X22736Y-27066D01*
X21948Y-27849D02*
X21948Y-27460D01*
X24606Y-15251D02*
X23818Y-15251D01*
X24207Y-17913D02*
X24207Y-17130D01*
X24306Y-17032D02*
X24606Y-17032D01*
X24207Y-17130D02*
X24306Y-17032D01*
X24606Y-16432D02*
X24606Y-15851D01*
X25393Y-16432D02*
X25393Y-15851D01*
X26181Y-16432D02*
X25393Y-16432D01*
X24807Y-17913D02*
X25984Y-17913D01*
X26181Y-17716D02*
X26181Y-17032D01*
X25984Y-17913D02*
X26181Y-17716D01*
X23223Y-16633D02*
X23223Y-15448D01*
X23026Y-15251D02*
X22834Y-15251D01*
X23223Y-15448D02*
X23026Y-15251D01*
X22047Y-15251D02*
X22834Y-15251D01*
X21216Y-15151D02*
X21947Y-15151D01*
X21947Y-15151D02*
X22047Y-15251D01*
X25393Y-15251D02*
X25684Y-15251D01*
X25890Y-15851D02*
X26181Y-15851D01*
X25787Y-15748D02*
X25890Y-15851D01*
X25787Y-15354D02*
X25787Y-15748D01*
X25684Y-15251D02*
X25787Y-15354D01*
X26968Y-15851D02*
X26181Y-15851D01*
X14960Y-16929D02*
X14960Y-17322D01*
X14763Y-18016D02*
X14370Y-18410D01*
X14763Y-17519D02*
X14763Y-18016D01*
X14960Y-17322D02*
X14763Y-17519D01*
X14763Y-16929D02*
X14763Y-17125D01*
X14370Y-17519D02*
X14370Y-17810D01*
X14763Y-17125D02*
X14370Y-17519D01*
X15157Y-16929D02*
X15157Y-18110D01*
X15457Y-18410D02*
X15551Y-18410D01*
X15157Y-18110D02*
X15457Y-18410D01*
X21240Y-24507D02*
X25767Y-24507D01*
X21358Y-18897D02*
X20807Y-19448D01*
X20807Y-19448D02*
X20807Y-24074D01*
X20807Y-24074D02*
X21240Y-24507D01*
X21062Y-13292D02*
X21062Y-13484D01*
X21062Y-13484D02*
X21358Y-13779D01*
X21358Y-18700D02*
X21358Y-18897D01*
X27440Y-22835D02*
X27756Y-22835D01*
X25767Y-24507D02*
X27440Y-22835D01*
X22047Y-15851D02*
X22834Y-15851D01*
X20866Y-15951D02*
X21947Y-15951D01*
X21947Y-15951D02*
X22047Y-15851D01*
X21166Y-17716D02*
X21166Y-16929D01*
X21166Y-16929D02*
X21166Y-16343D01*
X20866Y-16043D02*
X20866Y-15951D01*
X21166Y-16343D02*
X20866Y-16043D01*
X19783Y-18700D02*
X19783Y-24114D01*
X23031Y-13292D02*
X22544Y-13779D01*
X22544Y-13779D02*
X22440Y-13779D01*
X26889Y-25275D02*
X27756Y-24409D01*
X20944Y-25275D02*
X26889Y-25275D01*
X19783Y-24114D02*
X20944Y-25275D01*
X20570Y-18700D02*
X20570Y-24212D01*
X20083Y-13292D02*
X20570Y-13779D01*
X19980Y-13292D02*
X20083Y-13292D01*
X27263Y-23622D02*
X27756Y-23622D01*
X26161Y-24724D02*
X27263Y-23622D01*
X21082Y-24724D02*
X26161Y-24724D01*
X20570Y-24212D02*
X21082Y-24724D01*
X14566Y-16929D02*
X13976Y-16929D01*
X13877Y-16830D02*
X13976Y-16732D01*
X13976Y-16929D02*
X13877Y-16830D01*
X14173Y-16535D02*
X13976Y-16732D01*
X13976Y-16732D02*
X13873Y-16835D01*
X13873Y-16835D02*
X13188Y-16835D01*
G54D10*
G36*
X13960Y-16143D02*
X13900Y-16155D01*
X13884Y-16166D01*
X13831Y-16166D01*
X13777Y-16212D01*
X13790Y-16243D01*
X13697Y-16336D01*
X13651Y-16336D01*
X13599Y-16283D01*
X13237Y-16283D01*
X13237Y-16291D01*
X13140Y-16291D01*
X13140Y-16283D01*
X12778Y-16283D01*
X12726Y-16336D01*
X11920Y-16336D01*
X11843Y-16221D01*
X11724Y-16141D01*
X11843Y-16061D01*
X11939Y-15917D01*
X11973Y-15748D01*
X11939Y-15578D01*
X11843Y-15434D01*
X11724Y-15354D01*
X11843Y-15274D01*
X11939Y-15130D01*
X11973Y-14961D01*
X11939Y-14791D01*
X11843Y-14647D01*
X11723Y-14567D01*
X11843Y-14486D01*
X11920Y-14371D01*
X11925Y-14371D01*
X12006Y-14452D01*
X12006Y-14763D01*
X12021Y-14839D01*
X12064Y-14904D01*
X12388Y-15227D01*
X12337Y-15227D01*
X12218Y-15276D01*
X12127Y-15367D01*
X12078Y-15486D01*
X12078Y-15615D01*
X12127Y-15734D01*
X12218Y-15825D01*
X12336Y-15874D01*
X12465Y-15874D01*
X12518Y-15852D01*
X12833Y-15852D01*
X12838Y-15863D01*
X12860Y-15886D01*
X12823Y-15901D01*
X12754Y-15970D01*
X12717Y-16061D01*
X12717Y-16125D01*
X12778Y-16187D01*
X13140Y-16187D01*
X13140Y-16179D01*
X13237Y-16179D01*
X13237Y-16187D01*
X13599Y-16187D01*
X13660Y-16125D01*
X13660Y-16099D01*
X13703Y-16128D01*
X13703Y-16128D01*
X13779Y-16143D01*
X13960Y-16143D01*
X13960Y-16143D01*
G37*
G54D24*
X13960Y-16143D02*
X13900Y-16155D01*
X13884Y-16166D01*
X13831Y-16166D01*
X13777Y-16212D01*
X13790Y-16243D01*
X13697Y-16336D01*
X13651Y-16336D01*
X13599Y-16283D01*
X13237Y-16283D01*
X13237Y-16291D01*
X13140Y-16291D01*
X13140Y-16283D01*
X12778Y-16283D01*
X12726Y-16336D01*
X11920Y-16336D01*
X11843Y-16221D01*
X11724Y-16141D01*
X11843Y-16061D01*
X11939Y-15917D01*
X11973Y-15748D01*
X11939Y-15578D01*
X11843Y-15434D01*
X11724Y-15354D01*
X11843Y-15274D01*
X11939Y-15130D01*
X11973Y-14961D01*
X11939Y-14791D01*
X11843Y-14647D01*
X11723Y-14567D01*
X11843Y-14486D01*
X11920Y-14371D01*
X11925Y-14371D01*
X12006Y-14452D01*
X12006Y-14763D01*
X12021Y-14839D01*
X12064Y-14904D01*
X12388Y-15227D01*
X12337Y-15227D01*
X12218Y-15276D01*
X12127Y-15367D01*
X12078Y-15486D01*
X12078Y-15615D01*
X12127Y-15734D01*
X12218Y-15825D01*
X12336Y-15874D01*
X12465Y-15874D01*
X12518Y-15852D01*
X12833Y-15852D01*
X12838Y-15863D01*
X12860Y-15886D01*
X12823Y-15901D01*
X12754Y-15970D01*
X12717Y-16061D01*
X12717Y-16125D01*
X12778Y-16187D01*
X13140Y-16187D01*
X13140Y-16179D01*
X13237Y-16179D01*
X13237Y-16187D01*
X13599Y-16187D01*
X13660Y-16125D01*
X13660Y-16099D01*
X13703Y-16128D01*
X13703Y-16128D01*
X13779Y-16143D01*
X13960Y-16143D01*
G54D10*
G36*
X15280Y-16453D02*
X15272Y-16453D01*
X15272Y-16461D01*
X15205Y-16461D01*
X15205Y-16193D01*
X15205Y-16143D01*
X15205Y-16093D01*
X15205Y-16093D01*
X15205Y-15992D01*
X15175Y-15962D01*
X15175Y-15957D01*
X15175Y-15930D01*
X15148Y-15930D01*
X15114Y-15895D01*
X15007Y-15895D01*
X14958Y-15895D01*
X14909Y-15895D01*
X14803Y-15895D01*
X14768Y-15930D01*
X14741Y-15930D01*
X14741Y-15957D01*
X14741Y-15962D01*
X14711Y-15992D01*
X14711Y-16093D01*
X14711Y-16093D01*
X14711Y-16143D01*
X14711Y-16193D01*
X14711Y-16193D01*
X14711Y-16295D01*
X14741Y-16324D01*
X14741Y-16329D01*
X14741Y-16357D01*
X14768Y-16357D01*
X14803Y-16391D01*
X14909Y-16391D01*
X14958Y-16391D01*
X15007Y-16391D01*
X15114Y-16391D01*
X15148Y-16357D01*
X15175Y-16357D01*
X15175Y-16329D01*
X15175Y-16324D01*
X15205Y-16295D01*
X15205Y-16193D01*
X15205Y-16193D01*
X15205Y-16461D01*
X15175Y-16461D01*
X15175Y-16453D01*
X15143Y-16453D01*
X14773Y-16453D01*
X14741Y-16453D01*
X14741Y-16461D01*
X14644Y-16461D01*
X14644Y-16453D01*
X14636Y-16453D01*
X14636Y-16357D01*
X14644Y-16357D01*
X14644Y-16329D01*
X14644Y-15957D01*
X14644Y-15930D01*
X14636Y-15930D01*
X14636Y-15833D01*
X14644Y-15833D01*
X14644Y-15747D01*
X14665Y-15738D01*
X14693Y-15750D01*
X14711Y-15728D01*
X14711Y-15771D01*
X14741Y-15801D01*
X14741Y-15833D01*
X14773Y-15833D01*
X15143Y-15833D01*
X15175Y-15833D01*
X15175Y-15825D01*
X15272Y-15825D01*
X15272Y-15833D01*
X15280Y-15833D01*
X15280Y-15930D01*
X15272Y-15930D01*
X15272Y-15957D01*
X15272Y-16329D01*
X15272Y-16357D01*
X15280Y-16357D01*
X15280Y-16453D01*
X15280Y-16453D01*
G37*
G54D24*
X15280Y-16453D02*
X15272Y-16453D01*
X15272Y-16461D01*
X15205Y-16461D01*
X15205Y-16193D01*
X15205Y-16143D01*
X15205Y-16093D01*
X15205Y-16093D01*
X15205Y-15992D01*
X15175Y-15962D01*
X15175Y-15957D01*
X15175Y-15930D01*
X15148Y-15930D01*
X15114Y-15895D01*
X15007Y-15895D01*
X14958Y-15895D01*
X14909Y-15895D01*
X14803Y-15895D01*
X14768Y-15930D01*
X14741Y-15930D01*
X14741Y-15957D01*
X14741Y-15962D01*
X14711Y-15992D01*
X14711Y-16093D01*
X14711Y-16093D01*
X14711Y-16143D01*
X14711Y-16193D01*
X14711Y-16193D01*
X14711Y-16295D01*
X14741Y-16324D01*
X14741Y-16329D01*
X14741Y-16357D01*
X14768Y-16357D01*
X14803Y-16391D01*
X14909Y-16391D01*
X14958Y-16391D01*
X15007Y-16391D01*
X15114Y-16391D01*
X15148Y-16357D01*
X15175Y-16357D01*
X15175Y-16329D01*
X15175Y-16324D01*
X15205Y-16295D01*
X15205Y-16193D01*
X15205Y-16193D01*
X15205Y-16461D01*
X15175Y-16461D01*
X15175Y-16453D01*
X15143Y-16453D01*
X14773Y-16453D01*
X14741Y-16453D01*
X14741Y-16461D01*
X14644Y-16461D01*
X14644Y-16453D01*
X14636Y-16453D01*
X14636Y-16357D01*
X14644Y-16357D01*
X14644Y-16329D01*
X14644Y-15957D01*
X14644Y-15930D01*
X14636Y-15930D01*
X14636Y-15833D01*
X14644Y-15833D01*
X14644Y-15747D01*
X14665Y-15738D01*
X14693Y-15750D01*
X14711Y-15728D01*
X14711Y-15771D01*
X14741Y-15801D01*
X14741Y-15833D01*
X14773Y-15833D01*
X15143Y-15833D01*
X15175Y-15833D01*
X15175Y-15825D01*
X15272Y-15825D01*
X15272Y-15833D01*
X15280Y-15833D01*
X15280Y-15930D01*
X15272Y-15930D01*
X15272Y-15957D01*
X15272Y-16329D01*
X15272Y-16357D01*
X15280Y-16357D01*
X15280Y-16453D01*
G54D10*
G36*
X28801Y-28917D02*
X28593Y-29125D01*
X28593Y-22391D01*
X28593Y-21702D01*
X28593Y-18650D01*
X28593Y-17962D01*
X28555Y-17871D01*
X28486Y-17801D01*
X28395Y-17764D01*
X28297Y-17764D01*
X27866Y-17764D01*
X27804Y-17825D01*
X27804Y-18258D01*
X28531Y-18258D01*
X28593Y-18196D01*
X28593Y-17962D01*
X28593Y-18650D01*
X28593Y-18416D01*
X28531Y-18354D01*
X27804Y-18354D01*
X27804Y-18362D01*
X27707Y-18362D01*
X27707Y-18354D01*
X27707Y-18258D01*
X27707Y-17825D01*
X27645Y-17764D01*
X27448Y-17764D01*
X27448Y-11270D01*
X27448Y-10670D01*
X27425Y-10616D01*
X27384Y-10574D01*
X27329Y-10551D01*
X27270Y-10551D01*
X26670Y-10551D01*
X26616Y-10574D01*
X26574Y-10615D01*
X26551Y-10670D01*
X26551Y-10729D01*
X26551Y-11329D01*
X26574Y-11383D01*
X26615Y-11425D01*
X26670Y-11448D01*
X26729Y-11448D01*
X27329Y-11448D01*
X27383Y-11425D01*
X27425Y-11384D01*
X27448Y-11329D01*
X27448Y-11270D01*
X27448Y-17764D01*
X27440Y-17764D01*
X27440Y-15425D01*
X27440Y-15077D01*
X27402Y-14986D01*
X27333Y-14917D01*
X27242Y-14879D01*
X27144Y-14879D01*
X27078Y-14879D01*
X27016Y-14941D01*
X27016Y-15202D01*
X27378Y-15202D01*
X27440Y-15141D01*
X27440Y-15077D01*
X27440Y-15425D01*
X27440Y-15361D01*
X27378Y-15299D01*
X27016Y-15299D01*
X27016Y-15307D01*
X26920Y-15307D01*
X26920Y-15299D01*
X26912Y-15299D01*
X26912Y-15202D01*
X26920Y-15202D01*
X26920Y-14941D01*
X26858Y-14879D01*
X26792Y-14879D01*
X26694Y-14879D01*
X26603Y-14917D01*
X26534Y-14986D01*
X26517Y-15027D01*
X26490Y-15000D01*
X26482Y-14997D01*
X26482Y-14725D01*
X26493Y-14720D01*
X26535Y-14679D01*
X26557Y-14624D01*
X26557Y-14565D01*
X26557Y-14115D01*
X26535Y-14061D01*
X26493Y-14019D01*
X26448Y-14000D01*
X26448Y-10911D01*
X26380Y-10746D01*
X26254Y-10620D01*
X26089Y-10551D01*
X25911Y-10551D01*
X25746Y-10619D01*
X25620Y-10745D01*
X25551Y-10910D01*
X25551Y-11088D01*
X25619Y-11253D01*
X25745Y-11379D01*
X25910Y-11448D01*
X26088Y-11448D01*
X26253Y-11380D01*
X26379Y-11254D01*
X26448Y-11089D01*
X26448Y-10911D01*
X26448Y-14000D01*
X26438Y-13996D01*
X26379Y-13996D01*
X26129Y-13996D01*
X26075Y-14019D01*
X26033Y-14060D01*
X26010Y-14115D01*
X26010Y-14174D01*
X26010Y-14624D01*
X26033Y-14679D01*
X26075Y-14720D01*
X26085Y-14725D01*
X26085Y-14977D01*
X25957Y-14977D01*
X25957Y-14565D01*
X25957Y-14115D01*
X25935Y-14061D01*
X25893Y-14019D01*
X25838Y-13996D01*
X25779Y-13996D01*
X25529Y-13996D01*
X25475Y-14019D01*
X25448Y-14045D01*
X25448Y-10911D01*
X25380Y-10746D01*
X25254Y-10620D01*
X25089Y-10551D01*
X24911Y-10551D01*
X24746Y-10619D01*
X24620Y-10745D01*
X24551Y-10910D01*
X24551Y-11088D01*
X24619Y-11253D01*
X24745Y-11379D01*
X24910Y-11448D01*
X25088Y-11448D01*
X25253Y-11380D01*
X25379Y-11254D01*
X25448Y-11089D01*
X25448Y-10911D01*
X25448Y-14045D01*
X25433Y-14060D01*
X25410Y-14115D01*
X25410Y-14171D01*
X25179Y-14171D01*
X25179Y-14115D01*
X25157Y-14061D01*
X25115Y-14019D01*
X25104Y-14014D01*
X25104Y-13937D01*
X25115Y-13933D01*
X25157Y-13891D01*
X25179Y-13837D01*
X25179Y-13778D01*
X25179Y-13328D01*
X25157Y-13273D01*
X25115Y-13231D01*
X25060Y-13209D01*
X25001Y-13209D01*
X24751Y-13209D01*
X24697Y-13231D01*
X24655Y-13273D01*
X24632Y-13328D01*
X24632Y-13387D01*
X24632Y-13837D01*
X24655Y-13891D01*
X24697Y-13933D01*
X24707Y-13937D01*
X24707Y-14014D01*
X24697Y-14019D01*
X24655Y-14060D01*
X24632Y-14115D01*
X24632Y-14174D01*
X24632Y-14624D01*
X24655Y-14679D01*
X24697Y-14720D01*
X24751Y-14743D01*
X24810Y-14743D01*
X25060Y-14743D01*
X25115Y-14720D01*
X25157Y-14679D01*
X25179Y-14624D01*
X25179Y-14568D01*
X25410Y-14568D01*
X25410Y-14624D01*
X25433Y-14679D01*
X25475Y-14720D01*
X25529Y-14743D01*
X25588Y-14743D01*
X25838Y-14743D01*
X25893Y-14720D01*
X25935Y-14679D01*
X25957Y-14624D01*
X25957Y-14565D01*
X25957Y-14977D01*
X25926Y-14977D01*
X25872Y-15000D01*
X25830Y-15041D01*
X25807Y-15096D01*
X25807Y-15099D01*
X25760Y-15067D01*
X25754Y-15066D01*
X25744Y-15042D01*
X25702Y-15000D01*
X25648Y-14977D01*
X25589Y-14977D01*
X25139Y-14977D01*
X25084Y-15000D01*
X25042Y-15041D01*
X25020Y-15096D01*
X25020Y-15155D01*
X25020Y-15405D01*
X25042Y-15460D01*
X25084Y-15501D01*
X25139Y-15524D01*
X25198Y-15524D01*
X25588Y-15524D01*
X25588Y-15577D01*
X25139Y-15577D01*
X25084Y-15600D01*
X25042Y-15641D01*
X25020Y-15696D01*
X25020Y-15755D01*
X25020Y-16005D01*
X25042Y-16060D01*
X25084Y-16101D01*
X25139Y-16124D01*
X25195Y-16124D01*
X25195Y-16158D01*
X25139Y-16158D01*
X25084Y-16181D01*
X25042Y-16223D01*
X25020Y-16277D01*
X25020Y-16336D01*
X25020Y-16586D01*
X25042Y-16641D01*
X25078Y-16677D01*
X25028Y-16698D01*
X24979Y-16747D01*
X24979Y-16527D01*
X24979Y-16277D01*
X24957Y-16223D01*
X24915Y-16181D01*
X24860Y-16158D01*
X24804Y-16158D01*
X24804Y-16124D01*
X24860Y-16124D01*
X24915Y-16102D01*
X24957Y-16060D01*
X24979Y-16005D01*
X24979Y-15946D01*
X24979Y-15696D01*
X24979Y-15346D01*
X24979Y-15096D01*
X24957Y-15042D01*
X24915Y-15000D01*
X24860Y-14977D01*
X24801Y-14977D01*
X24579Y-14977D01*
X24579Y-14565D01*
X24579Y-14115D01*
X24579Y-13778D01*
X24579Y-13328D01*
X24557Y-13273D01*
X24515Y-13231D01*
X24460Y-13209D01*
X24401Y-13209D01*
X24213Y-13209D01*
X24198Y-13194D01*
X24198Y-11403D01*
X24253Y-11380D01*
X24379Y-11254D01*
X24448Y-11089D01*
X24448Y-10911D01*
X24380Y-10746D01*
X24254Y-10620D01*
X24089Y-10551D01*
X23911Y-10551D01*
X23746Y-10619D01*
X23620Y-10745D01*
X23551Y-10910D01*
X23551Y-11088D01*
X23619Y-11253D01*
X23745Y-11379D01*
X23801Y-11403D01*
X23801Y-13276D01*
X23816Y-13352D01*
X23859Y-13416D01*
X24032Y-13589D01*
X24032Y-13837D01*
X24055Y-13891D01*
X24097Y-13933D01*
X24151Y-13956D01*
X24210Y-13956D01*
X24460Y-13956D01*
X24515Y-13933D01*
X24557Y-13891D01*
X24579Y-13837D01*
X24579Y-13778D01*
X24579Y-14115D01*
X24557Y-14061D01*
X24515Y-14019D01*
X24460Y-13996D01*
X24401Y-13996D01*
X24151Y-13996D01*
X24097Y-14019D01*
X24055Y-14060D01*
X24032Y-14115D01*
X24032Y-14171D01*
X22326Y-14171D01*
X22245Y-14091D01*
X22245Y-14041D01*
X22257Y-14053D01*
X22376Y-14102D01*
X22504Y-14103D01*
X22623Y-14053D01*
X22714Y-13962D01*
X22764Y-13844D01*
X22764Y-13839D01*
X23038Y-13565D01*
X23285Y-13565D01*
X23340Y-13543D01*
X23382Y-13501D01*
X23404Y-13446D01*
X23404Y-13387D01*
X23404Y-13137D01*
X23382Y-13083D01*
X23340Y-13041D01*
X23286Y-13018D01*
X23227Y-13018D01*
X22777Y-13018D01*
X22722Y-13041D01*
X22680Y-13082D01*
X22658Y-13137D01*
X22658Y-13196D01*
X22658Y-13384D01*
X22562Y-13480D01*
X22505Y-13456D01*
X22376Y-13456D01*
X22257Y-13505D01*
X22245Y-13517D01*
X22245Y-13365D01*
X22251Y-13365D01*
X22501Y-13365D01*
X22556Y-13343D01*
X22597Y-13301D01*
X22620Y-13246D01*
X22620Y-13187D01*
X22620Y-12999D01*
X22699Y-12920D01*
X22722Y-12942D01*
X22776Y-12965D01*
X22835Y-12965D01*
X23285Y-12965D01*
X23340Y-12943D01*
X23382Y-12901D01*
X23404Y-12846D01*
X23404Y-12787D01*
X23404Y-12537D01*
X23382Y-12483D01*
X23340Y-12441D01*
X23286Y-12418D01*
X23227Y-12418D01*
X23198Y-12418D01*
X23198Y-11403D01*
X23253Y-11380D01*
X23379Y-11254D01*
X23448Y-11089D01*
X23448Y-10911D01*
X23380Y-10746D01*
X23254Y-10620D01*
X23089Y-10551D01*
X22911Y-10551D01*
X22746Y-10619D01*
X22620Y-10745D01*
X22551Y-10910D01*
X22551Y-11088D01*
X22619Y-11253D01*
X22745Y-11379D01*
X22801Y-11403D01*
X22801Y-12418D01*
X22777Y-12418D01*
X22722Y-12441D01*
X22701Y-12462D01*
X22678Y-12462D01*
X22678Y-12462D01*
X22663Y-12465D01*
X22602Y-12477D01*
X22538Y-12520D01*
X22538Y-12520D01*
X22440Y-12618D01*
X22245Y-12618D01*
X22245Y-11383D01*
X22253Y-11380D01*
X22379Y-11254D01*
X22448Y-11089D01*
X22448Y-10911D01*
X22380Y-10746D01*
X22254Y-10620D01*
X22089Y-10551D01*
X21911Y-10551D01*
X21746Y-10619D01*
X21620Y-10745D01*
X21551Y-10910D01*
X21551Y-11088D01*
X21619Y-11253D01*
X21745Y-11379D01*
X21848Y-11422D01*
X21848Y-12528D01*
X21795Y-12581D01*
X21795Y-12943D01*
X21803Y-12943D01*
X21803Y-13040D01*
X21795Y-13040D01*
X21795Y-13402D01*
X21848Y-13455D01*
X21848Y-14173D01*
X21863Y-14249D01*
X21906Y-14313D01*
X22103Y-14510D01*
X22103Y-14510D01*
X22168Y-14553D01*
X22168Y-14553D01*
X22228Y-14565D01*
X22244Y-14568D01*
X22244Y-14568D01*
X22244Y-14568D01*
X24032Y-14568D01*
X24032Y-14624D01*
X24055Y-14679D01*
X24097Y-14720D01*
X24151Y-14743D01*
X24210Y-14743D01*
X24460Y-14743D01*
X24515Y-14720D01*
X24557Y-14679D01*
X24579Y-14624D01*
X24579Y-14565D01*
X24579Y-14977D01*
X24351Y-14977D01*
X24297Y-15000D01*
X24255Y-15041D01*
X24251Y-15052D01*
X24174Y-15052D01*
X24169Y-15042D01*
X24128Y-15000D01*
X24073Y-14977D01*
X24014Y-14977D01*
X23564Y-14977D01*
X23509Y-15000D01*
X23468Y-15041D01*
X23445Y-15096D01*
X23445Y-15155D01*
X23445Y-15405D01*
X23467Y-15460D01*
X23509Y-15501D01*
X23564Y-15524D01*
X23623Y-15524D01*
X24073Y-15524D01*
X24127Y-15502D01*
X24169Y-15460D01*
X24174Y-15449D01*
X24251Y-15449D01*
X24255Y-15460D01*
X24297Y-15501D01*
X24351Y-15524D01*
X24410Y-15524D01*
X24860Y-15524D01*
X24915Y-15502D01*
X24957Y-15460D01*
X24979Y-15405D01*
X24979Y-15346D01*
X24979Y-15696D01*
X24957Y-15642D01*
X24915Y-15600D01*
X24860Y-15577D01*
X24801Y-15577D01*
X24351Y-15577D01*
X24297Y-15600D01*
X24255Y-15641D01*
X24232Y-15696D01*
X24232Y-15755D01*
X24232Y-16005D01*
X24255Y-16060D01*
X24297Y-16101D01*
X24351Y-16124D01*
X24407Y-16124D01*
X24407Y-16158D01*
X24351Y-16158D01*
X24297Y-16181D01*
X24255Y-16223D01*
X24232Y-16277D01*
X24232Y-16336D01*
X24232Y-16586D01*
X24255Y-16641D01*
X24297Y-16683D01*
X24351Y-16705D01*
X24410Y-16705D01*
X24860Y-16705D01*
X24915Y-16683D01*
X24957Y-16641D01*
X24979Y-16586D01*
X24979Y-16527D01*
X24979Y-16747D01*
X24959Y-16767D01*
X24942Y-16808D01*
X24915Y-16781D01*
X24860Y-16758D01*
X24801Y-16758D01*
X24351Y-16758D01*
X24297Y-16781D01*
X24255Y-16823D01*
X24246Y-16845D01*
X24230Y-16848D01*
X24192Y-16874D01*
X24192Y-15946D01*
X24192Y-15696D01*
X24169Y-15642D01*
X24128Y-15600D01*
X24073Y-15577D01*
X24014Y-15577D01*
X23564Y-15577D01*
X23509Y-15600D01*
X23468Y-15641D01*
X23445Y-15696D01*
X23445Y-15755D01*
X23445Y-16005D01*
X23467Y-16060D01*
X23509Y-16101D01*
X23564Y-16124D01*
X23623Y-16124D01*
X23625Y-16124D01*
X23625Y-16278D01*
X23614Y-16282D01*
X23572Y-16324D01*
X23550Y-16379D01*
X23550Y-16438D01*
X23550Y-16888D01*
X23572Y-16942D01*
X23614Y-16984D01*
X23668Y-17007D01*
X23728Y-17007D01*
X23978Y-17007D01*
X24032Y-16984D01*
X24074Y-16943D01*
X24097Y-16888D01*
X24097Y-16829D01*
X24097Y-16379D01*
X24074Y-16324D01*
X24032Y-16283D01*
X24022Y-16278D01*
X24022Y-16124D01*
X24073Y-16124D01*
X24127Y-16102D01*
X24169Y-16060D01*
X24192Y-16005D01*
X24192Y-15946D01*
X24192Y-16874D01*
X24165Y-16891D01*
X24067Y-16990D01*
X24024Y-17054D01*
X24009Y-17130D01*
X24009Y-17558D01*
X23998Y-17562D01*
X23957Y-17604D01*
X23934Y-17658D01*
X23934Y-17717D01*
X23934Y-18167D01*
X23956Y-18222D01*
X23998Y-18264D01*
X24053Y-18286D01*
X24112Y-18286D01*
X24362Y-18286D01*
X24416Y-18264D01*
X24458Y-18222D01*
X24481Y-18168D01*
X24481Y-18108D01*
X24481Y-17658D01*
X24458Y-17604D01*
X24417Y-17562D01*
X24406Y-17558D01*
X24406Y-17305D01*
X24410Y-17305D01*
X24860Y-17305D01*
X24915Y-17283D01*
X24942Y-17256D01*
X24959Y-17296D01*
X25028Y-17366D01*
X25119Y-17404D01*
X25217Y-17404D01*
X25283Y-17404D01*
X25345Y-17342D01*
X25345Y-17080D01*
X25337Y-17080D01*
X25337Y-16983D01*
X25345Y-16983D01*
X25345Y-16975D01*
X25442Y-16975D01*
X25442Y-16983D01*
X25450Y-16983D01*
X25450Y-17080D01*
X25442Y-17080D01*
X25442Y-17342D01*
X25503Y-17404D01*
X25569Y-17404D01*
X25668Y-17404D01*
X25758Y-17366D01*
X25828Y-17296D01*
X25844Y-17256D01*
X25871Y-17283D01*
X25926Y-17305D01*
X25982Y-17305D01*
X25982Y-17634D01*
X25902Y-17714D01*
X25081Y-17714D01*
X25081Y-17658D01*
X25058Y-17604D01*
X25017Y-17562D01*
X24962Y-17539D01*
X24903Y-17539D01*
X24653Y-17539D01*
X24598Y-17562D01*
X24557Y-17604D01*
X24534Y-17658D01*
X24534Y-17717D01*
X24534Y-18167D01*
X24556Y-18222D01*
X24598Y-18264D01*
X24653Y-18286D01*
X24712Y-18286D01*
X24962Y-18286D01*
X25016Y-18264D01*
X25058Y-18222D01*
X25081Y-18168D01*
X25081Y-18111D01*
X25984Y-18111D01*
X26060Y-18096D01*
X26060Y-18096D01*
X26124Y-18053D01*
X26321Y-17856D01*
X26321Y-17856D01*
X26321Y-17856D01*
X26364Y-17792D01*
X26364Y-17792D01*
X26376Y-17731D01*
X26379Y-17716D01*
X26379Y-17716D01*
X26379Y-17716D01*
X26379Y-17305D01*
X26435Y-17305D01*
X26490Y-17283D01*
X26531Y-17241D01*
X26554Y-17186D01*
X26554Y-17127D01*
X26554Y-16877D01*
X26532Y-16823D01*
X26490Y-16781D01*
X26435Y-16758D01*
X26376Y-16758D01*
X25926Y-16758D01*
X25872Y-16781D01*
X25844Y-16808D01*
X25828Y-16767D01*
X25758Y-16698D01*
X25708Y-16677D01*
X25744Y-16641D01*
X25748Y-16630D01*
X25825Y-16630D01*
X25830Y-16641D01*
X25871Y-16683D01*
X25926Y-16705D01*
X25985Y-16705D01*
X26435Y-16705D01*
X26490Y-16683D01*
X26531Y-16641D01*
X26554Y-16586D01*
X26554Y-16527D01*
X26554Y-16277D01*
X26532Y-16223D01*
X26490Y-16181D01*
X26435Y-16158D01*
X26376Y-16158D01*
X25926Y-16158D01*
X25872Y-16181D01*
X25830Y-16223D01*
X25825Y-16233D01*
X25748Y-16233D01*
X25744Y-16223D01*
X25702Y-16181D01*
X25648Y-16158D01*
X25592Y-16158D01*
X25592Y-16124D01*
X25648Y-16124D01*
X25702Y-16102D01*
X25744Y-16060D01*
X25767Y-16005D01*
X25767Y-16002D01*
X25814Y-16034D01*
X25814Y-16034D01*
X25820Y-16035D01*
X25830Y-16060D01*
X25871Y-16101D01*
X25926Y-16124D01*
X25985Y-16124D01*
X26435Y-16124D01*
X26490Y-16102D01*
X26531Y-16060D01*
X26536Y-16049D01*
X26613Y-16049D01*
X26617Y-16060D01*
X26659Y-16101D01*
X26713Y-16124D01*
X26772Y-16124D01*
X27222Y-16124D01*
X27277Y-16102D01*
X27319Y-16060D01*
X27341Y-16005D01*
X27341Y-15946D01*
X27341Y-15696D01*
X27319Y-15642D01*
X27283Y-15606D01*
X27333Y-15585D01*
X27402Y-15515D01*
X27440Y-15425D01*
X27440Y-17764D01*
X27214Y-17764D01*
X27116Y-17764D01*
X27025Y-17801D01*
X26956Y-17871D01*
X26918Y-17962D01*
X26918Y-18196D01*
X26980Y-18258D01*
X27707Y-18258D01*
X27707Y-18354D01*
X26980Y-18354D01*
X26918Y-18416D01*
X26918Y-18650D01*
X26956Y-18741D01*
X27025Y-18811D01*
X27093Y-18839D01*
X27036Y-18924D01*
X27002Y-19094D01*
X27036Y-19264D01*
X27132Y-19408D01*
X27251Y-19487D01*
X27132Y-19567D01*
X27036Y-19711D01*
X27002Y-19881D01*
X27036Y-20051D01*
X27132Y-20195D01*
X27276Y-20291D01*
X27446Y-20325D01*
X27504Y-20325D01*
X27358Y-20470D01*
X23497Y-20470D01*
X23497Y-16829D01*
X23497Y-16379D01*
X23474Y-16324D01*
X23432Y-16283D01*
X23422Y-16278D01*
X23422Y-15448D01*
X23422Y-15448D01*
X23422Y-15448D01*
X23419Y-15432D01*
X23406Y-15372D01*
X23406Y-15372D01*
X23363Y-15307D01*
X23363Y-15307D01*
X23208Y-15151D01*
X23208Y-15096D01*
X23185Y-15042D01*
X23143Y-15000D01*
X23089Y-14977D01*
X23030Y-14977D01*
X22580Y-14977D01*
X22525Y-15000D01*
X22483Y-15041D01*
X22479Y-15052D01*
X22402Y-15052D01*
X22398Y-15042D01*
X22356Y-15000D01*
X22301Y-14977D01*
X22242Y-14977D01*
X22037Y-14977D01*
X22023Y-14967D01*
X21947Y-14952D01*
X21698Y-14952D01*
X21698Y-13402D01*
X21698Y-13040D01*
X21437Y-13040D01*
X21404Y-13073D01*
X21372Y-13041D01*
X21317Y-13018D01*
X21258Y-13018D01*
X20808Y-13018D01*
X20754Y-13041D01*
X20712Y-13082D01*
X20689Y-13137D01*
X20689Y-13196D01*
X20689Y-13446D01*
X20705Y-13485D01*
X20635Y-13456D01*
X20528Y-13456D01*
X20353Y-13281D01*
X20353Y-13190D01*
X20472Y-13190D01*
X20548Y-13175D01*
X20548Y-13175D01*
X20612Y-13132D01*
X20788Y-12957D01*
X20808Y-12965D01*
X20867Y-12965D01*
X21317Y-12965D01*
X21371Y-12943D01*
X21404Y-12910D01*
X21437Y-12943D01*
X21698Y-12943D01*
X21698Y-12581D01*
X21637Y-12520D01*
X21573Y-12520D01*
X21482Y-12557D01*
X21436Y-12603D01*
X21436Y-12537D01*
X21413Y-12483D01*
X21372Y-12441D01*
X21317Y-12418D01*
X21261Y-12418D01*
X21261Y-11372D01*
X21379Y-11254D01*
X21448Y-11089D01*
X21448Y-10911D01*
X21380Y-10746D01*
X21254Y-10620D01*
X21089Y-10551D01*
X20911Y-10551D01*
X20746Y-10619D01*
X20620Y-10745D01*
X20551Y-10910D01*
X20551Y-11088D01*
X20619Y-11253D01*
X20745Y-11379D01*
X20864Y-11429D01*
X20864Y-12418D01*
X20808Y-12418D01*
X20754Y-12441D01*
X20712Y-12482D01*
X20701Y-12507D01*
X20696Y-12508D01*
X20632Y-12551D01*
X20632Y-12551D01*
X20390Y-12793D01*
X20353Y-12793D01*
X20353Y-12787D01*
X20353Y-12537D01*
X20331Y-12483D01*
X20289Y-12441D01*
X20234Y-12418D01*
X20178Y-12418D01*
X20178Y-12401D01*
X20178Y-11411D01*
X20253Y-11380D01*
X20379Y-11254D01*
X20448Y-11089D01*
X20448Y-10911D01*
X20380Y-10746D01*
X20254Y-10620D01*
X20089Y-10551D01*
X19911Y-10551D01*
X19746Y-10619D01*
X19620Y-10745D01*
X19551Y-10910D01*
X19551Y-11088D01*
X19619Y-11253D01*
X19745Y-11379D01*
X19781Y-11394D01*
X19781Y-12203D01*
X19274Y-12203D01*
X19274Y-12147D01*
X19251Y-12092D01*
X19209Y-12050D01*
X19155Y-12028D01*
X19096Y-12028D01*
X18848Y-12028D01*
X18848Y-11270D01*
X18848Y-10670D01*
X18825Y-10616D01*
X18784Y-10574D01*
X18729Y-10551D01*
X18670Y-10551D01*
X18070Y-10551D01*
X18016Y-10574D01*
X17974Y-10615D01*
X17951Y-10670D01*
X17951Y-10729D01*
X17951Y-11329D01*
X17974Y-11383D01*
X18015Y-11425D01*
X18070Y-11448D01*
X18129Y-11448D01*
X18201Y-11448D01*
X18201Y-11537D01*
X17929Y-11809D01*
X17848Y-11809D01*
X17848Y-10911D01*
X17780Y-10746D01*
X17654Y-10620D01*
X17489Y-10551D01*
X17311Y-10551D01*
X17146Y-10619D01*
X17020Y-10745D01*
X16951Y-10910D01*
X16951Y-11088D01*
X17019Y-11253D01*
X17145Y-11379D01*
X17310Y-11448D01*
X17488Y-11448D01*
X17653Y-11380D01*
X17779Y-11254D01*
X17848Y-11089D01*
X17848Y-10911D01*
X17848Y-11809D01*
X17404Y-11809D01*
X17404Y-11753D01*
X17381Y-11698D01*
X17339Y-11657D01*
X17285Y-11634D01*
X17226Y-11634D01*
X16976Y-11634D01*
X16921Y-11656D01*
X16879Y-11698D01*
X16857Y-11753D01*
X16857Y-11812D01*
X16857Y-12262D01*
X16879Y-12316D01*
X16921Y-12358D01*
X16932Y-12363D01*
X16932Y-12440D01*
X16921Y-12444D01*
X16885Y-12480D01*
X16864Y-12430D01*
X16848Y-12413D01*
X16848Y-10911D01*
X16780Y-10746D01*
X16654Y-10620D01*
X16489Y-10551D01*
X16311Y-10551D01*
X16146Y-10619D01*
X16020Y-10745D01*
X15951Y-10910D01*
X15951Y-11088D01*
X16019Y-11253D01*
X16145Y-11379D01*
X16310Y-11448D01*
X16488Y-11448D01*
X16653Y-11380D01*
X16779Y-11254D01*
X16848Y-11089D01*
X16848Y-10911D01*
X16848Y-12413D01*
X16795Y-12360D01*
X16754Y-12343D01*
X16781Y-12317D01*
X16804Y-12262D01*
X16804Y-12203D01*
X16804Y-11753D01*
X16781Y-11698D01*
X16739Y-11657D01*
X16685Y-11634D01*
X16626Y-11634D01*
X16376Y-11634D01*
X16321Y-11656D01*
X16279Y-11698D01*
X16257Y-11753D01*
X16257Y-11809D01*
X15848Y-11809D01*
X15848Y-10911D01*
X15780Y-10746D01*
X15654Y-10620D01*
X15489Y-10551D01*
X15311Y-10551D01*
X15146Y-10619D01*
X15020Y-10745D01*
X14951Y-10910D01*
X14951Y-11088D01*
X15019Y-11253D01*
X15145Y-11379D01*
X15310Y-11448D01*
X15488Y-11448D01*
X15653Y-11380D01*
X15779Y-11254D01*
X15848Y-11089D01*
X15848Y-10911D01*
X15848Y-11809D01*
X15436Y-11809D01*
X15436Y-11809D01*
X15421Y-11812D01*
X15380Y-11820D01*
X15353Y-11781D01*
X15209Y-11684D01*
X15039Y-11651D01*
X14870Y-11684D01*
X14848Y-11699D01*
X14848Y-10911D01*
X14780Y-10746D01*
X14654Y-10620D01*
X14489Y-10551D01*
X14311Y-10551D01*
X14146Y-10619D01*
X14020Y-10745D01*
X13951Y-10910D01*
X13951Y-11088D01*
X14019Y-11253D01*
X14145Y-11379D01*
X14310Y-11448D01*
X14488Y-11448D01*
X14653Y-11380D01*
X14779Y-11254D01*
X14848Y-11089D01*
X14848Y-10911D01*
X14848Y-11699D01*
X14784Y-11741D01*
X14756Y-11674D01*
X14687Y-11604D01*
X14596Y-11567D01*
X14362Y-11567D01*
X14300Y-11628D01*
X14300Y-12356D01*
X14308Y-12356D01*
X14308Y-12453D01*
X14300Y-12453D01*
X14300Y-13180D01*
X14362Y-13241D01*
X14596Y-13241D01*
X14687Y-13204D01*
X14756Y-13135D01*
X14784Y-13067D01*
X14870Y-13124D01*
X15039Y-13157D01*
X15209Y-13124D01*
X15353Y-13027D01*
X15450Y-12883D01*
X15483Y-12714D01*
X15483Y-12241D01*
X15518Y-12206D01*
X16257Y-12206D01*
X16257Y-12262D01*
X16279Y-12316D01*
X16306Y-12344D01*
X16266Y-12360D01*
X16196Y-12430D01*
X16158Y-12520D01*
X16158Y-12619D01*
X16158Y-12685D01*
X16220Y-12746D01*
X16482Y-12746D01*
X16482Y-12738D01*
X16579Y-12738D01*
X16579Y-12746D01*
X16587Y-12746D01*
X16587Y-12843D01*
X16579Y-12843D01*
X16579Y-13205D01*
X16640Y-13267D01*
X16704Y-13267D01*
X16795Y-13229D01*
X16864Y-13160D01*
X16885Y-13110D01*
X16921Y-13146D01*
X16976Y-13168D01*
X17035Y-13168D01*
X17285Y-13168D01*
X17339Y-13146D01*
X17381Y-13104D01*
X17404Y-13049D01*
X17404Y-12990D01*
X17404Y-12540D01*
X17381Y-12486D01*
X17339Y-12444D01*
X17329Y-12440D01*
X17329Y-12363D01*
X17339Y-12358D01*
X17381Y-12317D01*
X17404Y-12262D01*
X17404Y-12206D01*
X18011Y-12206D01*
X18028Y-12202D01*
X18028Y-12225D01*
X18028Y-12291D01*
X18090Y-12353D01*
X18352Y-12353D01*
X18352Y-11991D01*
X18330Y-11969D01*
X18540Y-11759D01*
X18540Y-11759D01*
X18540Y-11759D01*
X18583Y-11695D01*
X18583Y-11695D01*
X18598Y-11619D01*
X18598Y-11448D01*
X18729Y-11448D01*
X18783Y-11425D01*
X18825Y-11384D01*
X18848Y-11329D01*
X18848Y-11270D01*
X18848Y-12028D01*
X18846Y-12028D01*
X18791Y-12050D01*
X18755Y-12086D01*
X18734Y-12036D01*
X18665Y-11967D01*
X18574Y-11929D01*
X18510Y-11929D01*
X18449Y-11991D01*
X18449Y-12353D01*
X18457Y-12353D01*
X18457Y-12450D01*
X18449Y-12450D01*
X18449Y-12680D01*
X18449Y-12811D01*
X18449Y-13042D01*
X18457Y-13042D01*
X18457Y-13138D01*
X18449Y-13138D01*
X18449Y-13500D01*
X18510Y-13562D01*
X18574Y-13562D01*
X18665Y-13524D01*
X18734Y-13455D01*
X18755Y-13405D01*
X18791Y-13441D01*
X18846Y-13463D01*
X18905Y-13464D01*
X19155Y-13464D01*
X19209Y-13441D01*
X19251Y-13399D01*
X19274Y-13345D01*
X19274Y-13286D01*
X19274Y-13190D01*
X19606Y-13190D01*
X19606Y-13196D01*
X19606Y-13446D01*
X19629Y-13501D01*
X19671Y-13542D01*
X19725Y-13565D01*
X19784Y-13565D01*
X20076Y-13565D01*
X20247Y-13736D01*
X20247Y-13843D01*
X20296Y-13962D01*
X20387Y-14053D01*
X20506Y-14102D01*
X20634Y-14103D01*
X20753Y-14053D01*
X20844Y-13962D01*
X20894Y-13844D01*
X20894Y-13715D01*
X20845Y-13596D01*
X20814Y-13565D01*
X20867Y-13565D01*
X20883Y-13565D01*
X20922Y-13624D01*
X21034Y-13736D01*
X21034Y-13843D01*
X21083Y-13962D01*
X21174Y-14053D01*
X21293Y-14102D01*
X21422Y-14103D01*
X21541Y-14053D01*
X21632Y-13962D01*
X21681Y-13844D01*
X21681Y-13715D01*
X21632Y-13596D01*
X21541Y-13505D01*
X21431Y-13459D01*
X21436Y-13446D01*
X21436Y-13387D01*
X21436Y-13380D01*
X21482Y-13426D01*
X21573Y-13464D01*
X21637Y-13463D01*
X21698Y-13402D01*
X21698Y-14952D01*
X21544Y-14952D01*
X21544Y-14941D01*
X21522Y-14887D01*
X21480Y-14845D01*
X21425Y-14822D01*
X21366Y-14822D01*
X21006Y-14822D01*
X20952Y-14845D01*
X20923Y-14874D01*
X20905Y-14831D01*
X20835Y-14761D01*
X20745Y-14724D01*
X20626Y-14724D01*
X20564Y-14786D01*
X20564Y-15102D01*
X20572Y-15102D01*
X20572Y-15199D01*
X20564Y-15199D01*
X20564Y-15516D01*
X20626Y-15578D01*
X20745Y-15578D01*
X20835Y-15540D01*
X20905Y-15471D01*
X20923Y-15428D01*
X20951Y-15456D01*
X21006Y-15479D01*
X21065Y-15479D01*
X21425Y-15479D01*
X21480Y-15457D01*
X21521Y-15415D01*
X21544Y-15360D01*
X21544Y-15349D01*
X21673Y-15349D01*
X21673Y-15405D01*
X21696Y-15460D01*
X21738Y-15501D01*
X21792Y-15524D01*
X21851Y-15524D01*
X22301Y-15524D01*
X22356Y-15502D01*
X22397Y-15460D01*
X22402Y-15449D01*
X22479Y-15449D01*
X22483Y-15460D01*
X22525Y-15501D01*
X22579Y-15524D01*
X22639Y-15524D01*
X23019Y-15524D01*
X23025Y-15530D01*
X23025Y-15577D01*
X22580Y-15577D01*
X22525Y-15600D01*
X22483Y-15641D01*
X22479Y-15652D01*
X22402Y-15652D01*
X22398Y-15642D01*
X22356Y-15600D01*
X22301Y-15577D01*
X22242Y-15577D01*
X21792Y-15577D01*
X21738Y-15600D01*
X21696Y-15641D01*
X21673Y-15696D01*
X21673Y-15752D01*
X21194Y-15752D01*
X21194Y-15741D01*
X21172Y-15687D01*
X21130Y-15645D01*
X21075Y-15622D01*
X21016Y-15622D01*
X20656Y-15622D01*
X20602Y-15645D01*
X20560Y-15686D01*
X20537Y-15741D01*
X20537Y-15800D01*
X20537Y-16160D01*
X20560Y-16215D01*
X20601Y-16256D01*
X20656Y-16279D01*
X20715Y-16279D01*
X20821Y-16279D01*
X20967Y-16425D01*
X20967Y-16573D01*
X20957Y-16578D01*
X20915Y-16619D01*
X20892Y-16674D01*
X20892Y-16733D01*
X20892Y-17183D01*
X20915Y-17238D01*
X20956Y-17279D01*
X20967Y-17284D01*
X20967Y-17361D01*
X20957Y-17365D01*
X20915Y-17407D01*
X20892Y-17461D01*
X20892Y-17520D01*
X20892Y-17970D01*
X20915Y-18025D01*
X20956Y-18067D01*
X21011Y-18089D01*
X21070Y-18089D01*
X21320Y-18089D01*
X21375Y-18067D01*
X21416Y-18025D01*
X21439Y-17971D01*
X21439Y-17912D01*
X21439Y-17462D01*
X21417Y-17407D01*
X21375Y-17365D01*
X21364Y-17361D01*
X21364Y-17284D01*
X21375Y-17280D01*
X21416Y-17238D01*
X21439Y-17183D01*
X21439Y-17124D01*
X21439Y-16674D01*
X21417Y-16620D01*
X21375Y-16578D01*
X21364Y-16573D01*
X21364Y-16343D01*
X21364Y-16343D01*
X21364Y-16343D01*
X21361Y-16328D01*
X21349Y-16267D01*
X21349Y-16267D01*
X21306Y-16202D01*
X21306Y-16202D01*
X21253Y-16149D01*
X21947Y-16149D01*
X22023Y-16134D01*
X22023Y-16134D01*
X22037Y-16124D01*
X22037Y-16124D01*
X22301Y-16124D01*
X22356Y-16102D01*
X22397Y-16060D01*
X22402Y-16049D01*
X22479Y-16049D01*
X22483Y-16060D01*
X22525Y-16101D01*
X22579Y-16124D01*
X22639Y-16124D01*
X23025Y-16124D01*
X23025Y-16278D01*
X23014Y-16282D01*
X22972Y-16324D01*
X22950Y-16379D01*
X22950Y-16438D01*
X22950Y-16888D01*
X22972Y-16942D01*
X23014Y-16984D01*
X23068Y-17007D01*
X23128Y-17007D01*
X23378Y-17007D01*
X23432Y-16984D01*
X23474Y-16943D01*
X23497Y-16888D01*
X23497Y-16829D01*
X23497Y-20470D01*
X22384Y-20470D01*
X22309Y-20395D01*
X22190Y-20345D01*
X22061Y-20345D01*
X21943Y-20394D01*
X21851Y-20485D01*
X21802Y-20604D01*
X21802Y-20733D01*
X21851Y-20852D01*
X21942Y-20943D01*
X22061Y-20992D01*
X22190Y-20992D01*
X22308Y-20943D01*
X22385Y-20867D01*
X27440Y-20867D01*
X27516Y-20852D01*
X27516Y-20852D01*
X27581Y-20809D01*
X27896Y-20494D01*
X27939Y-20430D01*
X27939Y-20430D01*
X27954Y-20354D01*
X27954Y-20325D01*
X28065Y-20325D01*
X28235Y-20291D01*
X28379Y-20195D01*
X28475Y-20051D01*
X28509Y-19881D01*
X28475Y-19711D01*
X28379Y-19567D01*
X28260Y-19487D01*
X28379Y-19408D01*
X28475Y-19264D01*
X28509Y-19094D01*
X28475Y-18924D01*
X28418Y-18839D01*
X28486Y-18811D01*
X28555Y-18741D01*
X28593Y-18650D01*
X28593Y-21702D01*
X28555Y-21611D01*
X28486Y-21542D01*
X28395Y-21504D01*
X28297Y-21504D01*
X27866Y-21504D01*
X27804Y-21566D01*
X27804Y-21998D01*
X28531Y-21998D01*
X28593Y-21936D01*
X28593Y-21702D01*
X28593Y-22391D01*
X28593Y-22157D01*
X28531Y-22095D01*
X27804Y-22095D01*
X27804Y-22103D01*
X27707Y-22103D01*
X27707Y-22095D01*
X27707Y-21998D01*
X27707Y-21566D01*
X27645Y-21504D01*
X27214Y-21504D01*
X27116Y-21504D01*
X27025Y-21542D01*
X26956Y-21611D01*
X26918Y-21702D01*
X26918Y-21936D01*
X26980Y-21998D01*
X27707Y-21998D01*
X27707Y-22095D01*
X26980Y-22095D01*
X26918Y-22157D01*
X26918Y-22391D01*
X26956Y-22482D01*
X27025Y-22551D01*
X27093Y-22579D01*
X27036Y-22665D01*
X27002Y-22835D01*
X27028Y-22966D01*
X25685Y-24309D01*
X21322Y-24309D01*
X21005Y-23992D01*
X21005Y-21196D01*
X21029Y-21220D01*
X21083Y-21242D01*
X21140Y-21242D01*
X21140Y-22598D01*
X21155Y-22674D01*
X21198Y-22738D01*
X21434Y-22974D01*
X21498Y-23017D01*
X21498Y-23017D01*
X21574Y-23033D01*
X23709Y-23033D01*
X23786Y-23148D01*
X23905Y-23228D01*
X23786Y-23307D01*
X23709Y-23423D01*
X22108Y-23423D01*
X22033Y-23348D01*
X21915Y-23298D01*
X21786Y-23298D01*
X21667Y-23347D01*
X21576Y-23438D01*
X21527Y-23557D01*
X21526Y-23686D01*
X21576Y-23805D01*
X21666Y-23896D01*
X21785Y-23945D01*
X21914Y-23945D01*
X22033Y-23896D01*
X22109Y-23820D01*
X23709Y-23820D01*
X23786Y-23935D01*
X23930Y-24031D01*
X24100Y-24065D01*
X24719Y-24065D01*
X24888Y-24031D01*
X25032Y-23935D01*
X25129Y-23791D01*
X25163Y-23621D01*
X25129Y-23451D01*
X25032Y-23307D01*
X24913Y-23228D01*
X25032Y-23148D01*
X25129Y-23004D01*
X25163Y-22834D01*
X25129Y-22664D01*
X25072Y-22579D01*
X25140Y-22551D01*
X25209Y-22481D01*
X25246Y-22391D01*
X25246Y-21702D01*
X25209Y-21611D01*
X25140Y-21541D01*
X25049Y-21504D01*
X24951Y-21504D01*
X24519Y-21504D01*
X24458Y-21566D01*
X24458Y-21998D01*
X25185Y-21998D01*
X25246Y-21936D01*
X25246Y-21702D01*
X25246Y-22391D01*
X25246Y-22156D01*
X25185Y-22095D01*
X24458Y-22095D01*
X24458Y-22102D01*
X24361Y-22102D01*
X24361Y-22095D01*
X24361Y-21998D01*
X24361Y-21566D01*
X24299Y-21504D01*
X23867Y-21504D01*
X23769Y-21504D01*
X23679Y-21541D01*
X23609Y-21611D01*
X23572Y-21702D01*
X23572Y-21936D01*
X23633Y-21998D01*
X24361Y-21998D01*
X24361Y-22095D01*
X23633Y-22095D01*
X23572Y-22156D01*
X23572Y-22391D01*
X23609Y-22481D01*
X23679Y-22551D01*
X23746Y-22579D01*
X23709Y-22636D01*
X21656Y-22636D01*
X21537Y-22516D01*
X21537Y-21242D01*
X21592Y-21242D01*
X21647Y-21220D01*
X21689Y-21178D01*
X21711Y-21123D01*
X21712Y-21064D01*
X21712Y-20814D01*
X21689Y-20760D01*
X21647Y-20718D01*
X21593Y-20695D01*
X21534Y-20695D01*
X21084Y-20695D01*
X21029Y-20718D01*
X21005Y-20742D01*
X21005Y-20596D01*
X21029Y-20620D01*
X21083Y-20642D01*
X21142Y-20642D01*
X21592Y-20642D01*
X21647Y-20620D01*
X21689Y-20578D01*
X21711Y-20523D01*
X21712Y-20464D01*
X21712Y-20214D01*
X21689Y-20160D01*
X21647Y-20118D01*
X21593Y-20095D01*
X21582Y-20095D01*
X21612Y-20065D01*
X21661Y-19946D01*
X21662Y-19817D01*
X21612Y-19698D01*
X21522Y-19607D01*
X21403Y-19558D01*
X21274Y-19558D01*
X21155Y-19607D01*
X21064Y-19698D01*
X21015Y-19817D01*
X21015Y-19945D01*
X21064Y-20064D01*
X21095Y-20095D01*
X21084Y-20095D01*
X21029Y-20118D01*
X21005Y-20142D01*
X21005Y-19531D01*
X21498Y-19037D01*
X21498Y-19037D01*
X21498Y-19037D01*
X21540Y-18975D01*
X21540Y-18975D01*
X21541Y-18975D01*
X21632Y-18884D01*
X21681Y-18765D01*
X21681Y-18636D01*
X21632Y-18517D01*
X21541Y-18426D01*
X21422Y-18377D01*
X21294Y-18377D01*
X21175Y-18426D01*
X21084Y-18517D01*
X21034Y-18636D01*
X21034Y-18764D01*
X21083Y-18883D01*
X21087Y-18887D01*
X20769Y-19205D01*
X20769Y-18959D01*
X20844Y-18884D01*
X20894Y-18765D01*
X20894Y-18636D01*
X20845Y-18517D01*
X20754Y-18426D01*
X20635Y-18377D01*
X20506Y-18377D01*
X20387Y-18426D01*
X20296Y-18517D01*
X20247Y-18636D01*
X20247Y-18764D01*
X20296Y-18883D01*
X20372Y-18959D01*
X20372Y-24212D01*
X20387Y-24288D01*
X20430Y-24352D01*
X20942Y-24864D01*
X20942Y-24864D01*
X21006Y-24907D01*
X21006Y-24907D01*
X21082Y-24922D01*
X26161Y-24922D01*
X26237Y-24907D01*
X26237Y-24907D01*
X26301Y-24864D01*
X27191Y-23975D01*
X27251Y-24015D01*
X27132Y-24095D01*
X27036Y-24239D01*
X27002Y-24409D01*
X27036Y-24578D01*
X27132Y-24722D01*
X27149Y-24734D01*
X26807Y-25077D01*
X21027Y-25077D01*
X19981Y-24031D01*
X19981Y-18959D01*
X20057Y-18884D01*
X20106Y-18765D01*
X20106Y-18636D01*
X20057Y-18517D01*
X19966Y-18426D01*
X19848Y-18377D01*
X19719Y-18377D01*
X19600Y-18426D01*
X19509Y-18517D01*
X19460Y-18636D01*
X19459Y-18764D01*
X19509Y-18883D01*
X19585Y-18959D01*
X19585Y-24114D01*
X19600Y-24190D01*
X19643Y-24254D01*
X20804Y-25415D01*
X20868Y-25458D01*
X20868Y-25458D01*
X20944Y-25474D01*
X26889Y-25474D01*
X26965Y-25458D01*
X26965Y-25458D01*
X27029Y-25415D01*
X27592Y-24852D01*
X28065Y-24852D01*
X28235Y-24819D01*
X28379Y-24722D01*
X28475Y-24578D01*
X28509Y-24409D01*
X28475Y-24239D01*
X28379Y-24095D01*
X28260Y-24015D01*
X28379Y-23935D01*
X28475Y-23791D01*
X28509Y-23622D01*
X28475Y-23452D01*
X28379Y-23308D01*
X28260Y-23228D01*
X28379Y-23148D01*
X28475Y-23004D01*
X28509Y-22835D01*
X28475Y-22665D01*
X28418Y-22579D01*
X28486Y-22551D01*
X28555Y-22482D01*
X28593Y-22391D01*
X28593Y-29125D01*
X28298Y-29420D01*
X28298Y-28002D01*
X28298Y-26919D01*
X28298Y-26820D01*
X28260Y-26730D01*
X28191Y-26660D01*
X28100Y-26623D01*
X27866Y-26623D01*
X27804Y-26685D01*
X27804Y-27412D01*
X28236Y-27412D01*
X28298Y-27350D01*
X28298Y-26919D01*
X28298Y-28002D01*
X28298Y-27570D01*
X28236Y-27509D01*
X27804Y-27509D01*
X27804Y-28236D01*
X27866Y-28298D01*
X28100Y-28298D01*
X28191Y-28260D01*
X28260Y-28191D01*
X28298Y-28100D01*
X28298Y-28002D01*
X28298Y-29420D01*
X27859Y-29859D01*
X27816Y-29924D01*
X27801Y-30000D01*
X27801Y-30579D01*
X27782Y-30675D01*
X27740Y-30739D01*
X27707Y-30761D01*
X27707Y-28236D01*
X27707Y-27509D01*
X27699Y-27509D01*
X27699Y-27412D01*
X27707Y-27412D01*
X27707Y-26685D01*
X27645Y-26623D01*
X27411Y-26623D01*
X27320Y-26660D01*
X27251Y-26730D01*
X27223Y-26798D01*
X27166Y-26760D01*
X27166Y-26574D01*
X27166Y-26574D01*
X27166Y-26574D01*
X27163Y-26559D01*
X27151Y-26498D01*
X27151Y-26498D01*
X27108Y-26434D01*
X27108Y-26434D01*
X26415Y-25740D01*
X26350Y-25697D01*
X26274Y-25682D01*
X20834Y-25682D01*
X20827Y-25674D01*
X20809Y-25647D01*
X20805Y-25644D01*
X20801Y-25639D01*
X20771Y-25621D01*
X20745Y-25604D01*
X20740Y-25603D01*
X20735Y-25600D01*
X20699Y-25594D01*
X20669Y-25588D01*
X20664Y-25589D01*
X20658Y-25589D01*
X20623Y-25598D01*
X20617Y-25599D01*
X20566Y-25588D01*
X20490Y-25604D01*
X20484Y-25607D01*
X20460Y-25607D01*
X20454Y-25604D01*
X20378Y-25588D01*
X20302Y-25604D01*
X20297Y-25607D01*
X20218Y-25607D01*
X20163Y-25630D01*
X20121Y-25671D01*
X20117Y-25682D01*
X19467Y-25682D01*
X19467Y-21261D01*
X19467Y-21011D01*
X19467Y-20661D01*
X19467Y-20411D01*
X19445Y-20357D01*
X19403Y-20315D01*
X19349Y-20292D01*
X19292Y-20292D01*
X19292Y-18959D01*
X19368Y-18884D01*
X19417Y-18765D01*
X19417Y-18636D01*
X19368Y-18517D01*
X19277Y-18426D01*
X19159Y-18377D01*
X19030Y-18377D01*
X18911Y-18426D01*
X18820Y-18517D01*
X18771Y-18636D01*
X18771Y-18764D01*
X18820Y-18883D01*
X18896Y-18959D01*
X18896Y-20292D01*
X18840Y-20292D01*
X18785Y-20315D01*
X18743Y-20356D01*
X18721Y-20411D01*
X18721Y-20470D01*
X18721Y-20720D01*
X18743Y-20775D01*
X18785Y-20816D01*
X18839Y-20839D01*
X18898Y-20839D01*
X19348Y-20839D01*
X19403Y-20817D01*
X19445Y-20775D01*
X19467Y-20720D01*
X19467Y-20661D01*
X19467Y-21011D01*
X19445Y-20957D01*
X19403Y-20915D01*
X19349Y-20892D01*
X19290Y-20892D01*
X18840Y-20892D01*
X18785Y-20915D01*
X18743Y-20956D01*
X18721Y-21011D01*
X18721Y-21070D01*
X18721Y-21320D01*
X18743Y-21375D01*
X18785Y-21416D01*
X18839Y-21439D01*
X18896Y-21439D01*
X18896Y-22772D01*
X18820Y-22848D01*
X18771Y-22966D01*
X18771Y-23095D01*
X18820Y-23214D01*
X18911Y-23305D01*
X19029Y-23354D01*
X19158Y-23354D01*
X19277Y-23305D01*
X19368Y-23214D01*
X19417Y-23096D01*
X19417Y-22967D01*
X19368Y-22848D01*
X19292Y-22772D01*
X19292Y-21439D01*
X19348Y-21439D01*
X19403Y-21417D01*
X19445Y-21375D01*
X19467Y-21320D01*
X19467Y-21261D01*
X19467Y-25682D01*
X18094Y-25682D01*
X18013Y-25602D01*
X18013Y-18861D01*
X18088Y-18785D01*
X18138Y-18666D01*
X18138Y-18538D01*
X18089Y-18419D01*
X17998Y-18328D01*
X17879Y-18278D01*
X17750Y-18278D01*
X17631Y-18328D01*
X17540Y-18418D01*
X17491Y-18537D01*
X17491Y-18666D01*
X17520Y-18736D01*
X17506Y-18722D01*
X17387Y-18672D01*
X17258Y-18672D01*
X17139Y-18721D01*
X17048Y-18812D01*
X16999Y-18931D01*
X16999Y-19060D01*
X17048Y-19179D01*
X17139Y-19270D01*
X17258Y-19319D01*
X17365Y-19319D01*
X17419Y-19373D01*
X17419Y-25787D01*
X17434Y-25863D01*
X17477Y-25927D01*
X17773Y-26222D01*
X17837Y-26265D01*
X17837Y-26265D01*
X17913Y-26281D01*
X19213Y-26281D01*
X19213Y-26326D01*
X17102Y-26326D01*
X16980Y-26204D01*
X16980Y-18425D01*
X16972Y-18383D01*
X16967Y-18346D01*
X16963Y-18339D01*
X16961Y-18330D01*
X16938Y-18294D01*
X16919Y-18262D01*
X16757Y-18075D01*
X20346Y-18056D01*
X20356Y-18067D01*
X20411Y-18089D01*
X20470Y-18089D01*
X20720Y-18089D01*
X20775Y-18067D01*
X20816Y-18025D01*
X20839Y-17971D01*
X20839Y-17912D01*
X20839Y-17462D01*
X20839Y-17124D01*
X20839Y-16674D01*
X20817Y-16620D01*
X20775Y-16578D01*
X20720Y-16555D01*
X20661Y-16555D01*
X20467Y-16555D01*
X20467Y-15516D01*
X20467Y-15199D01*
X20151Y-15199D01*
X20089Y-15261D01*
X20089Y-15282D01*
X20089Y-15380D01*
X20126Y-15471D01*
X20196Y-15540D01*
X20287Y-15578D01*
X20406Y-15578D01*
X20467Y-15516D01*
X20467Y-16555D01*
X20411Y-16555D01*
X20357Y-16578D01*
X20315Y-16619D01*
X20292Y-16674D01*
X20292Y-16730D01*
X20058Y-16730D01*
X20058Y-16484D01*
X20035Y-16429D01*
X19994Y-16387D01*
X19939Y-16365D01*
X19880Y-16365D01*
X19430Y-16365D01*
X19376Y-16387D01*
X19372Y-16391D01*
X19372Y-16340D01*
X19581Y-16340D01*
X19657Y-16325D01*
X19657Y-16325D01*
X19677Y-16312D01*
X19677Y-16312D01*
X19939Y-16312D01*
X19994Y-16289D01*
X20035Y-16247D01*
X20058Y-16193D01*
X20058Y-16134D01*
X20058Y-15884D01*
X20035Y-15829D01*
X19994Y-15787D01*
X19939Y-15765D01*
X19883Y-15765D01*
X19883Y-15534D01*
X19939Y-15534D01*
X19994Y-15511D01*
X20035Y-15469D01*
X20058Y-15415D01*
X20058Y-15356D01*
X20058Y-15106D01*
X20035Y-15051D01*
X19999Y-15015D01*
X20050Y-14994D01*
X20089Y-14955D01*
X20089Y-15020D01*
X20089Y-15041D01*
X20151Y-15102D01*
X20467Y-15102D01*
X20467Y-14786D01*
X20406Y-14724D01*
X20287Y-14724D01*
X20196Y-14761D01*
X20156Y-14801D01*
X20156Y-14486D01*
X20119Y-14395D01*
X20050Y-14326D01*
X19959Y-14288D01*
X19861Y-14288D01*
X19795Y-14288D01*
X19733Y-14350D01*
X19733Y-14612D01*
X20095Y-14612D01*
X20156Y-14550D01*
X20156Y-14486D01*
X20156Y-14801D01*
X20156Y-14801D01*
X20156Y-14770D01*
X20095Y-14709D01*
X19733Y-14709D01*
X19733Y-14716D01*
X19636Y-14716D01*
X19636Y-14709D01*
X19636Y-14612D01*
X19636Y-14350D01*
X19574Y-14288D01*
X19508Y-14288D01*
X19410Y-14288D01*
X19320Y-14326D01*
X19250Y-14395D01*
X19213Y-14486D01*
X19213Y-14550D01*
X19274Y-14612D01*
X19636Y-14612D01*
X19636Y-14709D01*
X19274Y-14709D01*
X19213Y-14770D01*
X19213Y-14834D01*
X19250Y-14925D01*
X19320Y-14994D01*
X19370Y-15015D01*
X19334Y-15051D01*
X19311Y-15105D01*
X19311Y-15165D01*
X19311Y-15400D01*
X19308Y-15397D01*
X19253Y-15374D01*
X19194Y-15374D01*
X18944Y-15374D01*
X18890Y-15397D01*
X18848Y-15438D01*
X18825Y-15493D01*
X18825Y-15552D01*
X18825Y-16002D01*
X18848Y-16056D01*
X18890Y-16098D01*
X18900Y-16103D01*
X18900Y-16141D01*
X18900Y-16180D01*
X18890Y-16184D01*
X18848Y-16226D01*
X18825Y-16280D01*
X18825Y-16339D01*
X18825Y-16789D01*
X18848Y-16844D01*
X18890Y-16886D01*
X18944Y-16908D01*
X19003Y-16908D01*
X19253Y-16908D01*
X19308Y-16886D01*
X19340Y-16853D01*
X19375Y-16889D01*
X19430Y-16911D01*
X19489Y-16912D01*
X19677Y-16912D01*
X19835Y-17069D01*
X19835Y-17069D01*
X19899Y-17112D01*
X19899Y-17112D01*
X19975Y-17127D01*
X20292Y-17127D01*
X20292Y-17183D01*
X20315Y-17238D01*
X20356Y-17279D01*
X20411Y-17302D01*
X20470Y-17302D01*
X20720Y-17302D01*
X20775Y-17280D01*
X20816Y-17238D01*
X20839Y-17183D01*
X20839Y-17124D01*
X20839Y-17462D01*
X20817Y-17407D01*
X20775Y-17365D01*
X20720Y-17343D01*
X20661Y-17343D01*
X20411Y-17343D01*
X20357Y-17365D01*
X20315Y-17407D01*
X20292Y-17461D01*
X20292Y-17520D01*
X20292Y-17560D01*
X17699Y-17573D01*
X17699Y-17521D01*
X18307Y-17521D01*
X18383Y-17506D01*
X18383Y-17506D01*
X18447Y-17463D01*
X18639Y-17271D01*
X18682Y-17206D01*
X18682Y-17206D01*
X18697Y-17130D01*
X18697Y-16890D01*
X18708Y-16886D01*
X18749Y-16844D01*
X18772Y-16790D01*
X18772Y-16731D01*
X18772Y-16281D01*
X18750Y-16226D01*
X18708Y-16184D01*
X18653Y-16162D01*
X18594Y-16161D01*
X18344Y-16161D01*
X18290Y-16184D01*
X18248Y-16226D01*
X18225Y-16280D01*
X18225Y-16339D01*
X18225Y-16789D01*
X18248Y-16844D01*
X18290Y-16886D01*
X18300Y-16890D01*
X18300Y-17048D01*
X18224Y-17124D01*
X17699Y-17124D01*
X17699Y-17068D01*
X17676Y-17013D01*
X17649Y-16986D01*
X17690Y-16969D01*
X17760Y-16900D01*
X17797Y-16809D01*
X17797Y-16711D01*
X17797Y-16359D01*
X17797Y-16261D01*
X17760Y-16170D01*
X17731Y-16141D01*
X17760Y-16113D01*
X17797Y-16022D01*
X17797Y-15924D01*
X17797Y-15858D01*
X17736Y-15796D01*
X17474Y-15796D01*
X17474Y-16125D01*
X17474Y-16158D01*
X17474Y-16487D01*
X17736Y-16487D01*
X17797Y-16425D01*
X17797Y-16359D01*
X17797Y-16711D01*
X17797Y-16645D01*
X17736Y-16583D01*
X17474Y-16583D01*
X17474Y-16591D01*
X17377Y-16591D01*
X17377Y-16583D01*
X17369Y-16583D01*
X17369Y-16487D01*
X17377Y-16487D01*
X17377Y-16158D01*
X17377Y-16125D01*
X17377Y-15796D01*
X17369Y-15796D01*
X17369Y-15699D01*
X17377Y-15699D01*
X17377Y-15691D01*
X17474Y-15691D01*
X17474Y-15699D01*
X17736Y-15699D01*
X17797Y-15637D01*
X17797Y-15571D01*
X17797Y-15473D01*
X17760Y-15383D01*
X17690Y-15313D01*
X17649Y-15296D01*
X17676Y-15269D01*
X17699Y-15215D01*
X17699Y-15159D01*
X18224Y-15159D01*
X18300Y-15234D01*
X18300Y-15392D01*
X18290Y-15397D01*
X18248Y-15438D01*
X18225Y-15493D01*
X18225Y-15552D01*
X18225Y-16002D01*
X18248Y-16056D01*
X18290Y-16098D01*
X18344Y-16121D01*
X18403Y-16121D01*
X18653Y-16121D01*
X18708Y-16098D01*
X18749Y-16057D01*
X18772Y-16002D01*
X18772Y-15943D01*
X18772Y-15493D01*
X18750Y-15439D01*
X18708Y-15397D01*
X18697Y-15392D01*
X18697Y-15152D01*
X18682Y-15076D01*
X18682Y-15076D01*
X18639Y-15012D01*
X18447Y-14820D01*
X18383Y-14777D01*
X18352Y-14771D01*
X18352Y-13500D01*
X18352Y-13138D01*
X18352Y-13042D01*
X18352Y-12811D01*
X18352Y-12680D01*
X18352Y-12450D01*
X18090Y-12450D01*
X18028Y-12511D01*
X18028Y-12577D01*
X18028Y-12675D01*
X18058Y-12746D01*
X18028Y-12816D01*
X18028Y-12914D01*
X18028Y-12980D01*
X18090Y-13042D01*
X18352Y-13042D01*
X18352Y-13138D01*
X18090Y-13138D01*
X18028Y-13200D01*
X18028Y-13266D01*
X18028Y-13364D01*
X18066Y-13455D01*
X18136Y-13524D01*
X18226Y-13562D01*
X18290Y-13562D01*
X18352Y-13500D01*
X18352Y-14771D01*
X18307Y-14762D01*
X17699Y-14762D01*
X17699Y-14706D01*
X17676Y-14651D01*
X17635Y-14609D01*
X17580Y-14587D01*
X17521Y-14587D01*
X17271Y-14587D01*
X17217Y-14609D01*
X17175Y-14651D01*
X17152Y-14705D01*
X17152Y-14765D01*
X17152Y-15215D01*
X17175Y-15269D01*
X17202Y-15296D01*
X17161Y-15313D01*
X17091Y-15383D01*
X17071Y-15433D01*
X17035Y-15397D01*
X16980Y-15374D01*
X16921Y-15374D01*
X16671Y-15374D01*
X16617Y-15397D01*
X16575Y-15438D01*
X16552Y-15493D01*
X16552Y-15552D01*
X16552Y-15740D01*
X16546Y-15746D01*
X16227Y-15746D01*
X16282Y-15691D01*
X16282Y-15691D01*
X16282Y-15691D01*
X16325Y-15627D01*
X16325Y-15627D01*
X16337Y-15566D01*
X16340Y-15551D01*
X16340Y-15551D01*
X16340Y-15551D01*
X16340Y-15239D01*
X16420Y-15159D01*
X16552Y-15159D01*
X16552Y-15215D01*
X16575Y-15269D01*
X16616Y-15311D01*
X16671Y-15334D01*
X16730Y-15334D01*
X16980Y-15334D01*
X17034Y-15311D01*
X17076Y-15269D01*
X17099Y-15215D01*
X17099Y-15156D01*
X17099Y-14706D01*
X17076Y-14651D01*
X17035Y-14609D01*
X16980Y-14587D01*
X16921Y-14587D01*
X16671Y-14587D01*
X16617Y-14609D01*
X16575Y-14651D01*
X16552Y-14705D01*
X16552Y-14762D01*
X16482Y-14762D01*
X16482Y-13205D01*
X16482Y-12843D01*
X16220Y-12843D01*
X16158Y-12905D01*
X16158Y-12971D01*
X16158Y-13069D01*
X16196Y-13160D01*
X16266Y-13229D01*
X16356Y-13267D01*
X16420Y-13267D01*
X16482Y-13205D01*
X16482Y-14762D01*
X16338Y-14762D01*
X16338Y-14762D01*
X16323Y-14765D01*
X16262Y-14777D01*
X16198Y-14820D01*
X16198Y-14820D01*
X16001Y-15017D01*
X15958Y-15081D01*
X15943Y-15157D01*
X15943Y-15468D01*
X15862Y-15549D01*
X15748Y-15549D01*
X15743Y-15550D01*
X15728Y-15550D01*
X15699Y-15479D01*
X15650Y-15429D01*
X15650Y-15402D01*
X15612Y-15402D01*
X15539Y-15372D01*
X15441Y-15372D01*
X15354Y-15372D01*
X15354Y-15359D01*
X15355Y-15354D01*
X15355Y-15298D01*
X15378Y-15298D01*
X15378Y-15305D01*
X15650Y-15305D01*
X15650Y-15197D01*
X15609Y-15087D01*
X15529Y-15002D01*
X15424Y-14958D01*
X15402Y-14984D01*
X15402Y-14949D01*
X15355Y-14949D01*
X15355Y-14845D01*
X15508Y-14693D01*
X15615Y-14693D01*
X15734Y-14644D01*
X15825Y-14553D01*
X15874Y-14434D01*
X15874Y-14306D01*
X15825Y-14187D01*
X15734Y-14096D01*
X15615Y-14046D01*
X15487Y-14046D01*
X15368Y-14095D01*
X15277Y-14186D01*
X15255Y-14237D01*
X15234Y-14187D01*
X15144Y-14096D01*
X15025Y-14046D01*
X14896Y-14046D01*
X14777Y-14095D01*
X14686Y-14186D01*
X14637Y-14305D01*
X14637Y-14434D01*
X14686Y-14553D01*
X14762Y-14629D01*
X14762Y-14949D01*
X14715Y-14949D01*
X14715Y-14984D01*
X14693Y-14958D01*
X14665Y-14970D01*
X14637Y-14958D01*
X14606Y-14994D01*
X14588Y-15002D01*
X14542Y-15052D01*
X14542Y-15012D01*
X14496Y-14958D01*
X14391Y-15002D01*
X14312Y-15087D01*
X14271Y-15197D01*
X14271Y-15305D01*
X14467Y-15305D01*
X14542Y-15305D01*
X14591Y-15305D01*
X14615Y-15305D01*
X14615Y-15402D01*
X14613Y-15402D01*
X14582Y-15372D01*
X14476Y-15372D01*
X14377Y-15372D01*
X14304Y-15402D01*
X14271Y-15402D01*
X14271Y-15426D01*
X14217Y-15479D01*
X14203Y-15513D01*
X14203Y-13180D01*
X14203Y-12453D01*
X14203Y-12356D01*
X14203Y-11628D01*
X14141Y-11567D01*
X13907Y-11567D01*
X13848Y-11591D01*
X13848Y-10911D01*
X13780Y-10746D01*
X13654Y-10620D01*
X13489Y-10551D01*
X13311Y-10551D01*
X13146Y-10619D01*
X13020Y-10745D01*
X12951Y-10910D01*
X12951Y-11088D01*
X13019Y-11253D01*
X13145Y-11379D01*
X13310Y-11448D01*
X13488Y-11448D01*
X13653Y-11380D01*
X13779Y-11254D01*
X13848Y-11089D01*
X13848Y-10911D01*
X13848Y-11591D01*
X13816Y-11604D01*
X13747Y-11674D01*
X13709Y-11764D01*
X13709Y-11862D01*
X13709Y-12294D01*
X13771Y-12356D01*
X14203Y-12356D01*
X14203Y-12453D01*
X13771Y-12453D01*
X13709Y-12514D01*
X13709Y-12946D01*
X13709Y-13044D01*
X13747Y-13135D01*
X13816Y-13204D01*
X13907Y-13241D01*
X14141Y-13241D01*
X14203Y-13180D01*
X14203Y-15513D01*
X14188Y-15550D01*
X14178Y-15550D01*
X14173Y-15549D01*
X14058Y-15549D01*
X13722Y-15214D01*
X13660Y-15172D01*
X13660Y-14880D01*
X13623Y-14789D01*
X13553Y-14720D01*
X13463Y-14682D01*
X13365Y-14682D01*
X13299Y-14682D01*
X13237Y-14744D01*
X13237Y-15005D01*
X13599Y-15005D01*
X13660Y-14944D01*
X13660Y-14880D01*
X13660Y-15172D01*
X13660Y-15172D01*
X13660Y-15172D01*
X13660Y-15164D01*
X13599Y-15102D01*
X13237Y-15102D01*
X13237Y-15110D01*
X13140Y-15110D01*
X13140Y-15102D01*
X13132Y-15102D01*
X13132Y-15005D01*
X13140Y-15005D01*
X13140Y-14744D01*
X13118Y-14722D01*
X13118Y-14109D01*
X13069Y-13990D01*
X12978Y-13899D01*
X12951Y-13887D01*
X12951Y-11082D01*
X12941Y-10865D01*
X12877Y-10712D01*
X12783Y-10685D01*
X12714Y-10753D01*
X12714Y-10616D01*
X12687Y-10522D01*
X12482Y-10448D01*
X12265Y-10458D01*
X12112Y-10522D01*
X12085Y-10616D01*
X12400Y-10931D01*
X12714Y-10616D01*
X12714Y-10753D01*
X12468Y-11000D01*
X12783Y-11314D01*
X12877Y-11287D01*
X12951Y-11082D01*
X12951Y-13887D01*
X12859Y-13849D01*
X12823Y-13849D01*
X12714Y-13741D01*
X12714Y-11383D01*
X12400Y-11068D01*
X12331Y-11136D01*
X12331Y-11000D01*
X12016Y-10685D01*
X11922Y-10712D01*
X11848Y-10917D01*
X11858Y-11134D01*
X11922Y-11287D01*
X12016Y-11314D01*
X12331Y-11000D01*
X12331Y-11136D01*
X12085Y-11383D01*
X12112Y-11477D01*
X12317Y-11551D01*
X12534Y-11541D01*
X12687Y-11477D01*
X12714Y-11383D01*
X12714Y-13741D01*
X12384Y-13411D01*
X12384Y-12479D01*
X12384Y-12127D01*
X12384Y-12028D01*
X12346Y-11938D01*
X12277Y-11868D01*
X12186Y-11831D01*
X12122Y-11831D01*
X12061Y-11893D01*
X12061Y-12254D01*
X12322Y-12254D01*
X12384Y-12193D01*
X12384Y-12127D01*
X12384Y-12479D01*
X12384Y-12413D01*
X12322Y-12351D01*
X12061Y-12351D01*
X12061Y-12713D01*
X12122Y-12775D01*
X12186Y-12775D01*
X12277Y-12737D01*
X12346Y-12668D01*
X12384Y-12577D01*
X12384Y-12479D01*
X12384Y-13411D01*
X11661Y-12687D01*
X11661Y-12626D01*
X11678Y-12668D01*
X11747Y-12737D01*
X11838Y-12775D01*
X11902Y-12775D01*
X11964Y-12713D01*
X11964Y-12351D01*
X11956Y-12351D01*
X11956Y-12254D01*
X11964Y-12254D01*
X11964Y-11893D01*
X11902Y-11831D01*
X11838Y-11831D01*
X11747Y-11868D01*
X11678Y-11938D01*
X11657Y-11988D01*
X11621Y-11952D01*
X11611Y-11947D01*
X11611Y-11398D01*
X11653Y-11380D01*
X11779Y-11254D01*
X11848Y-11089D01*
X11848Y-10911D01*
X11780Y-10746D01*
X11654Y-10620D01*
X11489Y-10551D01*
X11311Y-10551D01*
X11146Y-10619D01*
X11020Y-10745D01*
X10951Y-10910D01*
X10951Y-11088D01*
X11019Y-11253D01*
X11145Y-11379D01*
X11214Y-11408D01*
X11214Y-11947D01*
X11203Y-11952D01*
X11161Y-11993D01*
X11139Y-12048D01*
X11139Y-12107D01*
X11139Y-12557D01*
X11161Y-12612D01*
X11164Y-12614D01*
X11164Y-12790D01*
X11183Y-12885D01*
X11236Y-12966D01*
X12471Y-14201D01*
X12471Y-14237D01*
X12520Y-14356D01*
X12611Y-14447D01*
X12730Y-14496D01*
X12859Y-14496D01*
X12978Y-14447D01*
X13069Y-14356D01*
X13118Y-14237D01*
X13118Y-14109D01*
X13118Y-14722D01*
X13078Y-14682D01*
X13012Y-14682D01*
X12914Y-14682D01*
X12823Y-14720D01*
X12754Y-14789D01*
X12717Y-14880D01*
X12717Y-14944D01*
X12778Y-15005D01*
X12727Y-15005D01*
X12403Y-14681D01*
X12403Y-14370D01*
X12403Y-14370D01*
X12403Y-14370D01*
X12400Y-14354D01*
X12388Y-14294D01*
X12388Y-14294D01*
X12345Y-14229D01*
X12345Y-14229D01*
X12147Y-14032D01*
X12083Y-13989D01*
X12007Y-13974D01*
X11920Y-13974D01*
X11843Y-13859D01*
X11699Y-13762D01*
X11529Y-13729D01*
X10910Y-13729D01*
X10740Y-13762D01*
X10596Y-13859D01*
X10500Y-14003D01*
X10466Y-14173D01*
X10500Y-14342D01*
X10596Y-14486D01*
X10716Y-14567D01*
X10596Y-14647D01*
X10500Y-14791D01*
X10466Y-14961D01*
X10500Y-15130D01*
X10596Y-15274D01*
X10716Y-15354D01*
X10596Y-15434D01*
X10500Y-15578D01*
X10466Y-15748D01*
X10500Y-15917D01*
X10596Y-16061D01*
X10716Y-16141D01*
X10596Y-16221D01*
X10500Y-16365D01*
X10466Y-16535D01*
X10500Y-16704D01*
X10557Y-16790D01*
X10489Y-16818D01*
X10420Y-16887D01*
X10382Y-16978D01*
X10382Y-17212D01*
X10444Y-17274D01*
X11171Y-17274D01*
X11171Y-17266D01*
X11268Y-17266D01*
X11268Y-17274D01*
X11995Y-17274D01*
X12057Y-17212D01*
X12057Y-16978D01*
X12020Y-16887D01*
X11950Y-16818D01*
X11882Y-16790D01*
X11920Y-16733D01*
X12815Y-16733D01*
X12815Y-16739D01*
X12815Y-16989D01*
X12838Y-17044D01*
X12879Y-17086D01*
X12934Y-17108D01*
X12993Y-17108D01*
X13098Y-17108D01*
X13006Y-17146D01*
X12914Y-17237D01*
X12865Y-17356D01*
X12865Y-17485D01*
X12877Y-17514D01*
X12872Y-17539D01*
X12872Y-18245D01*
X12816Y-18245D01*
X12761Y-18267D01*
X12720Y-18309D01*
X12697Y-18364D01*
X12697Y-18423D01*
X12697Y-18673D01*
X12719Y-18727D01*
X12761Y-18769D01*
X12816Y-18792D01*
X12875Y-18792D01*
X13325Y-18792D01*
X13379Y-18769D01*
X13421Y-18728D01*
X13432Y-18701D01*
X13432Y-18936D01*
X13421Y-18909D01*
X13380Y-18868D01*
X13325Y-18845D01*
X13266Y-18845D01*
X12816Y-18845D01*
X12761Y-18867D01*
X12720Y-18909D01*
X12715Y-18920D01*
X12578Y-18920D01*
X12578Y-18614D01*
X12578Y-18364D01*
X12555Y-18309D01*
X12513Y-18268D01*
X12459Y-18245D01*
X12428Y-18245D01*
X12478Y-18195D01*
X12528Y-18076D01*
X12528Y-17947D01*
X12479Y-17828D01*
X12388Y-17737D01*
X12269Y-17688D01*
X12140Y-17688D01*
X12030Y-17733D01*
X12057Y-17667D01*
X12057Y-17433D01*
X11995Y-17371D01*
X11268Y-17371D01*
X11268Y-17803D01*
X11330Y-17865D01*
X11761Y-17865D01*
X11860Y-17865D01*
X11926Y-17837D01*
X11881Y-17947D01*
X11881Y-18075D01*
X11930Y-18194D01*
X11980Y-18245D01*
X11950Y-18245D01*
X11895Y-18267D01*
X11853Y-18309D01*
X11831Y-18364D01*
X11831Y-18423D01*
X11831Y-18673D01*
X11853Y-18727D01*
X11895Y-18769D01*
X11950Y-18792D01*
X12009Y-18792D01*
X12459Y-18792D01*
X12513Y-18769D01*
X12555Y-18728D01*
X12578Y-18673D01*
X12578Y-18614D01*
X12578Y-18920D01*
X12559Y-18920D01*
X12555Y-18909D01*
X12513Y-18868D01*
X12459Y-18845D01*
X12400Y-18845D01*
X11950Y-18845D01*
X11895Y-18867D01*
X11853Y-18909D01*
X11849Y-18920D01*
X11511Y-18920D01*
X11435Y-18935D01*
X11370Y-18978D01*
X11370Y-18978D01*
X11171Y-19177D01*
X11171Y-17803D01*
X11171Y-17371D01*
X10444Y-17371D01*
X10382Y-17433D01*
X10382Y-17667D01*
X10420Y-17758D01*
X10489Y-17827D01*
X10580Y-17865D01*
X10678Y-17865D01*
X11110Y-17865D01*
X11171Y-17803D01*
X11171Y-19177D01*
X11043Y-19305D01*
X11000Y-19369D01*
X10985Y-19445D01*
X10985Y-19949D01*
X10874Y-19949D01*
X10704Y-19982D01*
X10560Y-20079D01*
X10464Y-20223D01*
X10430Y-20393D01*
X10464Y-20562D01*
X10521Y-20648D01*
X10453Y-20676D01*
X10384Y-20745D01*
X10346Y-20836D01*
X10346Y-21070D01*
X10408Y-21132D01*
X11135Y-21132D01*
X11135Y-21124D01*
X11232Y-21124D01*
X11232Y-21132D01*
X11959Y-21132D01*
X12021Y-21070D01*
X12021Y-20836D01*
X11983Y-20745D01*
X11914Y-20676D01*
X11846Y-20648D01*
X11903Y-20562D01*
X11937Y-20393D01*
X11903Y-20223D01*
X11807Y-20079D01*
X11663Y-19982D01*
X11493Y-19949D01*
X11382Y-19949D01*
X11382Y-19528D01*
X11593Y-19317D01*
X11849Y-19317D01*
X11853Y-19327D01*
X11895Y-19369D01*
X11950Y-19392D01*
X12009Y-19392D01*
X12459Y-19392D01*
X12513Y-19369D01*
X12555Y-19328D01*
X12559Y-19317D01*
X12715Y-19317D01*
X12719Y-19327D01*
X12761Y-19369D01*
X12816Y-19392D01*
X12875Y-19392D01*
X13325Y-19392D01*
X13379Y-19369D01*
X13421Y-19328D01*
X13432Y-19301D01*
X13432Y-19685D01*
X13451Y-19780D01*
X13505Y-19860D01*
X15751Y-22106D01*
X15751Y-29617D01*
X15746Y-29619D01*
X15620Y-29745D01*
X15551Y-29910D01*
X15551Y-30088D01*
X15619Y-30253D01*
X15745Y-30379D01*
X15910Y-30448D01*
X16088Y-30448D01*
X16253Y-30380D01*
X16379Y-30254D01*
X16448Y-30089D01*
X16448Y-29911D01*
X16380Y-29746D01*
X16254Y-29620D01*
X16248Y-29617D01*
X16248Y-22003D01*
X16248Y-22003D01*
X16229Y-21908D01*
X16229Y-21908D01*
X16211Y-21882D01*
X16175Y-21828D01*
X16175Y-21828D01*
X13929Y-19582D01*
X13929Y-17630D01*
X13955Y-17604D01*
X14004Y-17485D01*
X14004Y-17357D01*
X13955Y-17238D01*
X13864Y-17147D01*
X13745Y-17097D01*
X13617Y-17097D01*
X13498Y-17146D01*
X13435Y-17209D01*
X13372Y-17147D01*
X13280Y-17108D01*
X13443Y-17108D01*
X13497Y-17086D01*
X13539Y-17044D01*
X13544Y-17033D01*
X13800Y-17033D01*
X13836Y-17069D01*
X13900Y-17112D01*
X13900Y-17112D01*
X13976Y-17127D01*
X14390Y-17127D01*
X14426Y-17182D01*
X14229Y-17379D01*
X14186Y-17443D01*
X14171Y-17519D01*
X14171Y-17536D01*
X14115Y-17536D01*
X14061Y-17559D01*
X14019Y-17601D01*
X13996Y-17655D01*
X13996Y-17714D01*
X13996Y-17964D01*
X14019Y-18019D01*
X14060Y-18060D01*
X14115Y-18083D01*
X14174Y-18083D01*
X14416Y-18083D01*
X14362Y-18136D01*
X14115Y-18136D01*
X14061Y-18159D01*
X14019Y-18201D01*
X13996Y-18255D01*
X13996Y-18314D01*
X13996Y-18564D01*
X14019Y-18619D01*
X14060Y-18660D01*
X14115Y-18683D01*
X14174Y-18683D01*
X14624Y-18683D01*
X14679Y-18661D01*
X14720Y-18619D01*
X14743Y-18564D01*
X14743Y-18505D01*
X14743Y-18317D01*
X14904Y-18156D01*
X14904Y-18156D01*
X14904Y-18156D01*
X14947Y-18092D01*
X14947Y-18092D01*
X14959Y-18032D01*
X14959Y-18110D01*
X14974Y-18186D01*
X15017Y-18250D01*
X15177Y-18411D01*
X15177Y-18564D01*
X15200Y-18619D01*
X15241Y-18660D01*
X15296Y-18683D01*
X15355Y-18683D01*
X15805Y-18683D01*
X15860Y-18661D01*
X15901Y-18619D01*
X15924Y-18564D01*
X15924Y-18505D01*
X15924Y-18255D01*
X15902Y-18201D01*
X15860Y-18159D01*
X15805Y-18136D01*
X15746Y-18136D01*
X15464Y-18136D01*
X15411Y-18083D01*
X15805Y-18083D01*
X15844Y-18067D01*
X16000Y-18072D01*
X16037Y-18108D01*
X16155Y-18158D01*
X16171Y-18158D01*
X16483Y-18518D01*
X16483Y-26307D01*
X16502Y-26402D01*
X16556Y-26482D01*
X16751Y-26677D01*
X16751Y-27165D01*
X16751Y-29617D01*
X16746Y-29619D01*
X16620Y-29745D01*
X16551Y-29910D01*
X16551Y-30088D01*
X16619Y-30253D01*
X16745Y-30379D01*
X16910Y-30448D01*
X17088Y-30448D01*
X17253Y-30380D01*
X17379Y-30254D01*
X17448Y-30089D01*
X17448Y-29911D01*
X17380Y-29746D01*
X17254Y-29620D01*
X17248Y-29617D01*
X17248Y-27165D01*
X17248Y-26823D01*
X19213Y-26823D01*
X19213Y-26930D01*
X19235Y-26985D01*
X19277Y-27027D01*
X19331Y-27049D01*
X19391Y-27049D01*
X19841Y-27049D01*
X19895Y-27027D01*
X19898Y-27024D01*
X20177Y-27024D01*
X20177Y-27024D01*
X20272Y-27005D01*
X20352Y-26952D01*
X20550Y-26754D01*
X20585Y-26754D01*
X20589Y-26755D01*
X20593Y-26758D01*
X20623Y-26764D01*
X20658Y-26773D01*
X20664Y-26772D01*
X20669Y-26773D01*
X20699Y-26767D01*
X20735Y-26762D01*
X20740Y-26759D01*
X20745Y-26758D01*
X20771Y-26740D01*
X20790Y-26729D01*
X25098Y-26729D01*
X25145Y-26776D01*
X25145Y-26793D01*
X25080Y-26837D01*
X24983Y-26981D01*
X24950Y-27151D01*
X24950Y-27770D01*
X24983Y-27940D01*
X25080Y-28084D01*
X25224Y-28180D01*
X25394Y-28214D01*
X25563Y-28180D01*
X25708Y-28084D01*
X25787Y-27965D01*
X25867Y-28084D01*
X25982Y-28161D01*
X25982Y-28165D01*
X25859Y-28288D01*
X25816Y-28353D01*
X25801Y-28429D01*
X25801Y-29596D01*
X25746Y-29619D01*
X25620Y-29745D01*
X25551Y-29910D01*
X25551Y-30088D01*
X25619Y-30253D01*
X25745Y-30379D01*
X25910Y-30448D01*
X26088Y-30448D01*
X26253Y-30380D01*
X26379Y-30254D01*
X26448Y-30089D01*
X26448Y-29911D01*
X26380Y-29746D01*
X26254Y-29620D01*
X26198Y-29596D01*
X26198Y-28511D01*
X26321Y-28388D01*
X26364Y-28323D01*
X26364Y-28323D01*
X26379Y-28248D01*
X26379Y-28161D01*
X26495Y-28084D01*
X26574Y-27965D01*
X26654Y-28084D01*
X26769Y-28161D01*
X26769Y-29609D01*
X26746Y-29619D01*
X26620Y-29745D01*
X26551Y-29910D01*
X26551Y-30088D01*
X26619Y-30253D01*
X26745Y-30379D01*
X26910Y-30448D01*
X27088Y-30448D01*
X27253Y-30380D01*
X27379Y-30254D01*
X27448Y-30089D01*
X27448Y-29911D01*
X27380Y-29746D01*
X27254Y-29620D01*
X27166Y-29583D01*
X27166Y-28161D01*
X27223Y-28123D01*
X27251Y-28191D01*
X27320Y-28260D01*
X27411Y-28298D01*
X27645Y-28298D01*
X27707Y-28236D01*
X27707Y-30761D01*
X27675Y-30782D01*
X27580Y-30801D01*
X25448Y-30801D01*
X25448Y-29911D01*
X25380Y-29746D01*
X25254Y-29620D01*
X25089Y-29551D01*
X24911Y-29551D01*
X24746Y-29619D01*
X24620Y-29745D01*
X24551Y-29910D01*
X24551Y-30088D01*
X24619Y-30253D01*
X24745Y-30379D01*
X24910Y-30448D01*
X25088Y-30448D01*
X25253Y-30380D01*
X25379Y-30254D01*
X25448Y-30089D01*
X25448Y-29911D01*
X25448Y-30801D01*
X24448Y-30801D01*
X24448Y-29911D01*
X24380Y-29746D01*
X24254Y-29620D01*
X24089Y-29551D01*
X23911Y-29551D01*
X23746Y-29619D01*
X23620Y-29745D01*
X23551Y-29910D01*
X23551Y-30088D01*
X23619Y-30253D01*
X23745Y-30379D01*
X23910Y-30448D01*
X24088Y-30448D01*
X24253Y-30380D01*
X24379Y-30254D01*
X24448Y-30089D01*
X24448Y-29911D01*
X24448Y-30801D01*
X23448Y-30801D01*
X23448Y-29911D01*
X23380Y-29746D01*
X23254Y-29620D01*
X23089Y-29551D01*
X23059Y-29551D01*
X23059Y-27002D01*
X23010Y-26883D01*
X22919Y-26792D01*
X22800Y-26743D01*
X22672Y-26743D01*
X22553Y-26792D01*
X22477Y-26868D01*
X22342Y-26868D01*
X22266Y-26883D01*
X22202Y-26926D01*
X22202Y-26926D01*
X21808Y-27320D01*
X21765Y-27384D01*
X21750Y-27460D01*
X21750Y-27576D01*
X21694Y-27576D01*
X21639Y-27598D01*
X21598Y-27640D01*
X21575Y-27694D01*
X21575Y-27754D01*
X21575Y-28004D01*
X21597Y-28058D01*
X21639Y-28100D01*
X21694Y-28123D01*
X21753Y-28123D01*
X22203Y-28123D01*
X22257Y-28100D01*
X22299Y-28058D01*
X22322Y-28004D01*
X22322Y-27945D01*
X22322Y-27695D01*
X22299Y-27640D01*
X22258Y-27598D01*
X22203Y-27576D01*
X22147Y-27576D01*
X22147Y-27542D01*
X22424Y-27265D01*
X22477Y-27265D01*
X22552Y-27340D01*
X22671Y-27390D01*
X22800Y-27390D01*
X22919Y-27341D01*
X23010Y-27250D01*
X23059Y-27131D01*
X23059Y-27002D01*
X23059Y-29551D01*
X22911Y-29551D01*
X22746Y-29619D01*
X22620Y-29745D01*
X22551Y-29910D01*
X22551Y-30088D01*
X22619Y-30253D01*
X22745Y-30379D01*
X22910Y-30448D01*
X23088Y-30448D01*
X23253Y-30380D01*
X23379Y-30254D01*
X23448Y-30089D01*
X23448Y-29911D01*
X23448Y-30801D01*
X22448Y-30801D01*
X22448Y-30270D01*
X22448Y-29670D01*
X22425Y-29616D01*
X22384Y-29574D01*
X22329Y-29551D01*
X22270Y-29551D01*
X22147Y-29551D01*
X22147Y-28723D01*
X22203Y-28723D01*
X22257Y-28700D01*
X22299Y-28658D01*
X22322Y-28604D01*
X22322Y-28545D01*
X22322Y-28295D01*
X22299Y-28240D01*
X22258Y-28198D01*
X22203Y-28176D01*
X22144Y-28176D01*
X21694Y-28176D01*
X21639Y-28198D01*
X21598Y-28240D01*
X21593Y-28251D01*
X21439Y-28251D01*
X21439Y-28190D01*
X21417Y-28135D01*
X21375Y-28094D01*
X21320Y-28071D01*
X21261Y-28071D01*
X21011Y-28071D01*
X20957Y-28093D01*
X20921Y-28129D01*
X20900Y-28079D01*
X20830Y-28010D01*
X20740Y-27972D01*
X20676Y-27973D01*
X20614Y-28034D01*
X20614Y-28396D01*
X20622Y-28396D01*
X20622Y-28493D01*
X20614Y-28493D01*
X20614Y-28855D01*
X20676Y-28916D01*
X20740Y-28916D01*
X20830Y-28879D01*
X20900Y-28809D01*
X20921Y-28759D01*
X20956Y-28795D01*
X21011Y-28818D01*
X21070Y-28818D01*
X21320Y-28818D01*
X21375Y-28795D01*
X21416Y-28754D01*
X21439Y-28699D01*
X21439Y-28648D01*
X21593Y-28648D01*
X21597Y-28658D01*
X21639Y-28700D01*
X21694Y-28723D01*
X21750Y-28723D01*
X21750Y-29551D01*
X21670Y-29551D01*
X21616Y-29574D01*
X21574Y-29615D01*
X21551Y-29670D01*
X21551Y-29729D01*
X21551Y-30329D01*
X21574Y-30383D01*
X21615Y-30425D01*
X21670Y-30448D01*
X21729Y-30448D01*
X22329Y-30448D01*
X22383Y-30425D01*
X22425Y-30384D01*
X22448Y-30329D01*
X22448Y-30270D01*
X22448Y-30801D01*
X20517Y-30801D01*
X20517Y-28855D01*
X20517Y-28493D01*
X20517Y-28396D01*
X20517Y-28034D01*
X20456Y-27973D01*
X20392Y-27972D01*
X20301Y-28010D01*
X20231Y-28079D01*
X20194Y-28170D01*
X20194Y-28268D01*
X20194Y-28334D01*
X20256Y-28396D01*
X20517Y-28396D01*
X20517Y-28493D01*
X20256Y-28493D01*
X20194Y-28555D01*
X20194Y-28620D01*
X20194Y-28719D01*
X20231Y-28809D01*
X20301Y-28879D01*
X20392Y-28916D01*
X20456Y-28916D01*
X20517Y-28855D01*
X20517Y-30801D01*
X20448Y-30801D01*
X20448Y-29911D01*
X20380Y-29746D01*
X20254Y-29620D01*
X20089Y-29551D01*
X19911Y-29551D01*
X19746Y-29619D01*
X19620Y-29745D01*
X19551Y-29910D01*
X19551Y-30088D01*
X19619Y-30253D01*
X19745Y-30379D01*
X19910Y-30448D01*
X20088Y-30448D01*
X20253Y-30380D01*
X20379Y-30254D01*
X20448Y-30089D01*
X20448Y-29911D01*
X20448Y-30801D01*
X19551Y-30801D01*
X19551Y-30082D01*
X19541Y-29865D01*
X19477Y-29712D01*
X19383Y-29685D01*
X19314Y-29753D01*
X19314Y-29616D01*
X19287Y-29522D01*
X19082Y-29448D01*
X18865Y-29458D01*
X18712Y-29522D01*
X18685Y-29616D01*
X19000Y-29931D01*
X19314Y-29616D01*
X19314Y-29753D01*
X19068Y-30000D01*
X19383Y-30314D01*
X19477Y-30287D01*
X19551Y-30082D01*
X19551Y-30801D01*
X19314Y-30801D01*
X19314Y-30383D01*
X19000Y-30068D01*
X18931Y-30136D01*
X18931Y-30000D01*
X18616Y-29685D01*
X18522Y-29712D01*
X18501Y-29769D01*
X18477Y-29712D01*
X18383Y-29685D01*
X18314Y-29753D01*
X18314Y-29616D01*
X18287Y-29522D01*
X18082Y-29448D01*
X17865Y-29458D01*
X17712Y-29522D01*
X17685Y-29616D01*
X18000Y-29931D01*
X18314Y-29616D01*
X18314Y-29753D01*
X18068Y-30000D01*
X18383Y-30314D01*
X18477Y-30287D01*
X18498Y-30230D01*
X18522Y-30287D01*
X18616Y-30314D01*
X18931Y-30000D01*
X18931Y-30136D01*
X18685Y-30383D01*
X18712Y-30477D01*
X18917Y-30551D01*
X19134Y-30541D01*
X19287Y-30477D01*
X19314Y-30383D01*
X19314Y-30801D01*
X18314Y-30801D01*
X18314Y-30383D01*
X18000Y-30068D01*
X17931Y-30136D01*
X17931Y-30000D01*
X17616Y-29685D01*
X17522Y-29712D01*
X17448Y-29917D01*
X17458Y-30134D01*
X17522Y-30287D01*
X17616Y-30314D01*
X17931Y-30000D01*
X17931Y-30136D01*
X17685Y-30383D01*
X17712Y-30477D01*
X17917Y-30551D01*
X18134Y-30541D01*
X18287Y-30477D01*
X18314Y-30383D01*
X18314Y-30801D01*
X15448Y-30801D01*
X15448Y-30270D01*
X15448Y-29670D01*
X15425Y-29616D01*
X15384Y-29574D01*
X15329Y-29551D01*
X15270Y-29551D01*
X14670Y-29551D01*
X14616Y-29574D01*
X14574Y-29615D01*
X14551Y-29670D01*
X14551Y-29729D01*
X14551Y-30329D01*
X14574Y-30383D01*
X14615Y-30425D01*
X14670Y-30448D01*
X14729Y-30448D01*
X15329Y-30448D01*
X15383Y-30425D01*
X15425Y-30384D01*
X15448Y-30329D01*
X15448Y-30270D01*
X15448Y-30801D01*
X12021Y-30801D01*
X12021Y-21525D01*
X12021Y-21291D01*
X11959Y-21229D01*
X11232Y-21229D01*
X11232Y-21661D01*
X11294Y-21723D01*
X11725Y-21723D01*
X11823Y-21723D01*
X11914Y-21685D01*
X11983Y-21616D01*
X12021Y-21525D01*
X12021Y-30801D01*
X11135Y-30801D01*
X11135Y-21661D01*
X11135Y-21229D01*
X10408Y-21229D01*
X10346Y-21291D01*
X10346Y-21525D01*
X10384Y-21616D01*
X10453Y-21685D01*
X10544Y-21723D01*
X10642Y-21723D01*
X11073Y-21723D01*
X11135Y-21661D01*
X11135Y-30801D01*
X10420Y-30801D01*
X10324Y-30782D01*
X10260Y-30740D01*
X10217Y-30675D01*
X10198Y-30580D01*
X10198Y-10419D01*
X10217Y-10324D01*
X10260Y-10259D01*
X10324Y-10217D01*
X10420Y-10198D01*
X27317Y-10198D01*
X27801Y-10682D01*
X27801Y-15100D01*
X27816Y-15175D01*
X27859Y-15240D01*
X28801Y-16182D01*
X28801Y-28917D01*
X28801Y-28917D01*
G37*
G54D24*
X28801Y-28917D02*
X28593Y-29125D01*
X28593Y-22391D01*
X28593Y-21702D01*
X28593Y-18650D01*
X28593Y-17962D01*
X28555Y-17871D01*
X28486Y-17801D01*
X28395Y-17764D01*
X28297Y-17764D01*
X27866Y-17764D01*
X27804Y-17825D01*
X27804Y-18258D01*
X28531Y-18258D01*
X28593Y-18196D01*
X28593Y-17962D01*
X28593Y-18650D01*
X28593Y-18416D01*
X28531Y-18354D01*
X27804Y-18354D01*
X27804Y-18362D01*
X27707Y-18362D01*
X27707Y-18354D01*
X27707Y-18258D01*
X27707Y-17825D01*
X27645Y-17764D01*
X27448Y-17764D01*
X27448Y-11270D01*
X27448Y-10670D01*
X27425Y-10616D01*
X27384Y-10574D01*
X27329Y-10551D01*
X27270Y-10551D01*
X26670Y-10551D01*
X26616Y-10574D01*
X26574Y-10615D01*
X26551Y-10670D01*
X26551Y-10729D01*
X26551Y-11329D01*
X26574Y-11383D01*
X26615Y-11425D01*
X26670Y-11448D01*
X26729Y-11448D01*
X27329Y-11448D01*
X27383Y-11425D01*
X27425Y-11384D01*
X27448Y-11329D01*
X27448Y-11270D01*
X27448Y-17764D01*
X27440Y-17764D01*
X27440Y-15425D01*
X27440Y-15077D01*
X27402Y-14986D01*
X27333Y-14917D01*
X27242Y-14879D01*
X27144Y-14879D01*
X27078Y-14879D01*
X27016Y-14941D01*
X27016Y-15202D01*
X27378Y-15202D01*
X27440Y-15141D01*
X27440Y-15077D01*
X27440Y-15425D01*
X27440Y-15361D01*
X27378Y-15299D01*
X27016Y-15299D01*
X27016Y-15307D01*
X26920Y-15307D01*
X26920Y-15299D01*
X26912Y-15299D01*
X26912Y-15202D01*
X26920Y-15202D01*
X26920Y-14941D01*
X26858Y-14879D01*
X26792Y-14879D01*
X26694Y-14879D01*
X26603Y-14917D01*
X26534Y-14986D01*
X26517Y-15027D01*
X26490Y-15000D01*
X26482Y-14997D01*
X26482Y-14725D01*
X26493Y-14720D01*
X26535Y-14679D01*
X26557Y-14624D01*
X26557Y-14565D01*
X26557Y-14115D01*
X26535Y-14061D01*
X26493Y-14019D01*
X26448Y-14000D01*
X26448Y-10911D01*
X26380Y-10746D01*
X26254Y-10620D01*
X26089Y-10551D01*
X25911Y-10551D01*
X25746Y-10619D01*
X25620Y-10745D01*
X25551Y-10910D01*
X25551Y-11088D01*
X25619Y-11253D01*
X25745Y-11379D01*
X25910Y-11448D01*
X26088Y-11448D01*
X26253Y-11380D01*
X26379Y-11254D01*
X26448Y-11089D01*
X26448Y-10911D01*
X26448Y-14000D01*
X26438Y-13996D01*
X26379Y-13996D01*
X26129Y-13996D01*
X26075Y-14019D01*
X26033Y-14060D01*
X26010Y-14115D01*
X26010Y-14174D01*
X26010Y-14624D01*
X26033Y-14679D01*
X26075Y-14720D01*
X26085Y-14725D01*
X26085Y-14977D01*
X25957Y-14977D01*
X25957Y-14565D01*
X25957Y-14115D01*
X25935Y-14061D01*
X25893Y-14019D01*
X25838Y-13996D01*
X25779Y-13996D01*
X25529Y-13996D01*
X25475Y-14019D01*
X25448Y-14045D01*
X25448Y-10911D01*
X25380Y-10746D01*
X25254Y-10620D01*
X25089Y-10551D01*
X24911Y-10551D01*
X24746Y-10619D01*
X24620Y-10745D01*
X24551Y-10910D01*
X24551Y-11088D01*
X24619Y-11253D01*
X24745Y-11379D01*
X24910Y-11448D01*
X25088Y-11448D01*
X25253Y-11380D01*
X25379Y-11254D01*
X25448Y-11089D01*
X25448Y-10911D01*
X25448Y-14045D01*
X25433Y-14060D01*
X25410Y-14115D01*
X25410Y-14171D01*
X25179Y-14171D01*
X25179Y-14115D01*
X25157Y-14061D01*
X25115Y-14019D01*
X25104Y-14014D01*
X25104Y-13937D01*
X25115Y-13933D01*
X25157Y-13891D01*
X25179Y-13837D01*
X25179Y-13778D01*
X25179Y-13328D01*
X25157Y-13273D01*
X25115Y-13231D01*
X25060Y-13209D01*
X25001Y-13209D01*
X24751Y-13209D01*
X24697Y-13231D01*
X24655Y-13273D01*
X24632Y-13328D01*
X24632Y-13387D01*
X24632Y-13837D01*
X24655Y-13891D01*
X24697Y-13933D01*
X24707Y-13937D01*
X24707Y-14014D01*
X24697Y-14019D01*
X24655Y-14060D01*
X24632Y-14115D01*
X24632Y-14174D01*
X24632Y-14624D01*
X24655Y-14679D01*
X24697Y-14720D01*
X24751Y-14743D01*
X24810Y-14743D01*
X25060Y-14743D01*
X25115Y-14720D01*
X25157Y-14679D01*
X25179Y-14624D01*
X25179Y-14568D01*
X25410Y-14568D01*
X25410Y-14624D01*
X25433Y-14679D01*
X25475Y-14720D01*
X25529Y-14743D01*
X25588Y-14743D01*
X25838Y-14743D01*
X25893Y-14720D01*
X25935Y-14679D01*
X25957Y-14624D01*
X25957Y-14565D01*
X25957Y-14977D01*
X25926Y-14977D01*
X25872Y-15000D01*
X25830Y-15041D01*
X25807Y-15096D01*
X25807Y-15099D01*
X25760Y-15067D01*
X25754Y-15066D01*
X25744Y-15042D01*
X25702Y-15000D01*
X25648Y-14977D01*
X25589Y-14977D01*
X25139Y-14977D01*
X25084Y-15000D01*
X25042Y-15041D01*
X25020Y-15096D01*
X25020Y-15155D01*
X25020Y-15405D01*
X25042Y-15460D01*
X25084Y-15501D01*
X25139Y-15524D01*
X25198Y-15524D01*
X25588Y-15524D01*
X25588Y-15577D01*
X25139Y-15577D01*
X25084Y-15600D01*
X25042Y-15641D01*
X25020Y-15696D01*
X25020Y-15755D01*
X25020Y-16005D01*
X25042Y-16060D01*
X25084Y-16101D01*
X25139Y-16124D01*
X25195Y-16124D01*
X25195Y-16158D01*
X25139Y-16158D01*
X25084Y-16181D01*
X25042Y-16223D01*
X25020Y-16277D01*
X25020Y-16336D01*
X25020Y-16586D01*
X25042Y-16641D01*
X25078Y-16677D01*
X25028Y-16698D01*
X24979Y-16747D01*
X24979Y-16527D01*
X24979Y-16277D01*
X24957Y-16223D01*
X24915Y-16181D01*
X24860Y-16158D01*
X24804Y-16158D01*
X24804Y-16124D01*
X24860Y-16124D01*
X24915Y-16102D01*
X24957Y-16060D01*
X24979Y-16005D01*
X24979Y-15946D01*
X24979Y-15696D01*
X24979Y-15346D01*
X24979Y-15096D01*
X24957Y-15042D01*
X24915Y-15000D01*
X24860Y-14977D01*
X24801Y-14977D01*
X24579Y-14977D01*
X24579Y-14565D01*
X24579Y-14115D01*
X24579Y-13778D01*
X24579Y-13328D01*
X24557Y-13273D01*
X24515Y-13231D01*
X24460Y-13209D01*
X24401Y-13209D01*
X24213Y-13209D01*
X24198Y-13194D01*
X24198Y-11403D01*
X24253Y-11380D01*
X24379Y-11254D01*
X24448Y-11089D01*
X24448Y-10911D01*
X24380Y-10746D01*
X24254Y-10620D01*
X24089Y-10551D01*
X23911Y-10551D01*
X23746Y-10619D01*
X23620Y-10745D01*
X23551Y-10910D01*
X23551Y-11088D01*
X23619Y-11253D01*
X23745Y-11379D01*
X23801Y-11403D01*
X23801Y-13276D01*
X23816Y-13352D01*
X23859Y-13416D01*
X24032Y-13589D01*
X24032Y-13837D01*
X24055Y-13891D01*
X24097Y-13933D01*
X24151Y-13956D01*
X24210Y-13956D01*
X24460Y-13956D01*
X24515Y-13933D01*
X24557Y-13891D01*
X24579Y-13837D01*
X24579Y-13778D01*
X24579Y-14115D01*
X24557Y-14061D01*
X24515Y-14019D01*
X24460Y-13996D01*
X24401Y-13996D01*
X24151Y-13996D01*
X24097Y-14019D01*
X24055Y-14060D01*
X24032Y-14115D01*
X24032Y-14171D01*
X22326Y-14171D01*
X22245Y-14091D01*
X22245Y-14041D01*
X22257Y-14053D01*
X22376Y-14102D01*
X22504Y-14103D01*
X22623Y-14053D01*
X22714Y-13962D01*
X22764Y-13844D01*
X22764Y-13839D01*
X23038Y-13565D01*
X23285Y-13565D01*
X23340Y-13543D01*
X23382Y-13501D01*
X23404Y-13446D01*
X23404Y-13387D01*
X23404Y-13137D01*
X23382Y-13083D01*
X23340Y-13041D01*
X23286Y-13018D01*
X23227Y-13018D01*
X22777Y-13018D01*
X22722Y-13041D01*
X22680Y-13082D01*
X22658Y-13137D01*
X22658Y-13196D01*
X22658Y-13384D01*
X22562Y-13480D01*
X22505Y-13456D01*
X22376Y-13456D01*
X22257Y-13505D01*
X22245Y-13517D01*
X22245Y-13365D01*
X22251Y-13365D01*
X22501Y-13365D01*
X22556Y-13343D01*
X22597Y-13301D01*
X22620Y-13246D01*
X22620Y-13187D01*
X22620Y-12999D01*
X22699Y-12920D01*
X22722Y-12942D01*
X22776Y-12965D01*
X22835Y-12965D01*
X23285Y-12965D01*
X23340Y-12943D01*
X23382Y-12901D01*
X23404Y-12846D01*
X23404Y-12787D01*
X23404Y-12537D01*
X23382Y-12483D01*
X23340Y-12441D01*
X23286Y-12418D01*
X23227Y-12418D01*
X23198Y-12418D01*
X23198Y-11403D01*
X23253Y-11380D01*
X23379Y-11254D01*
X23448Y-11089D01*
X23448Y-10911D01*
X23380Y-10746D01*
X23254Y-10620D01*
X23089Y-10551D01*
X22911Y-10551D01*
X22746Y-10619D01*
X22620Y-10745D01*
X22551Y-10910D01*
X22551Y-11088D01*
X22619Y-11253D01*
X22745Y-11379D01*
X22801Y-11403D01*
X22801Y-12418D01*
X22777Y-12418D01*
X22722Y-12441D01*
X22701Y-12462D01*
X22678Y-12462D01*
X22678Y-12462D01*
X22663Y-12465D01*
X22602Y-12477D01*
X22538Y-12520D01*
X22538Y-12520D01*
X22440Y-12618D01*
X22245Y-12618D01*
X22245Y-11383D01*
X22253Y-11380D01*
X22379Y-11254D01*
X22448Y-11089D01*
X22448Y-10911D01*
X22380Y-10746D01*
X22254Y-10620D01*
X22089Y-10551D01*
X21911Y-10551D01*
X21746Y-10619D01*
X21620Y-10745D01*
X21551Y-10910D01*
X21551Y-11088D01*
X21619Y-11253D01*
X21745Y-11379D01*
X21848Y-11422D01*
X21848Y-12528D01*
X21795Y-12581D01*
X21795Y-12943D01*
X21803Y-12943D01*
X21803Y-13040D01*
X21795Y-13040D01*
X21795Y-13402D01*
X21848Y-13455D01*
X21848Y-14173D01*
X21863Y-14249D01*
X21906Y-14313D01*
X22103Y-14510D01*
X22103Y-14510D01*
X22168Y-14553D01*
X22168Y-14553D01*
X22228Y-14565D01*
X22244Y-14568D01*
X22244Y-14568D01*
X22244Y-14568D01*
X24032Y-14568D01*
X24032Y-14624D01*
X24055Y-14679D01*
X24097Y-14720D01*
X24151Y-14743D01*
X24210Y-14743D01*
X24460Y-14743D01*
X24515Y-14720D01*
X24557Y-14679D01*
X24579Y-14624D01*
X24579Y-14565D01*
X24579Y-14977D01*
X24351Y-14977D01*
X24297Y-15000D01*
X24255Y-15041D01*
X24251Y-15052D01*
X24174Y-15052D01*
X24169Y-15042D01*
X24128Y-15000D01*
X24073Y-14977D01*
X24014Y-14977D01*
X23564Y-14977D01*
X23509Y-15000D01*
X23468Y-15041D01*
X23445Y-15096D01*
X23445Y-15155D01*
X23445Y-15405D01*
X23467Y-15460D01*
X23509Y-15501D01*
X23564Y-15524D01*
X23623Y-15524D01*
X24073Y-15524D01*
X24127Y-15502D01*
X24169Y-15460D01*
X24174Y-15449D01*
X24251Y-15449D01*
X24255Y-15460D01*
X24297Y-15501D01*
X24351Y-15524D01*
X24410Y-15524D01*
X24860Y-15524D01*
X24915Y-15502D01*
X24957Y-15460D01*
X24979Y-15405D01*
X24979Y-15346D01*
X24979Y-15696D01*
X24957Y-15642D01*
X24915Y-15600D01*
X24860Y-15577D01*
X24801Y-15577D01*
X24351Y-15577D01*
X24297Y-15600D01*
X24255Y-15641D01*
X24232Y-15696D01*
X24232Y-15755D01*
X24232Y-16005D01*
X24255Y-16060D01*
X24297Y-16101D01*
X24351Y-16124D01*
X24407Y-16124D01*
X24407Y-16158D01*
X24351Y-16158D01*
X24297Y-16181D01*
X24255Y-16223D01*
X24232Y-16277D01*
X24232Y-16336D01*
X24232Y-16586D01*
X24255Y-16641D01*
X24297Y-16683D01*
X24351Y-16705D01*
X24410Y-16705D01*
X24860Y-16705D01*
X24915Y-16683D01*
X24957Y-16641D01*
X24979Y-16586D01*
X24979Y-16527D01*
X24979Y-16747D01*
X24959Y-16767D01*
X24942Y-16808D01*
X24915Y-16781D01*
X24860Y-16758D01*
X24801Y-16758D01*
X24351Y-16758D01*
X24297Y-16781D01*
X24255Y-16823D01*
X24246Y-16845D01*
X24230Y-16848D01*
X24192Y-16874D01*
X24192Y-15946D01*
X24192Y-15696D01*
X24169Y-15642D01*
X24128Y-15600D01*
X24073Y-15577D01*
X24014Y-15577D01*
X23564Y-15577D01*
X23509Y-15600D01*
X23468Y-15641D01*
X23445Y-15696D01*
X23445Y-15755D01*
X23445Y-16005D01*
X23467Y-16060D01*
X23509Y-16101D01*
X23564Y-16124D01*
X23623Y-16124D01*
X23625Y-16124D01*
X23625Y-16278D01*
X23614Y-16282D01*
X23572Y-16324D01*
X23550Y-16379D01*
X23550Y-16438D01*
X23550Y-16888D01*
X23572Y-16942D01*
X23614Y-16984D01*
X23668Y-17007D01*
X23728Y-17007D01*
X23978Y-17007D01*
X24032Y-16984D01*
X24074Y-16943D01*
X24097Y-16888D01*
X24097Y-16829D01*
X24097Y-16379D01*
X24074Y-16324D01*
X24032Y-16283D01*
X24022Y-16278D01*
X24022Y-16124D01*
X24073Y-16124D01*
X24127Y-16102D01*
X24169Y-16060D01*
X24192Y-16005D01*
X24192Y-15946D01*
X24192Y-16874D01*
X24165Y-16891D01*
X24067Y-16990D01*
X24024Y-17054D01*
X24009Y-17130D01*
X24009Y-17558D01*
X23998Y-17562D01*
X23957Y-17604D01*
X23934Y-17658D01*
X23934Y-17717D01*
X23934Y-18167D01*
X23956Y-18222D01*
X23998Y-18264D01*
X24053Y-18286D01*
X24112Y-18286D01*
X24362Y-18286D01*
X24416Y-18264D01*
X24458Y-18222D01*
X24481Y-18168D01*
X24481Y-18108D01*
X24481Y-17658D01*
X24458Y-17604D01*
X24417Y-17562D01*
X24406Y-17558D01*
X24406Y-17305D01*
X24410Y-17305D01*
X24860Y-17305D01*
X24915Y-17283D01*
X24942Y-17256D01*
X24959Y-17296D01*
X25028Y-17366D01*
X25119Y-17404D01*
X25217Y-17404D01*
X25283Y-17404D01*
X25345Y-17342D01*
X25345Y-17080D01*
X25337Y-17080D01*
X25337Y-16983D01*
X25345Y-16983D01*
X25345Y-16975D01*
X25442Y-16975D01*
X25442Y-16983D01*
X25450Y-16983D01*
X25450Y-17080D01*
X25442Y-17080D01*
X25442Y-17342D01*
X25503Y-17404D01*
X25569Y-17404D01*
X25668Y-17404D01*
X25758Y-17366D01*
X25828Y-17296D01*
X25844Y-17256D01*
X25871Y-17283D01*
X25926Y-17305D01*
X25982Y-17305D01*
X25982Y-17634D01*
X25902Y-17714D01*
X25081Y-17714D01*
X25081Y-17658D01*
X25058Y-17604D01*
X25017Y-17562D01*
X24962Y-17539D01*
X24903Y-17539D01*
X24653Y-17539D01*
X24598Y-17562D01*
X24557Y-17604D01*
X24534Y-17658D01*
X24534Y-17717D01*
X24534Y-18167D01*
X24556Y-18222D01*
X24598Y-18264D01*
X24653Y-18286D01*
X24712Y-18286D01*
X24962Y-18286D01*
X25016Y-18264D01*
X25058Y-18222D01*
X25081Y-18168D01*
X25081Y-18111D01*
X25984Y-18111D01*
X26060Y-18096D01*
X26060Y-18096D01*
X26124Y-18053D01*
X26321Y-17856D01*
X26321Y-17856D01*
X26321Y-17856D01*
X26364Y-17792D01*
X26364Y-17792D01*
X26376Y-17731D01*
X26379Y-17716D01*
X26379Y-17716D01*
X26379Y-17716D01*
X26379Y-17305D01*
X26435Y-17305D01*
X26490Y-17283D01*
X26531Y-17241D01*
X26554Y-17186D01*
X26554Y-17127D01*
X26554Y-16877D01*
X26532Y-16823D01*
X26490Y-16781D01*
X26435Y-16758D01*
X26376Y-16758D01*
X25926Y-16758D01*
X25872Y-16781D01*
X25844Y-16808D01*
X25828Y-16767D01*
X25758Y-16698D01*
X25708Y-16677D01*
X25744Y-16641D01*
X25748Y-16630D01*
X25825Y-16630D01*
X25830Y-16641D01*
X25871Y-16683D01*
X25926Y-16705D01*
X25985Y-16705D01*
X26435Y-16705D01*
X26490Y-16683D01*
X26531Y-16641D01*
X26554Y-16586D01*
X26554Y-16527D01*
X26554Y-16277D01*
X26532Y-16223D01*
X26490Y-16181D01*
X26435Y-16158D01*
X26376Y-16158D01*
X25926Y-16158D01*
X25872Y-16181D01*
X25830Y-16223D01*
X25825Y-16233D01*
X25748Y-16233D01*
X25744Y-16223D01*
X25702Y-16181D01*
X25648Y-16158D01*
X25592Y-16158D01*
X25592Y-16124D01*
X25648Y-16124D01*
X25702Y-16102D01*
X25744Y-16060D01*
X25767Y-16005D01*
X25767Y-16002D01*
X25814Y-16034D01*
X25814Y-16034D01*
X25820Y-16035D01*
X25830Y-16060D01*
X25871Y-16101D01*
X25926Y-16124D01*
X25985Y-16124D01*
X26435Y-16124D01*
X26490Y-16102D01*
X26531Y-16060D01*
X26536Y-16049D01*
X26613Y-16049D01*
X26617Y-16060D01*
X26659Y-16101D01*
X26713Y-16124D01*
X26772Y-16124D01*
X27222Y-16124D01*
X27277Y-16102D01*
X27319Y-16060D01*
X27341Y-16005D01*
X27341Y-15946D01*
X27341Y-15696D01*
X27319Y-15642D01*
X27283Y-15606D01*
X27333Y-15585D01*
X27402Y-15515D01*
X27440Y-15425D01*
X27440Y-17764D01*
X27214Y-17764D01*
X27116Y-17764D01*
X27025Y-17801D01*
X26956Y-17871D01*
X26918Y-17962D01*
X26918Y-18196D01*
X26980Y-18258D01*
X27707Y-18258D01*
X27707Y-18354D01*
X26980Y-18354D01*
X26918Y-18416D01*
X26918Y-18650D01*
X26956Y-18741D01*
X27025Y-18811D01*
X27093Y-18839D01*
X27036Y-18924D01*
X27002Y-19094D01*
X27036Y-19264D01*
X27132Y-19408D01*
X27251Y-19487D01*
X27132Y-19567D01*
X27036Y-19711D01*
X27002Y-19881D01*
X27036Y-20051D01*
X27132Y-20195D01*
X27276Y-20291D01*
X27446Y-20325D01*
X27504Y-20325D01*
X27358Y-20470D01*
X23497Y-20470D01*
X23497Y-16829D01*
X23497Y-16379D01*
X23474Y-16324D01*
X23432Y-16283D01*
X23422Y-16278D01*
X23422Y-15448D01*
X23422Y-15448D01*
X23422Y-15448D01*
X23419Y-15432D01*
X23406Y-15372D01*
X23406Y-15372D01*
X23363Y-15307D01*
X23363Y-15307D01*
X23208Y-15151D01*
X23208Y-15096D01*
X23185Y-15042D01*
X23143Y-15000D01*
X23089Y-14977D01*
X23030Y-14977D01*
X22580Y-14977D01*
X22525Y-15000D01*
X22483Y-15041D01*
X22479Y-15052D01*
X22402Y-15052D01*
X22398Y-15042D01*
X22356Y-15000D01*
X22301Y-14977D01*
X22242Y-14977D01*
X22037Y-14977D01*
X22023Y-14967D01*
X21947Y-14952D01*
X21698Y-14952D01*
X21698Y-13402D01*
X21698Y-13040D01*
X21437Y-13040D01*
X21404Y-13073D01*
X21372Y-13041D01*
X21317Y-13018D01*
X21258Y-13018D01*
X20808Y-13018D01*
X20754Y-13041D01*
X20712Y-13082D01*
X20689Y-13137D01*
X20689Y-13196D01*
X20689Y-13446D01*
X20705Y-13485D01*
X20635Y-13456D01*
X20528Y-13456D01*
X20353Y-13281D01*
X20353Y-13190D01*
X20472Y-13190D01*
X20548Y-13175D01*
X20548Y-13175D01*
X20612Y-13132D01*
X20788Y-12957D01*
X20808Y-12965D01*
X20867Y-12965D01*
X21317Y-12965D01*
X21371Y-12943D01*
X21404Y-12910D01*
X21437Y-12943D01*
X21698Y-12943D01*
X21698Y-12581D01*
X21637Y-12520D01*
X21573Y-12520D01*
X21482Y-12557D01*
X21436Y-12603D01*
X21436Y-12537D01*
X21413Y-12483D01*
X21372Y-12441D01*
X21317Y-12418D01*
X21261Y-12418D01*
X21261Y-11372D01*
X21379Y-11254D01*
X21448Y-11089D01*
X21448Y-10911D01*
X21380Y-10746D01*
X21254Y-10620D01*
X21089Y-10551D01*
X20911Y-10551D01*
X20746Y-10619D01*
X20620Y-10745D01*
X20551Y-10910D01*
X20551Y-11088D01*
X20619Y-11253D01*
X20745Y-11379D01*
X20864Y-11429D01*
X20864Y-12418D01*
X20808Y-12418D01*
X20754Y-12441D01*
X20712Y-12482D01*
X20701Y-12507D01*
X20696Y-12508D01*
X20632Y-12551D01*
X20632Y-12551D01*
X20390Y-12793D01*
X20353Y-12793D01*
X20353Y-12787D01*
X20353Y-12537D01*
X20331Y-12483D01*
X20289Y-12441D01*
X20234Y-12418D01*
X20178Y-12418D01*
X20178Y-12401D01*
X20178Y-11411D01*
X20253Y-11380D01*
X20379Y-11254D01*
X20448Y-11089D01*
X20448Y-10911D01*
X20380Y-10746D01*
X20254Y-10620D01*
X20089Y-10551D01*
X19911Y-10551D01*
X19746Y-10619D01*
X19620Y-10745D01*
X19551Y-10910D01*
X19551Y-11088D01*
X19619Y-11253D01*
X19745Y-11379D01*
X19781Y-11394D01*
X19781Y-12203D01*
X19274Y-12203D01*
X19274Y-12147D01*
X19251Y-12092D01*
X19209Y-12050D01*
X19155Y-12028D01*
X19096Y-12028D01*
X18848Y-12028D01*
X18848Y-11270D01*
X18848Y-10670D01*
X18825Y-10616D01*
X18784Y-10574D01*
X18729Y-10551D01*
X18670Y-10551D01*
X18070Y-10551D01*
X18016Y-10574D01*
X17974Y-10615D01*
X17951Y-10670D01*
X17951Y-10729D01*
X17951Y-11329D01*
X17974Y-11383D01*
X18015Y-11425D01*
X18070Y-11448D01*
X18129Y-11448D01*
X18201Y-11448D01*
X18201Y-11537D01*
X17929Y-11809D01*
X17848Y-11809D01*
X17848Y-10911D01*
X17780Y-10746D01*
X17654Y-10620D01*
X17489Y-10551D01*
X17311Y-10551D01*
X17146Y-10619D01*
X17020Y-10745D01*
X16951Y-10910D01*
X16951Y-11088D01*
X17019Y-11253D01*
X17145Y-11379D01*
X17310Y-11448D01*
X17488Y-11448D01*
X17653Y-11380D01*
X17779Y-11254D01*
X17848Y-11089D01*
X17848Y-10911D01*
X17848Y-11809D01*
X17404Y-11809D01*
X17404Y-11753D01*
X17381Y-11698D01*
X17339Y-11657D01*
X17285Y-11634D01*
X17226Y-11634D01*
X16976Y-11634D01*
X16921Y-11656D01*
X16879Y-11698D01*
X16857Y-11753D01*
X16857Y-11812D01*
X16857Y-12262D01*
X16879Y-12316D01*
X16921Y-12358D01*
X16932Y-12363D01*
X16932Y-12440D01*
X16921Y-12444D01*
X16885Y-12480D01*
X16864Y-12430D01*
X16848Y-12413D01*
X16848Y-10911D01*
X16780Y-10746D01*
X16654Y-10620D01*
X16489Y-10551D01*
X16311Y-10551D01*
X16146Y-10619D01*
X16020Y-10745D01*
X15951Y-10910D01*
X15951Y-11088D01*
X16019Y-11253D01*
X16145Y-11379D01*
X16310Y-11448D01*
X16488Y-11448D01*
X16653Y-11380D01*
X16779Y-11254D01*
X16848Y-11089D01*
X16848Y-10911D01*
X16848Y-12413D01*
X16795Y-12360D01*
X16754Y-12343D01*
X16781Y-12317D01*
X16804Y-12262D01*
X16804Y-12203D01*
X16804Y-11753D01*
X16781Y-11698D01*
X16739Y-11657D01*
X16685Y-11634D01*
X16626Y-11634D01*
X16376Y-11634D01*
X16321Y-11656D01*
X16279Y-11698D01*
X16257Y-11753D01*
X16257Y-11809D01*
X15848Y-11809D01*
X15848Y-10911D01*
X15780Y-10746D01*
X15654Y-10620D01*
X15489Y-10551D01*
X15311Y-10551D01*
X15146Y-10619D01*
X15020Y-10745D01*
X14951Y-10910D01*
X14951Y-11088D01*
X15019Y-11253D01*
X15145Y-11379D01*
X15310Y-11448D01*
X15488Y-11448D01*
X15653Y-11380D01*
X15779Y-11254D01*
X15848Y-11089D01*
X15848Y-10911D01*
X15848Y-11809D01*
X15436Y-11809D01*
X15436Y-11809D01*
X15421Y-11812D01*
X15380Y-11820D01*
X15353Y-11781D01*
X15209Y-11684D01*
X15039Y-11651D01*
X14870Y-11684D01*
X14848Y-11699D01*
X14848Y-10911D01*
X14780Y-10746D01*
X14654Y-10620D01*
X14489Y-10551D01*
X14311Y-10551D01*
X14146Y-10619D01*
X14020Y-10745D01*
X13951Y-10910D01*
X13951Y-11088D01*
X14019Y-11253D01*
X14145Y-11379D01*
X14310Y-11448D01*
X14488Y-11448D01*
X14653Y-11380D01*
X14779Y-11254D01*
X14848Y-11089D01*
X14848Y-10911D01*
X14848Y-11699D01*
X14784Y-11741D01*
X14756Y-11674D01*
X14687Y-11604D01*
X14596Y-11567D01*
X14362Y-11567D01*
X14300Y-11628D01*
X14300Y-12356D01*
X14308Y-12356D01*
X14308Y-12453D01*
X14300Y-12453D01*
X14300Y-13180D01*
X14362Y-13241D01*
X14596Y-13241D01*
X14687Y-13204D01*
X14756Y-13135D01*
X14784Y-13067D01*
X14870Y-13124D01*
X15039Y-13157D01*
X15209Y-13124D01*
X15353Y-13027D01*
X15450Y-12883D01*
X15483Y-12714D01*
X15483Y-12241D01*
X15518Y-12206D01*
X16257Y-12206D01*
X16257Y-12262D01*
X16279Y-12316D01*
X16306Y-12344D01*
X16266Y-12360D01*
X16196Y-12430D01*
X16158Y-12520D01*
X16158Y-12619D01*
X16158Y-12685D01*
X16220Y-12746D01*
X16482Y-12746D01*
X16482Y-12738D01*
X16579Y-12738D01*
X16579Y-12746D01*
X16587Y-12746D01*
X16587Y-12843D01*
X16579Y-12843D01*
X16579Y-13205D01*
X16640Y-13267D01*
X16704Y-13267D01*
X16795Y-13229D01*
X16864Y-13160D01*
X16885Y-13110D01*
X16921Y-13146D01*
X16976Y-13168D01*
X17035Y-13168D01*
X17285Y-13168D01*
X17339Y-13146D01*
X17381Y-13104D01*
X17404Y-13049D01*
X17404Y-12990D01*
X17404Y-12540D01*
X17381Y-12486D01*
X17339Y-12444D01*
X17329Y-12440D01*
X17329Y-12363D01*
X17339Y-12358D01*
X17381Y-12317D01*
X17404Y-12262D01*
X17404Y-12206D01*
X18011Y-12206D01*
X18028Y-12202D01*
X18028Y-12225D01*
X18028Y-12291D01*
X18090Y-12353D01*
X18352Y-12353D01*
X18352Y-11991D01*
X18330Y-11969D01*
X18540Y-11759D01*
X18540Y-11759D01*
X18540Y-11759D01*
X18583Y-11695D01*
X18583Y-11695D01*
X18598Y-11619D01*
X18598Y-11448D01*
X18729Y-11448D01*
X18783Y-11425D01*
X18825Y-11384D01*
X18848Y-11329D01*
X18848Y-11270D01*
X18848Y-12028D01*
X18846Y-12028D01*
X18791Y-12050D01*
X18755Y-12086D01*
X18734Y-12036D01*
X18665Y-11967D01*
X18574Y-11929D01*
X18510Y-11929D01*
X18449Y-11991D01*
X18449Y-12353D01*
X18457Y-12353D01*
X18457Y-12450D01*
X18449Y-12450D01*
X18449Y-12680D01*
X18449Y-12811D01*
X18449Y-13042D01*
X18457Y-13042D01*
X18457Y-13138D01*
X18449Y-13138D01*
X18449Y-13500D01*
X18510Y-13562D01*
X18574Y-13562D01*
X18665Y-13524D01*
X18734Y-13455D01*
X18755Y-13405D01*
X18791Y-13441D01*
X18846Y-13463D01*
X18905Y-13464D01*
X19155Y-13464D01*
X19209Y-13441D01*
X19251Y-13399D01*
X19274Y-13345D01*
X19274Y-13286D01*
X19274Y-13190D01*
X19606Y-13190D01*
X19606Y-13196D01*
X19606Y-13446D01*
X19629Y-13501D01*
X19671Y-13542D01*
X19725Y-13565D01*
X19784Y-13565D01*
X20076Y-13565D01*
X20247Y-13736D01*
X20247Y-13843D01*
X20296Y-13962D01*
X20387Y-14053D01*
X20506Y-14102D01*
X20634Y-14103D01*
X20753Y-14053D01*
X20844Y-13962D01*
X20894Y-13844D01*
X20894Y-13715D01*
X20845Y-13596D01*
X20814Y-13565D01*
X20867Y-13565D01*
X20883Y-13565D01*
X20922Y-13624D01*
X21034Y-13736D01*
X21034Y-13843D01*
X21083Y-13962D01*
X21174Y-14053D01*
X21293Y-14102D01*
X21422Y-14103D01*
X21541Y-14053D01*
X21632Y-13962D01*
X21681Y-13844D01*
X21681Y-13715D01*
X21632Y-13596D01*
X21541Y-13505D01*
X21431Y-13459D01*
X21436Y-13446D01*
X21436Y-13387D01*
X21436Y-13380D01*
X21482Y-13426D01*
X21573Y-13464D01*
X21637Y-13463D01*
X21698Y-13402D01*
X21698Y-14952D01*
X21544Y-14952D01*
X21544Y-14941D01*
X21522Y-14887D01*
X21480Y-14845D01*
X21425Y-14822D01*
X21366Y-14822D01*
X21006Y-14822D01*
X20952Y-14845D01*
X20923Y-14874D01*
X20905Y-14831D01*
X20835Y-14761D01*
X20745Y-14724D01*
X20626Y-14724D01*
X20564Y-14786D01*
X20564Y-15102D01*
X20572Y-15102D01*
X20572Y-15199D01*
X20564Y-15199D01*
X20564Y-15516D01*
X20626Y-15578D01*
X20745Y-15578D01*
X20835Y-15540D01*
X20905Y-15471D01*
X20923Y-15428D01*
X20951Y-15456D01*
X21006Y-15479D01*
X21065Y-15479D01*
X21425Y-15479D01*
X21480Y-15457D01*
X21521Y-15415D01*
X21544Y-15360D01*
X21544Y-15349D01*
X21673Y-15349D01*
X21673Y-15405D01*
X21696Y-15460D01*
X21738Y-15501D01*
X21792Y-15524D01*
X21851Y-15524D01*
X22301Y-15524D01*
X22356Y-15502D01*
X22397Y-15460D01*
X22402Y-15449D01*
X22479Y-15449D01*
X22483Y-15460D01*
X22525Y-15501D01*
X22579Y-15524D01*
X22639Y-15524D01*
X23019Y-15524D01*
X23025Y-15530D01*
X23025Y-15577D01*
X22580Y-15577D01*
X22525Y-15600D01*
X22483Y-15641D01*
X22479Y-15652D01*
X22402Y-15652D01*
X22398Y-15642D01*
X22356Y-15600D01*
X22301Y-15577D01*
X22242Y-15577D01*
X21792Y-15577D01*
X21738Y-15600D01*
X21696Y-15641D01*
X21673Y-15696D01*
X21673Y-15752D01*
X21194Y-15752D01*
X21194Y-15741D01*
X21172Y-15687D01*
X21130Y-15645D01*
X21075Y-15622D01*
X21016Y-15622D01*
X20656Y-15622D01*
X20602Y-15645D01*
X20560Y-15686D01*
X20537Y-15741D01*
X20537Y-15800D01*
X20537Y-16160D01*
X20560Y-16215D01*
X20601Y-16256D01*
X20656Y-16279D01*
X20715Y-16279D01*
X20821Y-16279D01*
X20967Y-16425D01*
X20967Y-16573D01*
X20957Y-16578D01*
X20915Y-16619D01*
X20892Y-16674D01*
X20892Y-16733D01*
X20892Y-17183D01*
X20915Y-17238D01*
X20956Y-17279D01*
X20967Y-17284D01*
X20967Y-17361D01*
X20957Y-17365D01*
X20915Y-17407D01*
X20892Y-17461D01*
X20892Y-17520D01*
X20892Y-17970D01*
X20915Y-18025D01*
X20956Y-18067D01*
X21011Y-18089D01*
X21070Y-18089D01*
X21320Y-18089D01*
X21375Y-18067D01*
X21416Y-18025D01*
X21439Y-17971D01*
X21439Y-17912D01*
X21439Y-17462D01*
X21417Y-17407D01*
X21375Y-17365D01*
X21364Y-17361D01*
X21364Y-17284D01*
X21375Y-17280D01*
X21416Y-17238D01*
X21439Y-17183D01*
X21439Y-17124D01*
X21439Y-16674D01*
X21417Y-16620D01*
X21375Y-16578D01*
X21364Y-16573D01*
X21364Y-16343D01*
X21364Y-16343D01*
X21364Y-16343D01*
X21361Y-16328D01*
X21349Y-16267D01*
X21349Y-16267D01*
X21306Y-16202D01*
X21306Y-16202D01*
X21253Y-16149D01*
X21947Y-16149D01*
X22023Y-16134D01*
X22023Y-16134D01*
X22037Y-16124D01*
X22037Y-16124D01*
X22301Y-16124D01*
X22356Y-16102D01*
X22397Y-16060D01*
X22402Y-16049D01*
X22479Y-16049D01*
X22483Y-16060D01*
X22525Y-16101D01*
X22579Y-16124D01*
X22639Y-16124D01*
X23025Y-16124D01*
X23025Y-16278D01*
X23014Y-16282D01*
X22972Y-16324D01*
X22950Y-16379D01*
X22950Y-16438D01*
X22950Y-16888D01*
X22972Y-16942D01*
X23014Y-16984D01*
X23068Y-17007D01*
X23128Y-17007D01*
X23378Y-17007D01*
X23432Y-16984D01*
X23474Y-16943D01*
X23497Y-16888D01*
X23497Y-16829D01*
X23497Y-20470D01*
X22384Y-20470D01*
X22309Y-20395D01*
X22190Y-20345D01*
X22061Y-20345D01*
X21943Y-20394D01*
X21851Y-20485D01*
X21802Y-20604D01*
X21802Y-20733D01*
X21851Y-20852D01*
X21942Y-20943D01*
X22061Y-20992D01*
X22190Y-20992D01*
X22308Y-20943D01*
X22385Y-20867D01*
X27440Y-20867D01*
X27516Y-20852D01*
X27516Y-20852D01*
X27581Y-20809D01*
X27896Y-20494D01*
X27939Y-20430D01*
X27939Y-20430D01*
X27954Y-20354D01*
X27954Y-20325D01*
X28065Y-20325D01*
X28235Y-20291D01*
X28379Y-20195D01*
X28475Y-20051D01*
X28509Y-19881D01*
X28475Y-19711D01*
X28379Y-19567D01*
X28260Y-19487D01*
X28379Y-19408D01*
X28475Y-19264D01*
X28509Y-19094D01*
X28475Y-18924D01*
X28418Y-18839D01*
X28486Y-18811D01*
X28555Y-18741D01*
X28593Y-18650D01*
X28593Y-21702D01*
X28555Y-21611D01*
X28486Y-21542D01*
X28395Y-21504D01*
X28297Y-21504D01*
X27866Y-21504D01*
X27804Y-21566D01*
X27804Y-21998D01*
X28531Y-21998D01*
X28593Y-21936D01*
X28593Y-21702D01*
X28593Y-22391D01*
X28593Y-22157D01*
X28531Y-22095D01*
X27804Y-22095D01*
X27804Y-22103D01*
X27707Y-22103D01*
X27707Y-22095D01*
X27707Y-21998D01*
X27707Y-21566D01*
X27645Y-21504D01*
X27214Y-21504D01*
X27116Y-21504D01*
X27025Y-21542D01*
X26956Y-21611D01*
X26918Y-21702D01*
X26918Y-21936D01*
X26980Y-21998D01*
X27707Y-21998D01*
X27707Y-22095D01*
X26980Y-22095D01*
X26918Y-22157D01*
X26918Y-22391D01*
X26956Y-22482D01*
X27025Y-22551D01*
X27093Y-22579D01*
X27036Y-22665D01*
X27002Y-22835D01*
X27028Y-22966D01*
X25685Y-24309D01*
X21322Y-24309D01*
X21005Y-23992D01*
X21005Y-21196D01*
X21029Y-21220D01*
X21083Y-21242D01*
X21140Y-21242D01*
X21140Y-22598D01*
X21155Y-22674D01*
X21198Y-22738D01*
X21434Y-22974D01*
X21498Y-23017D01*
X21498Y-23017D01*
X21574Y-23033D01*
X23709Y-23033D01*
X23786Y-23148D01*
X23905Y-23228D01*
X23786Y-23307D01*
X23709Y-23423D01*
X22108Y-23423D01*
X22033Y-23348D01*
X21915Y-23298D01*
X21786Y-23298D01*
X21667Y-23347D01*
X21576Y-23438D01*
X21527Y-23557D01*
X21526Y-23686D01*
X21576Y-23805D01*
X21666Y-23896D01*
X21785Y-23945D01*
X21914Y-23945D01*
X22033Y-23896D01*
X22109Y-23820D01*
X23709Y-23820D01*
X23786Y-23935D01*
X23930Y-24031D01*
X24100Y-24065D01*
X24719Y-24065D01*
X24888Y-24031D01*
X25032Y-23935D01*
X25129Y-23791D01*
X25163Y-23621D01*
X25129Y-23451D01*
X25032Y-23307D01*
X24913Y-23228D01*
X25032Y-23148D01*
X25129Y-23004D01*
X25163Y-22834D01*
X25129Y-22664D01*
X25072Y-22579D01*
X25140Y-22551D01*
X25209Y-22481D01*
X25246Y-22391D01*
X25246Y-21702D01*
X25209Y-21611D01*
X25140Y-21541D01*
X25049Y-21504D01*
X24951Y-21504D01*
X24519Y-21504D01*
X24458Y-21566D01*
X24458Y-21998D01*
X25185Y-21998D01*
X25246Y-21936D01*
X25246Y-21702D01*
X25246Y-22391D01*
X25246Y-22156D01*
X25185Y-22095D01*
X24458Y-22095D01*
X24458Y-22102D01*
X24361Y-22102D01*
X24361Y-22095D01*
X24361Y-21998D01*
X24361Y-21566D01*
X24299Y-21504D01*
X23867Y-21504D01*
X23769Y-21504D01*
X23679Y-21541D01*
X23609Y-21611D01*
X23572Y-21702D01*
X23572Y-21936D01*
X23633Y-21998D01*
X24361Y-21998D01*
X24361Y-22095D01*
X23633Y-22095D01*
X23572Y-22156D01*
X23572Y-22391D01*
X23609Y-22481D01*
X23679Y-22551D01*
X23746Y-22579D01*
X23709Y-22636D01*
X21656Y-22636D01*
X21537Y-22516D01*
X21537Y-21242D01*
X21592Y-21242D01*
X21647Y-21220D01*
X21689Y-21178D01*
X21711Y-21123D01*
X21712Y-21064D01*
X21712Y-20814D01*
X21689Y-20760D01*
X21647Y-20718D01*
X21593Y-20695D01*
X21534Y-20695D01*
X21084Y-20695D01*
X21029Y-20718D01*
X21005Y-20742D01*
X21005Y-20596D01*
X21029Y-20620D01*
X21083Y-20642D01*
X21142Y-20642D01*
X21592Y-20642D01*
X21647Y-20620D01*
X21689Y-20578D01*
X21711Y-20523D01*
X21712Y-20464D01*
X21712Y-20214D01*
X21689Y-20160D01*
X21647Y-20118D01*
X21593Y-20095D01*
X21582Y-20095D01*
X21612Y-20065D01*
X21661Y-19946D01*
X21662Y-19817D01*
X21612Y-19698D01*
X21522Y-19607D01*
X21403Y-19558D01*
X21274Y-19558D01*
X21155Y-19607D01*
X21064Y-19698D01*
X21015Y-19817D01*
X21015Y-19945D01*
X21064Y-20064D01*
X21095Y-20095D01*
X21084Y-20095D01*
X21029Y-20118D01*
X21005Y-20142D01*
X21005Y-19531D01*
X21498Y-19037D01*
X21498Y-19037D01*
X21498Y-19037D01*
X21540Y-18975D01*
X21540Y-18975D01*
X21541Y-18975D01*
X21632Y-18884D01*
X21681Y-18765D01*
X21681Y-18636D01*
X21632Y-18517D01*
X21541Y-18426D01*
X21422Y-18377D01*
X21294Y-18377D01*
X21175Y-18426D01*
X21084Y-18517D01*
X21034Y-18636D01*
X21034Y-18764D01*
X21083Y-18883D01*
X21087Y-18887D01*
X20769Y-19205D01*
X20769Y-18959D01*
X20844Y-18884D01*
X20894Y-18765D01*
X20894Y-18636D01*
X20845Y-18517D01*
X20754Y-18426D01*
X20635Y-18377D01*
X20506Y-18377D01*
X20387Y-18426D01*
X20296Y-18517D01*
X20247Y-18636D01*
X20247Y-18764D01*
X20296Y-18883D01*
X20372Y-18959D01*
X20372Y-24212D01*
X20387Y-24288D01*
X20430Y-24352D01*
X20942Y-24864D01*
X20942Y-24864D01*
X21006Y-24907D01*
X21006Y-24907D01*
X21082Y-24922D01*
X26161Y-24922D01*
X26237Y-24907D01*
X26237Y-24907D01*
X26301Y-24864D01*
X27191Y-23975D01*
X27251Y-24015D01*
X27132Y-24095D01*
X27036Y-24239D01*
X27002Y-24409D01*
X27036Y-24578D01*
X27132Y-24722D01*
X27149Y-24734D01*
X26807Y-25077D01*
X21027Y-25077D01*
X19981Y-24031D01*
X19981Y-18959D01*
X20057Y-18884D01*
X20106Y-18765D01*
X20106Y-18636D01*
X20057Y-18517D01*
X19966Y-18426D01*
X19848Y-18377D01*
X19719Y-18377D01*
X19600Y-18426D01*
X19509Y-18517D01*
X19460Y-18636D01*
X19459Y-18764D01*
X19509Y-18883D01*
X19585Y-18959D01*
X19585Y-24114D01*
X19600Y-24190D01*
X19643Y-24254D01*
X20804Y-25415D01*
X20868Y-25458D01*
X20868Y-25458D01*
X20944Y-25474D01*
X26889Y-25474D01*
X26965Y-25458D01*
X26965Y-25458D01*
X27029Y-25415D01*
X27592Y-24852D01*
X28065Y-24852D01*
X28235Y-24819D01*
X28379Y-24722D01*
X28475Y-24578D01*
X28509Y-24409D01*
X28475Y-24239D01*
X28379Y-24095D01*
X28260Y-24015D01*
X28379Y-23935D01*
X28475Y-23791D01*
X28509Y-23622D01*
X28475Y-23452D01*
X28379Y-23308D01*
X28260Y-23228D01*
X28379Y-23148D01*
X28475Y-23004D01*
X28509Y-22835D01*
X28475Y-22665D01*
X28418Y-22579D01*
X28486Y-22551D01*
X28555Y-22482D01*
X28593Y-22391D01*
X28593Y-29125D01*
X28298Y-29420D01*
X28298Y-28002D01*
X28298Y-26919D01*
X28298Y-26820D01*
X28260Y-26730D01*
X28191Y-26660D01*
X28100Y-26623D01*
X27866Y-26623D01*
X27804Y-26685D01*
X27804Y-27412D01*
X28236Y-27412D01*
X28298Y-27350D01*
X28298Y-26919D01*
X28298Y-28002D01*
X28298Y-27570D01*
X28236Y-27509D01*
X27804Y-27509D01*
X27804Y-28236D01*
X27866Y-28298D01*
X28100Y-28298D01*
X28191Y-28260D01*
X28260Y-28191D01*
X28298Y-28100D01*
X28298Y-28002D01*
X28298Y-29420D01*
X27859Y-29859D01*
X27816Y-29924D01*
X27801Y-30000D01*
X27801Y-30579D01*
X27782Y-30675D01*
X27740Y-30739D01*
X27707Y-30761D01*
X27707Y-28236D01*
X27707Y-27509D01*
X27699Y-27509D01*
X27699Y-27412D01*
X27707Y-27412D01*
X27707Y-26685D01*
X27645Y-26623D01*
X27411Y-26623D01*
X27320Y-26660D01*
X27251Y-26730D01*
X27223Y-26798D01*
X27166Y-26760D01*
X27166Y-26574D01*
X27166Y-26574D01*
X27166Y-26574D01*
X27163Y-26559D01*
X27151Y-26498D01*
X27151Y-26498D01*
X27108Y-26434D01*
X27108Y-26434D01*
X26415Y-25740D01*
X26350Y-25697D01*
X26274Y-25682D01*
X20834Y-25682D01*
X20827Y-25674D01*
X20809Y-25647D01*
X20805Y-25644D01*
X20801Y-25639D01*
X20771Y-25621D01*
X20745Y-25604D01*
X20740Y-25603D01*
X20735Y-25600D01*
X20699Y-25594D01*
X20669Y-25588D01*
X20664Y-25589D01*
X20658Y-25589D01*
X20623Y-25598D01*
X20617Y-25599D01*
X20566Y-25588D01*
X20490Y-25604D01*
X20484Y-25607D01*
X20460Y-25607D01*
X20454Y-25604D01*
X20378Y-25588D01*
X20302Y-25604D01*
X20297Y-25607D01*
X20218Y-25607D01*
X20163Y-25630D01*
X20121Y-25671D01*
X20117Y-25682D01*
X19467Y-25682D01*
X19467Y-21261D01*
X19467Y-21011D01*
X19467Y-20661D01*
X19467Y-20411D01*
X19445Y-20357D01*
X19403Y-20315D01*
X19349Y-20292D01*
X19292Y-20292D01*
X19292Y-18959D01*
X19368Y-18884D01*
X19417Y-18765D01*
X19417Y-18636D01*
X19368Y-18517D01*
X19277Y-18426D01*
X19159Y-18377D01*
X19030Y-18377D01*
X18911Y-18426D01*
X18820Y-18517D01*
X18771Y-18636D01*
X18771Y-18764D01*
X18820Y-18883D01*
X18896Y-18959D01*
X18896Y-20292D01*
X18840Y-20292D01*
X18785Y-20315D01*
X18743Y-20356D01*
X18721Y-20411D01*
X18721Y-20470D01*
X18721Y-20720D01*
X18743Y-20775D01*
X18785Y-20816D01*
X18839Y-20839D01*
X18898Y-20839D01*
X19348Y-20839D01*
X19403Y-20817D01*
X19445Y-20775D01*
X19467Y-20720D01*
X19467Y-20661D01*
X19467Y-21011D01*
X19445Y-20957D01*
X19403Y-20915D01*
X19349Y-20892D01*
X19290Y-20892D01*
X18840Y-20892D01*
X18785Y-20915D01*
X18743Y-20956D01*
X18721Y-21011D01*
X18721Y-21070D01*
X18721Y-21320D01*
X18743Y-21375D01*
X18785Y-21416D01*
X18839Y-21439D01*
X18896Y-21439D01*
X18896Y-22772D01*
X18820Y-22848D01*
X18771Y-22966D01*
X18771Y-23095D01*
X18820Y-23214D01*
X18911Y-23305D01*
X19029Y-23354D01*
X19158Y-23354D01*
X19277Y-23305D01*
X19368Y-23214D01*
X19417Y-23096D01*
X19417Y-22967D01*
X19368Y-22848D01*
X19292Y-22772D01*
X19292Y-21439D01*
X19348Y-21439D01*
X19403Y-21417D01*
X19445Y-21375D01*
X19467Y-21320D01*
X19467Y-21261D01*
X19467Y-25682D01*
X18094Y-25682D01*
X18013Y-25602D01*
X18013Y-18861D01*
X18088Y-18785D01*
X18138Y-18666D01*
X18138Y-18538D01*
X18089Y-18419D01*
X17998Y-18328D01*
X17879Y-18278D01*
X17750Y-18278D01*
X17631Y-18328D01*
X17540Y-18418D01*
X17491Y-18537D01*
X17491Y-18666D01*
X17520Y-18736D01*
X17506Y-18722D01*
X17387Y-18672D01*
X17258Y-18672D01*
X17139Y-18721D01*
X17048Y-18812D01*
X16999Y-18931D01*
X16999Y-19060D01*
X17048Y-19179D01*
X17139Y-19270D01*
X17258Y-19319D01*
X17365Y-19319D01*
X17419Y-19373D01*
X17419Y-25787D01*
X17434Y-25863D01*
X17477Y-25927D01*
X17773Y-26222D01*
X17837Y-26265D01*
X17837Y-26265D01*
X17913Y-26281D01*
X19213Y-26281D01*
X19213Y-26326D01*
X17102Y-26326D01*
X16980Y-26204D01*
X16980Y-18425D01*
X16972Y-18383D01*
X16967Y-18346D01*
X16963Y-18339D01*
X16961Y-18330D01*
X16938Y-18294D01*
X16919Y-18262D01*
X16757Y-18075D01*
X20346Y-18056D01*
X20356Y-18067D01*
X20411Y-18089D01*
X20470Y-18089D01*
X20720Y-18089D01*
X20775Y-18067D01*
X20816Y-18025D01*
X20839Y-17971D01*
X20839Y-17912D01*
X20839Y-17462D01*
X20839Y-17124D01*
X20839Y-16674D01*
X20817Y-16620D01*
X20775Y-16578D01*
X20720Y-16555D01*
X20661Y-16555D01*
X20467Y-16555D01*
X20467Y-15516D01*
X20467Y-15199D01*
X20151Y-15199D01*
X20089Y-15261D01*
X20089Y-15282D01*
X20089Y-15380D01*
X20126Y-15471D01*
X20196Y-15540D01*
X20287Y-15578D01*
X20406Y-15578D01*
X20467Y-15516D01*
X20467Y-16555D01*
X20411Y-16555D01*
X20357Y-16578D01*
X20315Y-16619D01*
X20292Y-16674D01*
X20292Y-16730D01*
X20058Y-16730D01*
X20058Y-16484D01*
X20035Y-16429D01*
X19994Y-16387D01*
X19939Y-16365D01*
X19880Y-16365D01*
X19430Y-16365D01*
X19376Y-16387D01*
X19372Y-16391D01*
X19372Y-16340D01*
X19581Y-16340D01*
X19657Y-16325D01*
X19657Y-16325D01*
X19677Y-16312D01*
X19677Y-16312D01*
X19939Y-16312D01*
X19994Y-16289D01*
X20035Y-16247D01*
X20058Y-16193D01*
X20058Y-16134D01*
X20058Y-15884D01*
X20035Y-15829D01*
X19994Y-15787D01*
X19939Y-15765D01*
X19883Y-15765D01*
X19883Y-15534D01*
X19939Y-15534D01*
X19994Y-15511D01*
X20035Y-15469D01*
X20058Y-15415D01*
X20058Y-15356D01*
X20058Y-15106D01*
X20035Y-15051D01*
X19999Y-15015D01*
X20050Y-14994D01*
X20089Y-14955D01*
X20089Y-15020D01*
X20089Y-15041D01*
X20151Y-15102D01*
X20467Y-15102D01*
X20467Y-14786D01*
X20406Y-14724D01*
X20287Y-14724D01*
X20196Y-14761D01*
X20156Y-14801D01*
X20156Y-14486D01*
X20119Y-14395D01*
X20050Y-14326D01*
X19959Y-14288D01*
X19861Y-14288D01*
X19795Y-14288D01*
X19733Y-14350D01*
X19733Y-14612D01*
X20095Y-14612D01*
X20156Y-14550D01*
X20156Y-14486D01*
X20156Y-14801D01*
X20156Y-14801D01*
X20156Y-14770D01*
X20095Y-14709D01*
X19733Y-14709D01*
X19733Y-14716D01*
X19636Y-14716D01*
X19636Y-14709D01*
X19636Y-14612D01*
X19636Y-14350D01*
X19574Y-14288D01*
X19508Y-14288D01*
X19410Y-14288D01*
X19320Y-14326D01*
X19250Y-14395D01*
X19213Y-14486D01*
X19213Y-14550D01*
X19274Y-14612D01*
X19636Y-14612D01*
X19636Y-14709D01*
X19274Y-14709D01*
X19213Y-14770D01*
X19213Y-14834D01*
X19250Y-14925D01*
X19320Y-14994D01*
X19370Y-15015D01*
X19334Y-15051D01*
X19311Y-15105D01*
X19311Y-15165D01*
X19311Y-15400D01*
X19308Y-15397D01*
X19253Y-15374D01*
X19194Y-15374D01*
X18944Y-15374D01*
X18890Y-15397D01*
X18848Y-15438D01*
X18825Y-15493D01*
X18825Y-15552D01*
X18825Y-16002D01*
X18848Y-16056D01*
X18890Y-16098D01*
X18900Y-16103D01*
X18900Y-16141D01*
X18900Y-16180D01*
X18890Y-16184D01*
X18848Y-16226D01*
X18825Y-16280D01*
X18825Y-16339D01*
X18825Y-16789D01*
X18848Y-16844D01*
X18890Y-16886D01*
X18944Y-16908D01*
X19003Y-16908D01*
X19253Y-16908D01*
X19308Y-16886D01*
X19340Y-16853D01*
X19375Y-16889D01*
X19430Y-16911D01*
X19489Y-16912D01*
X19677Y-16912D01*
X19835Y-17069D01*
X19835Y-17069D01*
X19899Y-17112D01*
X19899Y-17112D01*
X19975Y-17127D01*
X20292Y-17127D01*
X20292Y-17183D01*
X20315Y-17238D01*
X20356Y-17279D01*
X20411Y-17302D01*
X20470Y-17302D01*
X20720Y-17302D01*
X20775Y-17280D01*
X20816Y-17238D01*
X20839Y-17183D01*
X20839Y-17124D01*
X20839Y-17462D01*
X20817Y-17407D01*
X20775Y-17365D01*
X20720Y-17343D01*
X20661Y-17343D01*
X20411Y-17343D01*
X20357Y-17365D01*
X20315Y-17407D01*
X20292Y-17461D01*
X20292Y-17520D01*
X20292Y-17560D01*
X17699Y-17573D01*
X17699Y-17521D01*
X18307Y-17521D01*
X18383Y-17506D01*
X18383Y-17506D01*
X18447Y-17463D01*
X18639Y-17271D01*
X18682Y-17206D01*
X18682Y-17206D01*
X18697Y-17130D01*
X18697Y-16890D01*
X18708Y-16886D01*
X18749Y-16844D01*
X18772Y-16790D01*
X18772Y-16731D01*
X18772Y-16281D01*
X18750Y-16226D01*
X18708Y-16184D01*
X18653Y-16162D01*
X18594Y-16161D01*
X18344Y-16161D01*
X18290Y-16184D01*
X18248Y-16226D01*
X18225Y-16280D01*
X18225Y-16339D01*
X18225Y-16789D01*
X18248Y-16844D01*
X18290Y-16886D01*
X18300Y-16890D01*
X18300Y-17048D01*
X18224Y-17124D01*
X17699Y-17124D01*
X17699Y-17068D01*
X17676Y-17013D01*
X17649Y-16986D01*
X17690Y-16969D01*
X17760Y-16900D01*
X17797Y-16809D01*
X17797Y-16711D01*
X17797Y-16359D01*
X17797Y-16261D01*
X17760Y-16170D01*
X17731Y-16141D01*
X17760Y-16113D01*
X17797Y-16022D01*
X17797Y-15924D01*
X17797Y-15858D01*
X17736Y-15796D01*
X17474Y-15796D01*
X17474Y-16125D01*
X17474Y-16158D01*
X17474Y-16487D01*
X17736Y-16487D01*
X17797Y-16425D01*
X17797Y-16359D01*
X17797Y-16711D01*
X17797Y-16645D01*
X17736Y-16583D01*
X17474Y-16583D01*
X17474Y-16591D01*
X17377Y-16591D01*
X17377Y-16583D01*
X17369Y-16583D01*
X17369Y-16487D01*
X17377Y-16487D01*
X17377Y-16158D01*
X17377Y-16125D01*
X17377Y-15796D01*
X17369Y-15796D01*
X17369Y-15699D01*
X17377Y-15699D01*
X17377Y-15691D01*
X17474Y-15691D01*
X17474Y-15699D01*
X17736Y-15699D01*
X17797Y-15637D01*
X17797Y-15571D01*
X17797Y-15473D01*
X17760Y-15383D01*
X17690Y-15313D01*
X17649Y-15296D01*
X17676Y-15269D01*
X17699Y-15215D01*
X17699Y-15159D01*
X18224Y-15159D01*
X18300Y-15234D01*
X18300Y-15392D01*
X18290Y-15397D01*
X18248Y-15438D01*
X18225Y-15493D01*
X18225Y-15552D01*
X18225Y-16002D01*
X18248Y-16056D01*
X18290Y-16098D01*
X18344Y-16121D01*
X18403Y-16121D01*
X18653Y-16121D01*
X18708Y-16098D01*
X18749Y-16057D01*
X18772Y-16002D01*
X18772Y-15943D01*
X18772Y-15493D01*
X18750Y-15439D01*
X18708Y-15397D01*
X18697Y-15392D01*
X18697Y-15152D01*
X18682Y-15076D01*
X18682Y-15076D01*
X18639Y-15012D01*
X18447Y-14820D01*
X18383Y-14777D01*
X18352Y-14771D01*
X18352Y-13500D01*
X18352Y-13138D01*
X18352Y-13042D01*
X18352Y-12811D01*
X18352Y-12680D01*
X18352Y-12450D01*
X18090Y-12450D01*
X18028Y-12511D01*
X18028Y-12577D01*
X18028Y-12675D01*
X18058Y-12746D01*
X18028Y-12816D01*
X18028Y-12914D01*
X18028Y-12980D01*
X18090Y-13042D01*
X18352Y-13042D01*
X18352Y-13138D01*
X18090Y-13138D01*
X18028Y-13200D01*
X18028Y-13266D01*
X18028Y-13364D01*
X18066Y-13455D01*
X18136Y-13524D01*
X18226Y-13562D01*
X18290Y-13562D01*
X18352Y-13500D01*
X18352Y-14771D01*
X18307Y-14762D01*
X17699Y-14762D01*
X17699Y-14706D01*
X17676Y-14651D01*
X17635Y-14609D01*
X17580Y-14587D01*
X17521Y-14587D01*
X17271Y-14587D01*
X17217Y-14609D01*
X17175Y-14651D01*
X17152Y-14705D01*
X17152Y-14765D01*
X17152Y-15215D01*
X17175Y-15269D01*
X17202Y-15296D01*
X17161Y-15313D01*
X17091Y-15383D01*
X17071Y-15433D01*
X17035Y-15397D01*
X16980Y-15374D01*
X16921Y-15374D01*
X16671Y-15374D01*
X16617Y-15397D01*
X16575Y-15438D01*
X16552Y-15493D01*
X16552Y-15552D01*
X16552Y-15740D01*
X16546Y-15746D01*
X16227Y-15746D01*
X16282Y-15691D01*
X16282Y-15691D01*
X16282Y-15691D01*
X16325Y-15627D01*
X16325Y-15627D01*
X16337Y-15566D01*
X16340Y-15551D01*
X16340Y-15551D01*
X16340Y-15551D01*
X16340Y-15239D01*
X16420Y-15159D01*
X16552Y-15159D01*
X16552Y-15215D01*
X16575Y-15269D01*
X16616Y-15311D01*
X16671Y-15334D01*
X16730Y-15334D01*
X16980Y-15334D01*
X17034Y-15311D01*
X17076Y-15269D01*
X17099Y-15215D01*
X17099Y-15156D01*
X17099Y-14706D01*
X17076Y-14651D01*
X17035Y-14609D01*
X16980Y-14587D01*
X16921Y-14587D01*
X16671Y-14587D01*
X16617Y-14609D01*
X16575Y-14651D01*
X16552Y-14705D01*
X16552Y-14762D01*
X16482Y-14762D01*
X16482Y-13205D01*
X16482Y-12843D01*
X16220Y-12843D01*
X16158Y-12905D01*
X16158Y-12971D01*
X16158Y-13069D01*
X16196Y-13160D01*
X16266Y-13229D01*
X16356Y-13267D01*
X16420Y-13267D01*
X16482Y-13205D01*
X16482Y-14762D01*
X16338Y-14762D01*
X16338Y-14762D01*
X16323Y-14765D01*
X16262Y-14777D01*
X16198Y-14820D01*
X16198Y-14820D01*
X16001Y-15017D01*
X15958Y-15081D01*
X15943Y-15157D01*
X15943Y-15468D01*
X15862Y-15549D01*
X15748Y-15549D01*
X15743Y-15550D01*
X15728Y-15550D01*
X15699Y-15479D01*
X15650Y-15429D01*
X15650Y-15402D01*
X15612Y-15402D01*
X15539Y-15372D01*
X15441Y-15372D01*
X15354Y-15372D01*
X15354Y-15359D01*
X15355Y-15354D01*
X15355Y-15298D01*
X15378Y-15298D01*
X15378Y-15305D01*
X15650Y-15305D01*
X15650Y-15197D01*
X15609Y-15087D01*
X15529Y-15002D01*
X15424Y-14958D01*
X15402Y-14984D01*
X15402Y-14949D01*
X15355Y-14949D01*
X15355Y-14845D01*
X15508Y-14693D01*
X15615Y-14693D01*
X15734Y-14644D01*
X15825Y-14553D01*
X15874Y-14434D01*
X15874Y-14306D01*
X15825Y-14187D01*
X15734Y-14096D01*
X15615Y-14046D01*
X15487Y-14046D01*
X15368Y-14095D01*
X15277Y-14186D01*
X15255Y-14237D01*
X15234Y-14187D01*
X15144Y-14096D01*
X15025Y-14046D01*
X14896Y-14046D01*
X14777Y-14095D01*
X14686Y-14186D01*
X14637Y-14305D01*
X14637Y-14434D01*
X14686Y-14553D01*
X14762Y-14629D01*
X14762Y-14949D01*
X14715Y-14949D01*
X14715Y-14984D01*
X14693Y-14958D01*
X14665Y-14970D01*
X14637Y-14958D01*
X14606Y-14994D01*
X14588Y-15002D01*
X14542Y-15052D01*
X14542Y-15012D01*
X14496Y-14958D01*
X14391Y-15002D01*
X14312Y-15087D01*
X14271Y-15197D01*
X14271Y-15305D01*
X14467Y-15305D01*
X14542Y-15305D01*
X14591Y-15305D01*
X14615Y-15305D01*
X14615Y-15402D01*
X14613Y-15402D01*
X14582Y-15372D01*
X14476Y-15372D01*
X14377Y-15372D01*
X14304Y-15402D01*
X14271Y-15402D01*
X14271Y-15426D01*
X14217Y-15479D01*
X14203Y-15513D01*
X14203Y-13180D01*
X14203Y-12453D01*
X14203Y-12356D01*
X14203Y-11628D01*
X14141Y-11567D01*
X13907Y-11567D01*
X13848Y-11591D01*
X13848Y-10911D01*
X13780Y-10746D01*
X13654Y-10620D01*
X13489Y-10551D01*
X13311Y-10551D01*
X13146Y-10619D01*
X13020Y-10745D01*
X12951Y-10910D01*
X12951Y-11088D01*
X13019Y-11253D01*
X13145Y-11379D01*
X13310Y-11448D01*
X13488Y-11448D01*
X13653Y-11380D01*
X13779Y-11254D01*
X13848Y-11089D01*
X13848Y-10911D01*
X13848Y-11591D01*
X13816Y-11604D01*
X13747Y-11674D01*
X13709Y-11764D01*
X13709Y-11862D01*
X13709Y-12294D01*
X13771Y-12356D01*
X14203Y-12356D01*
X14203Y-12453D01*
X13771Y-12453D01*
X13709Y-12514D01*
X13709Y-12946D01*
X13709Y-13044D01*
X13747Y-13135D01*
X13816Y-13204D01*
X13907Y-13241D01*
X14141Y-13241D01*
X14203Y-13180D01*
X14203Y-15513D01*
X14188Y-15550D01*
X14178Y-15550D01*
X14173Y-15549D01*
X14058Y-15549D01*
X13722Y-15214D01*
X13660Y-15172D01*
X13660Y-14880D01*
X13623Y-14789D01*
X13553Y-14720D01*
X13463Y-14682D01*
X13365Y-14682D01*
X13299Y-14682D01*
X13237Y-14744D01*
X13237Y-15005D01*
X13599Y-15005D01*
X13660Y-14944D01*
X13660Y-14880D01*
X13660Y-15172D01*
X13660Y-15172D01*
X13660Y-15172D01*
X13660Y-15164D01*
X13599Y-15102D01*
X13237Y-15102D01*
X13237Y-15110D01*
X13140Y-15110D01*
X13140Y-15102D01*
X13132Y-15102D01*
X13132Y-15005D01*
X13140Y-15005D01*
X13140Y-14744D01*
X13118Y-14722D01*
X13118Y-14109D01*
X13069Y-13990D01*
X12978Y-13899D01*
X12951Y-13887D01*
X12951Y-11082D01*
X12941Y-10865D01*
X12877Y-10712D01*
X12783Y-10685D01*
X12714Y-10753D01*
X12714Y-10616D01*
X12687Y-10522D01*
X12482Y-10448D01*
X12265Y-10458D01*
X12112Y-10522D01*
X12085Y-10616D01*
X12400Y-10931D01*
X12714Y-10616D01*
X12714Y-10753D01*
X12468Y-11000D01*
X12783Y-11314D01*
X12877Y-11287D01*
X12951Y-11082D01*
X12951Y-13887D01*
X12859Y-13849D01*
X12823Y-13849D01*
X12714Y-13741D01*
X12714Y-11383D01*
X12400Y-11068D01*
X12331Y-11136D01*
X12331Y-11000D01*
X12016Y-10685D01*
X11922Y-10712D01*
X11848Y-10917D01*
X11858Y-11134D01*
X11922Y-11287D01*
X12016Y-11314D01*
X12331Y-11000D01*
X12331Y-11136D01*
X12085Y-11383D01*
X12112Y-11477D01*
X12317Y-11551D01*
X12534Y-11541D01*
X12687Y-11477D01*
X12714Y-11383D01*
X12714Y-13741D01*
X12384Y-13411D01*
X12384Y-12479D01*
X12384Y-12127D01*
X12384Y-12028D01*
X12346Y-11938D01*
X12277Y-11868D01*
X12186Y-11831D01*
X12122Y-11831D01*
X12061Y-11893D01*
X12061Y-12254D01*
X12322Y-12254D01*
X12384Y-12193D01*
X12384Y-12127D01*
X12384Y-12479D01*
X12384Y-12413D01*
X12322Y-12351D01*
X12061Y-12351D01*
X12061Y-12713D01*
X12122Y-12775D01*
X12186Y-12775D01*
X12277Y-12737D01*
X12346Y-12668D01*
X12384Y-12577D01*
X12384Y-12479D01*
X12384Y-13411D01*
X11661Y-12687D01*
X11661Y-12626D01*
X11678Y-12668D01*
X11747Y-12737D01*
X11838Y-12775D01*
X11902Y-12775D01*
X11964Y-12713D01*
X11964Y-12351D01*
X11956Y-12351D01*
X11956Y-12254D01*
X11964Y-12254D01*
X11964Y-11893D01*
X11902Y-11831D01*
X11838Y-11831D01*
X11747Y-11868D01*
X11678Y-11938D01*
X11657Y-11988D01*
X11621Y-11952D01*
X11611Y-11947D01*
X11611Y-11398D01*
X11653Y-11380D01*
X11779Y-11254D01*
X11848Y-11089D01*
X11848Y-10911D01*
X11780Y-10746D01*
X11654Y-10620D01*
X11489Y-10551D01*
X11311Y-10551D01*
X11146Y-10619D01*
X11020Y-10745D01*
X10951Y-10910D01*
X10951Y-11088D01*
X11019Y-11253D01*
X11145Y-11379D01*
X11214Y-11408D01*
X11214Y-11947D01*
X11203Y-11952D01*
X11161Y-11993D01*
X11139Y-12048D01*
X11139Y-12107D01*
X11139Y-12557D01*
X11161Y-12612D01*
X11164Y-12614D01*
X11164Y-12790D01*
X11183Y-12885D01*
X11236Y-12966D01*
X12471Y-14201D01*
X12471Y-14237D01*
X12520Y-14356D01*
X12611Y-14447D01*
X12730Y-14496D01*
X12859Y-14496D01*
X12978Y-14447D01*
X13069Y-14356D01*
X13118Y-14237D01*
X13118Y-14109D01*
X13118Y-14722D01*
X13078Y-14682D01*
X13012Y-14682D01*
X12914Y-14682D01*
X12823Y-14720D01*
X12754Y-14789D01*
X12717Y-14880D01*
X12717Y-14944D01*
X12778Y-15005D01*
X12727Y-15005D01*
X12403Y-14681D01*
X12403Y-14370D01*
X12403Y-14370D01*
X12403Y-14370D01*
X12400Y-14354D01*
X12388Y-14294D01*
X12388Y-14294D01*
X12345Y-14229D01*
X12345Y-14229D01*
X12147Y-14032D01*
X12083Y-13989D01*
X12007Y-13974D01*
X11920Y-13974D01*
X11843Y-13859D01*
X11699Y-13762D01*
X11529Y-13729D01*
X10910Y-13729D01*
X10740Y-13762D01*
X10596Y-13859D01*
X10500Y-14003D01*
X10466Y-14173D01*
X10500Y-14342D01*
X10596Y-14486D01*
X10716Y-14567D01*
X10596Y-14647D01*
X10500Y-14791D01*
X10466Y-14961D01*
X10500Y-15130D01*
X10596Y-15274D01*
X10716Y-15354D01*
X10596Y-15434D01*
X10500Y-15578D01*
X10466Y-15748D01*
X10500Y-15917D01*
X10596Y-16061D01*
X10716Y-16141D01*
X10596Y-16221D01*
X10500Y-16365D01*
X10466Y-16535D01*
X10500Y-16704D01*
X10557Y-16790D01*
X10489Y-16818D01*
X10420Y-16887D01*
X10382Y-16978D01*
X10382Y-17212D01*
X10444Y-17274D01*
X11171Y-17274D01*
X11171Y-17266D01*
X11268Y-17266D01*
X11268Y-17274D01*
X11995Y-17274D01*
X12057Y-17212D01*
X12057Y-16978D01*
X12020Y-16887D01*
X11950Y-16818D01*
X11882Y-16790D01*
X11920Y-16733D01*
X12815Y-16733D01*
X12815Y-16739D01*
X12815Y-16989D01*
X12838Y-17044D01*
X12879Y-17086D01*
X12934Y-17108D01*
X12993Y-17108D01*
X13098Y-17108D01*
X13006Y-17146D01*
X12914Y-17237D01*
X12865Y-17356D01*
X12865Y-17485D01*
X12877Y-17514D01*
X12872Y-17539D01*
X12872Y-18245D01*
X12816Y-18245D01*
X12761Y-18267D01*
X12720Y-18309D01*
X12697Y-18364D01*
X12697Y-18423D01*
X12697Y-18673D01*
X12719Y-18727D01*
X12761Y-18769D01*
X12816Y-18792D01*
X12875Y-18792D01*
X13325Y-18792D01*
X13379Y-18769D01*
X13421Y-18728D01*
X13432Y-18701D01*
X13432Y-18936D01*
X13421Y-18909D01*
X13380Y-18868D01*
X13325Y-18845D01*
X13266Y-18845D01*
X12816Y-18845D01*
X12761Y-18867D01*
X12720Y-18909D01*
X12715Y-18920D01*
X12578Y-18920D01*
X12578Y-18614D01*
X12578Y-18364D01*
X12555Y-18309D01*
X12513Y-18268D01*
X12459Y-18245D01*
X12428Y-18245D01*
X12478Y-18195D01*
X12528Y-18076D01*
X12528Y-17947D01*
X12479Y-17828D01*
X12388Y-17737D01*
X12269Y-17688D01*
X12140Y-17688D01*
X12030Y-17733D01*
X12057Y-17667D01*
X12057Y-17433D01*
X11995Y-17371D01*
X11268Y-17371D01*
X11268Y-17803D01*
X11330Y-17865D01*
X11761Y-17865D01*
X11860Y-17865D01*
X11926Y-17837D01*
X11881Y-17947D01*
X11881Y-18075D01*
X11930Y-18194D01*
X11980Y-18245D01*
X11950Y-18245D01*
X11895Y-18267D01*
X11853Y-18309D01*
X11831Y-18364D01*
X11831Y-18423D01*
X11831Y-18673D01*
X11853Y-18727D01*
X11895Y-18769D01*
X11950Y-18792D01*
X12009Y-18792D01*
X12459Y-18792D01*
X12513Y-18769D01*
X12555Y-18728D01*
X12578Y-18673D01*
X12578Y-18614D01*
X12578Y-18920D01*
X12559Y-18920D01*
X12555Y-18909D01*
X12513Y-18868D01*
X12459Y-18845D01*
X12400Y-18845D01*
X11950Y-18845D01*
X11895Y-18867D01*
X11853Y-18909D01*
X11849Y-18920D01*
X11511Y-18920D01*
X11435Y-18935D01*
X11370Y-18978D01*
X11370Y-18978D01*
X11171Y-19177D01*
X11171Y-17803D01*
X11171Y-17371D01*
X10444Y-17371D01*
X10382Y-17433D01*
X10382Y-17667D01*
X10420Y-17758D01*
X10489Y-17827D01*
X10580Y-17865D01*
X10678Y-17865D01*
X11110Y-17865D01*
X11171Y-17803D01*
X11171Y-19177D01*
X11043Y-19305D01*
X11000Y-19369D01*
X10985Y-19445D01*
X10985Y-19949D01*
X10874Y-19949D01*
X10704Y-19982D01*
X10560Y-20079D01*
X10464Y-20223D01*
X10430Y-20393D01*
X10464Y-20562D01*
X10521Y-20648D01*
X10453Y-20676D01*
X10384Y-20745D01*
X10346Y-20836D01*
X10346Y-21070D01*
X10408Y-21132D01*
X11135Y-21132D01*
X11135Y-21124D01*
X11232Y-21124D01*
X11232Y-21132D01*
X11959Y-21132D01*
X12021Y-21070D01*
X12021Y-20836D01*
X11983Y-20745D01*
X11914Y-20676D01*
X11846Y-20648D01*
X11903Y-20562D01*
X11937Y-20393D01*
X11903Y-20223D01*
X11807Y-20079D01*
X11663Y-19982D01*
X11493Y-19949D01*
X11382Y-19949D01*
X11382Y-19528D01*
X11593Y-19317D01*
X11849Y-19317D01*
X11853Y-19327D01*
X11895Y-19369D01*
X11950Y-19392D01*
X12009Y-19392D01*
X12459Y-19392D01*
X12513Y-19369D01*
X12555Y-19328D01*
X12559Y-19317D01*
X12715Y-19317D01*
X12719Y-19327D01*
X12761Y-19369D01*
X12816Y-19392D01*
X12875Y-19392D01*
X13325Y-19392D01*
X13379Y-19369D01*
X13421Y-19328D01*
X13432Y-19301D01*
X13432Y-19685D01*
X13451Y-19780D01*
X13505Y-19860D01*
X15751Y-22106D01*
X15751Y-29617D01*
X15746Y-29619D01*
X15620Y-29745D01*
X15551Y-29910D01*
X15551Y-30088D01*
X15619Y-30253D01*
X15745Y-30379D01*
X15910Y-30448D01*
X16088Y-30448D01*
X16253Y-30380D01*
X16379Y-30254D01*
X16448Y-30089D01*
X16448Y-29911D01*
X16380Y-29746D01*
X16254Y-29620D01*
X16248Y-29617D01*
X16248Y-22003D01*
X16248Y-22003D01*
X16229Y-21908D01*
X16229Y-21908D01*
X16211Y-21882D01*
X16175Y-21828D01*
X16175Y-21828D01*
X13929Y-19582D01*
X13929Y-17630D01*
X13955Y-17604D01*
X14004Y-17485D01*
X14004Y-17357D01*
X13955Y-17238D01*
X13864Y-17147D01*
X13745Y-17097D01*
X13617Y-17097D01*
X13498Y-17146D01*
X13435Y-17209D01*
X13372Y-17147D01*
X13280Y-17108D01*
X13443Y-17108D01*
X13497Y-17086D01*
X13539Y-17044D01*
X13544Y-17033D01*
X13800Y-17033D01*
X13836Y-17069D01*
X13900Y-17112D01*
X13900Y-17112D01*
X13976Y-17127D01*
X14390Y-17127D01*
X14426Y-17182D01*
X14229Y-17379D01*
X14186Y-17443D01*
X14171Y-17519D01*
X14171Y-17536D01*
X14115Y-17536D01*
X14061Y-17559D01*
X14019Y-17601D01*
X13996Y-17655D01*
X13996Y-17714D01*
X13996Y-17964D01*
X14019Y-18019D01*
X14060Y-18060D01*
X14115Y-18083D01*
X14174Y-18083D01*
X14416Y-18083D01*
X14362Y-18136D01*
X14115Y-18136D01*
X14061Y-18159D01*
X14019Y-18201D01*
X13996Y-18255D01*
X13996Y-18314D01*
X13996Y-18564D01*
X14019Y-18619D01*
X14060Y-18660D01*
X14115Y-18683D01*
X14174Y-18683D01*
X14624Y-18683D01*
X14679Y-18661D01*
X14720Y-18619D01*
X14743Y-18564D01*
X14743Y-18505D01*
X14743Y-18317D01*
X14904Y-18156D01*
X14904Y-18156D01*
X14904Y-18156D01*
X14947Y-18092D01*
X14947Y-18092D01*
X14959Y-18032D01*
X14959Y-18110D01*
X14974Y-18186D01*
X15017Y-18250D01*
X15177Y-18411D01*
X15177Y-18564D01*
X15200Y-18619D01*
X15241Y-18660D01*
X15296Y-18683D01*
X15355Y-18683D01*
X15805Y-18683D01*
X15860Y-18661D01*
X15901Y-18619D01*
X15924Y-18564D01*
X15924Y-18505D01*
X15924Y-18255D01*
X15902Y-18201D01*
X15860Y-18159D01*
X15805Y-18136D01*
X15746Y-18136D01*
X15464Y-18136D01*
X15411Y-18083D01*
X15805Y-18083D01*
X15844Y-18067D01*
X16000Y-18072D01*
X16037Y-18108D01*
X16155Y-18158D01*
X16171Y-18158D01*
X16483Y-18518D01*
X16483Y-26307D01*
X16502Y-26402D01*
X16556Y-26482D01*
X16751Y-26677D01*
X16751Y-27165D01*
X16751Y-29617D01*
X16746Y-29619D01*
X16620Y-29745D01*
X16551Y-29910D01*
X16551Y-30088D01*
X16619Y-30253D01*
X16745Y-30379D01*
X16910Y-30448D01*
X17088Y-30448D01*
X17253Y-30380D01*
X17379Y-30254D01*
X17448Y-30089D01*
X17448Y-29911D01*
X17380Y-29746D01*
X17254Y-29620D01*
X17248Y-29617D01*
X17248Y-27165D01*
X17248Y-26823D01*
X19213Y-26823D01*
X19213Y-26930D01*
X19235Y-26985D01*
X19277Y-27027D01*
X19331Y-27049D01*
X19391Y-27049D01*
X19841Y-27049D01*
X19895Y-27027D01*
X19898Y-27024D01*
X20177Y-27024D01*
X20177Y-27024D01*
X20272Y-27005D01*
X20352Y-26952D01*
X20550Y-26754D01*
X20585Y-26754D01*
X20589Y-26755D01*
X20593Y-26758D01*
X20623Y-26764D01*
X20658Y-26773D01*
X20664Y-26772D01*
X20669Y-26773D01*
X20699Y-26767D01*
X20735Y-26762D01*
X20740Y-26759D01*
X20745Y-26758D01*
X20771Y-26740D01*
X20790Y-26729D01*
X25098Y-26729D01*
X25145Y-26776D01*
X25145Y-26793D01*
X25080Y-26837D01*
X24983Y-26981D01*
X24950Y-27151D01*
X24950Y-27770D01*
X24983Y-27940D01*
X25080Y-28084D01*
X25224Y-28180D01*
X25394Y-28214D01*
X25563Y-28180D01*
X25708Y-28084D01*
X25787Y-27965D01*
X25867Y-28084D01*
X25982Y-28161D01*
X25982Y-28165D01*
X25859Y-28288D01*
X25816Y-28353D01*
X25801Y-28429D01*
X25801Y-29596D01*
X25746Y-29619D01*
X25620Y-29745D01*
X25551Y-29910D01*
X25551Y-30088D01*
X25619Y-30253D01*
X25745Y-30379D01*
X25910Y-30448D01*
X26088Y-30448D01*
X26253Y-30380D01*
X26379Y-30254D01*
X26448Y-30089D01*
X26448Y-29911D01*
X26380Y-29746D01*
X26254Y-29620D01*
X26198Y-29596D01*
X26198Y-28511D01*
X26321Y-28388D01*
X26364Y-28323D01*
X26364Y-28323D01*
X26379Y-28248D01*
X26379Y-28161D01*
X26495Y-28084D01*
X26574Y-27965D01*
X26654Y-28084D01*
X26769Y-28161D01*
X26769Y-29609D01*
X26746Y-29619D01*
X26620Y-29745D01*
X26551Y-29910D01*
X26551Y-30088D01*
X26619Y-30253D01*
X26745Y-30379D01*
X26910Y-30448D01*
X27088Y-30448D01*
X27253Y-30380D01*
X27379Y-30254D01*
X27448Y-30089D01*
X27448Y-29911D01*
X27380Y-29746D01*
X27254Y-29620D01*
X27166Y-29583D01*
X27166Y-28161D01*
X27223Y-28123D01*
X27251Y-28191D01*
X27320Y-28260D01*
X27411Y-28298D01*
X27645Y-28298D01*
X27707Y-28236D01*
X27707Y-30761D01*
X27675Y-30782D01*
X27580Y-30801D01*
X25448Y-30801D01*
X25448Y-29911D01*
X25380Y-29746D01*
X25254Y-29620D01*
X25089Y-29551D01*
X24911Y-29551D01*
X24746Y-29619D01*
X24620Y-29745D01*
X24551Y-29910D01*
X24551Y-30088D01*
X24619Y-30253D01*
X24745Y-30379D01*
X24910Y-30448D01*
X25088Y-30448D01*
X25253Y-30380D01*
X25379Y-30254D01*
X25448Y-30089D01*
X25448Y-29911D01*
X25448Y-30801D01*
X24448Y-30801D01*
X24448Y-29911D01*
X24380Y-29746D01*
X24254Y-29620D01*
X24089Y-29551D01*
X23911Y-29551D01*
X23746Y-29619D01*
X23620Y-29745D01*
X23551Y-29910D01*
X23551Y-30088D01*
X23619Y-30253D01*
X23745Y-30379D01*
X23910Y-30448D01*
X24088Y-30448D01*
X24253Y-30380D01*
X24379Y-30254D01*
X24448Y-30089D01*
X24448Y-29911D01*
X24448Y-30801D01*
X23448Y-30801D01*
X23448Y-29911D01*
X23380Y-29746D01*
X23254Y-29620D01*
X23089Y-29551D01*
X23059Y-29551D01*
X23059Y-27002D01*
X23010Y-26883D01*
X22919Y-26792D01*
X22800Y-26743D01*
X22672Y-26743D01*
X22553Y-26792D01*
X22477Y-26868D01*
X22342Y-26868D01*
X22266Y-26883D01*
X22202Y-26926D01*
X22202Y-26926D01*
X21808Y-27320D01*
X21765Y-27384D01*
X21750Y-27460D01*
X21750Y-27576D01*
X21694Y-27576D01*
X21639Y-27598D01*
X21598Y-27640D01*
X21575Y-27694D01*
X21575Y-27754D01*
X21575Y-28004D01*
X21597Y-28058D01*
X21639Y-28100D01*
X21694Y-28123D01*
X21753Y-28123D01*
X22203Y-28123D01*
X22257Y-28100D01*
X22299Y-28058D01*
X22322Y-28004D01*
X22322Y-27945D01*
X22322Y-27695D01*
X22299Y-27640D01*
X22258Y-27598D01*
X22203Y-27576D01*
X22147Y-27576D01*
X22147Y-27542D01*
X22424Y-27265D01*
X22477Y-27265D01*
X22552Y-27340D01*
X22671Y-27390D01*
X22800Y-27390D01*
X22919Y-27341D01*
X23010Y-27250D01*
X23059Y-27131D01*
X23059Y-27002D01*
X23059Y-29551D01*
X22911Y-29551D01*
X22746Y-29619D01*
X22620Y-29745D01*
X22551Y-29910D01*
X22551Y-30088D01*
X22619Y-30253D01*
X22745Y-30379D01*
X22910Y-30448D01*
X23088Y-30448D01*
X23253Y-30380D01*
X23379Y-30254D01*
X23448Y-30089D01*
X23448Y-29911D01*
X23448Y-30801D01*
X22448Y-30801D01*
X22448Y-30270D01*
X22448Y-29670D01*
X22425Y-29616D01*
X22384Y-29574D01*
X22329Y-29551D01*
X22270Y-29551D01*
X22147Y-29551D01*
X22147Y-28723D01*
X22203Y-28723D01*
X22257Y-28700D01*
X22299Y-28658D01*
X22322Y-28604D01*
X22322Y-28545D01*
X22322Y-28295D01*
X22299Y-28240D01*
X22258Y-28198D01*
X22203Y-28176D01*
X22144Y-28176D01*
X21694Y-28176D01*
X21639Y-28198D01*
X21598Y-28240D01*
X21593Y-28251D01*
X21439Y-28251D01*
X21439Y-28190D01*
X21417Y-28135D01*
X21375Y-28094D01*
X21320Y-28071D01*
X21261Y-28071D01*
X21011Y-28071D01*
X20957Y-28093D01*
X20921Y-28129D01*
X20900Y-28079D01*
X20830Y-28010D01*
X20740Y-27972D01*
X20676Y-27973D01*
X20614Y-28034D01*
X20614Y-28396D01*
X20622Y-28396D01*
X20622Y-28493D01*
X20614Y-28493D01*
X20614Y-28855D01*
X20676Y-28916D01*
X20740Y-28916D01*
X20830Y-28879D01*
X20900Y-28809D01*
X20921Y-28759D01*
X20956Y-28795D01*
X21011Y-28818D01*
X21070Y-28818D01*
X21320Y-28818D01*
X21375Y-28795D01*
X21416Y-28754D01*
X21439Y-28699D01*
X21439Y-28648D01*
X21593Y-28648D01*
X21597Y-28658D01*
X21639Y-28700D01*
X21694Y-28723D01*
X21750Y-28723D01*
X21750Y-29551D01*
X21670Y-29551D01*
X21616Y-29574D01*
X21574Y-29615D01*
X21551Y-29670D01*
X21551Y-29729D01*
X21551Y-30329D01*
X21574Y-30383D01*
X21615Y-30425D01*
X21670Y-30448D01*
X21729Y-30448D01*
X22329Y-30448D01*
X22383Y-30425D01*
X22425Y-30384D01*
X22448Y-30329D01*
X22448Y-30270D01*
X22448Y-30801D01*
X20517Y-30801D01*
X20517Y-28855D01*
X20517Y-28493D01*
X20517Y-28396D01*
X20517Y-28034D01*
X20456Y-27973D01*
X20392Y-27972D01*
X20301Y-28010D01*
X20231Y-28079D01*
X20194Y-28170D01*
X20194Y-28268D01*
X20194Y-28334D01*
X20256Y-28396D01*
X20517Y-28396D01*
X20517Y-28493D01*
X20256Y-28493D01*
X20194Y-28555D01*
X20194Y-28620D01*
X20194Y-28719D01*
X20231Y-28809D01*
X20301Y-28879D01*
X20392Y-28916D01*
X20456Y-28916D01*
X20517Y-28855D01*
X20517Y-30801D01*
X20448Y-30801D01*
X20448Y-29911D01*
X20380Y-29746D01*
X20254Y-29620D01*
X20089Y-29551D01*
X19911Y-29551D01*
X19746Y-29619D01*
X19620Y-29745D01*
X19551Y-29910D01*
X19551Y-30088D01*
X19619Y-30253D01*
X19745Y-30379D01*
X19910Y-30448D01*
X20088Y-30448D01*
X20253Y-30380D01*
X20379Y-30254D01*
X20448Y-30089D01*
X20448Y-29911D01*
X20448Y-30801D01*
X19551Y-30801D01*
X19551Y-30082D01*
X19541Y-29865D01*
X19477Y-29712D01*
X19383Y-29685D01*
X19314Y-29753D01*
X19314Y-29616D01*
X19287Y-29522D01*
X19082Y-29448D01*
X18865Y-29458D01*
X18712Y-29522D01*
X18685Y-29616D01*
X19000Y-29931D01*
X19314Y-29616D01*
X19314Y-29753D01*
X19068Y-30000D01*
X19383Y-30314D01*
X19477Y-30287D01*
X19551Y-30082D01*
X19551Y-30801D01*
X19314Y-30801D01*
X19314Y-30383D01*
X19000Y-30068D01*
X18931Y-30136D01*
X18931Y-30000D01*
X18616Y-29685D01*
X18522Y-29712D01*
X18501Y-29769D01*
X18477Y-29712D01*
X18383Y-29685D01*
X18314Y-29753D01*
X18314Y-29616D01*
X18287Y-29522D01*
X18082Y-29448D01*
X17865Y-29458D01*
X17712Y-29522D01*
X17685Y-29616D01*
X18000Y-29931D01*
X18314Y-29616D01*
X18314Y-29753D01*
X18068Y-30000D01*
X18383Y-30314D01*
X18477Y-30287D01*
X18498Y-30230D01*
X18522Y-30287D01*
X18616Y-30314D01*
X18931Y-30000D01*
X18931Y-30136D01*
X18685Y-30383D01*
X18712Y-30477D01*
X18917Y-30551D01*
X19134Y-30541D01*
X19287Y-30477D01*
X19314Y-30383D01*
X19314Y-30801D01*
X18314Y-30801D01*
X18314Y-30383D01*
X18000Y-30068D01*
X17931Y-30136D01*
X17931Y-30000D01*
X17616Y-29685D01*
X17522Y-29712D01*
X17448Y-29917D01*
X17458Y-30134D01*
X17522Y-30287D01*
X17616Y-30314D01*
X17931Y-30000D01*
X17931Y-30136D01*
X17685Y-30383D01*
X17712Y-30477D01*
X17917Y-30551D01*
X18134Y-30541D01*
X18287Y-30477D01*
X18314Y-30383D01*
X18314Y-30801D01*
X15448Y-30801D01*
X15448Y-30270D01*
X15448Y-29670D01*
X15425Y-29616D01*
X15384Y-29574D01*
X15329Y-29551D01*
X15270Y-29551D01*
X14670Y-29551D01*
X14616Y-29574D01*
X14574Y-29615D01*
X14551Y-29670D01*
X14551Y-29729D01*
X14551Y-30329D01*
X14574Y-30383D01*
X14615Y-30425D01*
X14670Y-30448D01*
X14729Y-30448D01*
X15329Y-30448D01*
X15383Y-30425D01*
X15425Y-30384D01*
X15448Y-30329D01*
X15448Y-30270D01*
X15448Y-30801D01*
X12021Y-30801D01*
X12021Y-21525D01*
X12021Y-21291D01*
X11959Y-21229D01*
X11232Y-21229D01*
X11232Y-21661D01*
X11294Y-21723D01*
X11725Y-21723D01*
X11823Y-21723D01*
X11914Y-21685D01*
X11983Y-21616D01*
X12021Y-21525D01*
X12021Y-30801D01*
X11135Y-30801D01*
X11135Y-21661D01*
X11135Y-21229D01*
X10408Y-21229D01*
X10346Y-21291D01*
X10346Y-21525D01*
X10384Y-21616D01*
X10453Y-21685D01*
X10544Y-21723D01*
X10642Y-21723D01*
X11073Y-21723D01*
X11135Y-21661D01*
X11135Y-30801D01*
X10420Y-30801D01*
X10324Y-30782D01*
X10260Y-30740D01*
X10217Y-30675D01*
X10198Y-30580D01*
X10198Y-10419D01*
X10217Y-10324D01*
X10260Y-10259D01*
X10324Y-10217D01*
X10420Y-10198D01*
X27317Y-10198D01*
X27801Y-10682D01*
X27801Y-15100D01*
X27816Y-15175D01*
X27859Y-15240D01*
X28801Y-16182D01*
X28801Y-28917D01*
M02*
