G04 (created by PCBNEW (2013-07-07 BZR 4022)-stable) date Tue 29 Oct 2013 08:55:39 AM NZDT*
%MOIN*%
G04 Gerber Fmt 3.4, Leading zero omitted, Abs format*
%FSLAX34Y34*%
G01*
G70*
G90*
G04 APERTURE LIST*
%ADD10C,0.00590551*%
%ADD11C,0.012*%
%ADD12C,0.01*%
%ADD13C,0.004*%
G04 APERTURE END LIST*
G54D10*
G54D11*
X27400Y-11400D02*
X27400Y-10600D01*
X19600Y-11400D02*
X19600Y-10600D01*
X27400Y-10600D02*
X19600Y-10600D01*
X19600Y-11400D02*
X27400Y-11400D01*
G54D12*
X27550Y-29600D02*
X27550Y-30350D01*
X21550Y-29600D02*
X21550Y-30350D01*
X21550Y-30391D02*
X27550Y-30391D01*
X27550Y-29600D02*
X21550Y-29600D01*
X20550Y-29600D02*
X20550Y-30350D01*
X14550Y-29600D02*
X14550Y-30350D01*
X14550Y-30391D02*
X20550Y-30391D01*
X20550Y-29600D02*
X14550Y-29600D01*
G54D11*
X18800Y-11400D02*
X18800Y-10600D01*
X11000Y-11400D02*
X11000Y-10600D01*
X18800Y-10600D02*
X11000Y-10600D01*
X11000Y-11400D02*
X18800Y-11400D01*
G54D13*
X27721Y-10847D02*
X27730Y-10876D01*
X27730Y-10923D01*
X27721Y-10942D01*
X27711Y-10952D01*
X27692Y-10961D01*
X27673Y-10961D01*
X27654Y-10952D01*
X27645Y-10942D01*
X27635Y-10923D01*
X27626Y-10885D01*
X27616Y-10866D01*
X27607Y-10857D01*
X27588Y-10847D01*
X27569Y-10847D01*
X27550Y-10857D01*
X27540Y-10866D01*
X27530Y-10885D01*
X27530Y-10933D01*
X27540Y-10961D01*
X27530Y-11028D02*
X27530Y-11152D01*
X27607Y-11085D01*
X27607Y-11114D01*
X27616Y-11133D01*
X27626Y-11142D01*
X27645Y-11152D01*
X27692Y-11152D01*
X27711Y-11142D01*
X27721Y-11133D01*
X27730Y-11114D01*
X27730Y-11057D01*
X27721Y-11038D01*
X27711Y-11028D01*
X27821Y-29797D02*
X27830Y-29826D01*
X27830Y-29873D01*
X27821Y-29892D01*
X27811Y-29902D01*
X27792Y-29911D01*
X27773Y-29911D01*
X27754Y-29902D01*
X27745Y-29892D01*
X27735Y-29873D01*
X27726Y-29835D01*
X27716Y-29816D01*
X27707Y-29807D01*
X27688Y-29797D01*
X27669Y-29797D01*
X27650Y-29807D01*
X27640Y-29816D01*
X27630Y-29835D01*
X27630Y-29883D01*
X27640Y-29911D01*
X27650Y-29988D02*
X27640Y-29997D01*
X27630Y-30016D01*
X27630Y-30064D01*
X27640Y-30083D01*
X27650Y-30092D01*
X27669Y-30102D01*
X27688Y-30102D01*
X27716Y-30092D01*
X27830Y-29978D01*
X27830Y-30102D01*
X20911Y-29867D02*
X20920Y-29896D01*
X20920Y-29943D01*
X20911Y-29962D01*
X20901Y-29972D01*
X20882Y-29981D01*
X20863Y-29981D01*
X20844Y-29972D01*
X20835Y-29962D01*
X20825Y-29943D01*
X20816Y-29905D01*
X20806Y-29886D01*
X20797Y-29877D01*
X20778Y-29867D01*
X20759Y-29867D01*
X20740Y-29877D01*
X20730Y-29886D01*
X20720Y-29905D01*
X20720Y-29953D01*
X20730Y-29981D01*
X20920Y-30172D02*
X20920Y-30058D01*
X20920Y-30115D02*
X20720Y-30115D01*
X20749Y-30096D01*
X20768Y-30077D01*
X20778Y-30058D01*
X19071Y-10847D02*
X19080Y-10876D01*
X19080Y-10923D01*
X19071Y-10942D01*
X19061Y-10952D01*
X19042Y-10961D01*
X19023Y-10961D01*
X19004Y-10952D01*
X18995Y-10942D01*
X18985Y-10923D01*
X18976Y-10885D01*
X18966Y-10866D01*
X18957Y-10857D01*
X18938Y-10847D01*
X18919Y-10847D01*
X18900Y-10857D01*
X18890Y-10866D01*
X18880Y-10885D01*
X18880Y-10933D01*
X18890Y-10961D01*
X18947Y-11133D02*
X19080Y-11133D01*
X18871Y-11085D02*
X19014Y-11038D01*
X19014Y-11161D01*
M02*
