G04 (created by PCBNEW (2013-07-24 BZR 4024)-stable) date Tue 11 Feb 2014 04:24:29 PM NZDT*
%MOIN*%
G04 Gerber Fmt 3.4, Leading zero omitted, Abs format*
%FSLAX34Y34*%
G01*
G70*
G90*
G04 APERTURE LIST*
%ADD10C,0.00393701*%
%ADD11C,0.011811*%
%ADD12C,0.00708661*%
%ADD13C,0.00629921*%
%ADD14C,0.00787402*%
%ADD15C,0.012*%
%ADD16C,0.015*%
%ADD17C,0.008*%
%ADD18C,0.01*%
G04 APERTURE END LIST*
G54D10*
G54D11*
X23468Y-21039D02*
X23131Y-21039D01*
X23300Y-21039D02*
X23300Y-20448D01*
X23243Y-20532D01*
X23187Y-20589D01*
X23131Y-20617D01*
X16168Y-15439D02*
X15831Y-15439D01*
X16000Y-15439D02*
X16000Y-14848D01*
X15943Y-14932D01*
X15887Y-14989D01*
X15831Y-15017D01*
G54D12*
X16482Y-15891D02*
X16482Y-15418D01*
X16626Y-15756D01*
X16770Y-15418D01*
X16770Y-15891D01*
X16956Y-15756D02*
X17162Y-15756D01*
X16915Y-15891D02*
X17059Y-15418D01*
X17203Y-15891D01*
X17348Y-15891D02*
X17348Y-15418D01*
X17513Y-15418D01*
X17554Y-15441D01*
X17575Y-15463D01*
X17595Y-15508D01*
X17595Y-15576D01*
X17575Y-15621D01*
X17554Y-15643D01*
X17513Y-15666D01*
X17348Y-15666D01*
X17987Y-15891D02*
X17781Y-15891D01*
X17781Y-15418D01*
X18131Y-15643D02*
X18276Y-15643D01*
X18338Y-15891D02*
X18131Y-15891D01*
X18131Y-15418D01*
X18338Y-15418D01*
X18523Y-15711D02*
X18853Y-15711D01*
X19183Y-15418D02*
X19183Y-15756D01*
X19163Y-15823D01*
X19121Y-15868D01*
X19059Y-15891D01*
X19018Y-15891D01*
X19328Y-15418D02*
X19575Y-15418D01*
X19451Y-15891D02*
X19451Y-15418D01*
X19699Y-15756D02*
X19905Y-15756D01*
X19657Y-15891D02*
X19802Y-15418D01*
X19946Y-15891D01*
X20317Y-15441D02*
X20276Y-15418D01*
X20214Y-15418D01*
X20152Y-15441D01*
X20111Y-15486D01*
X20091Y-15531D01*
X20070Y-15621D01*
X20070Y-15688D01*
X20091Y-15778D01*
X20111Y-15823D01*
X20152Y-15868D01*
X20214Y-15891D01*
X20256Y-15891D01*
X20317Y-15868D01*
X20338Y-15846D01*
X20338Y-15688D01*
X20256Y-15688D01*
X12056Y-23067D02*
X12056Y-22861D01*
X12191Y-23108D02*
X11718Y-22964D01*
X12191Y-22819D01*
X12191Y-22428D02*
X11966Y-22572D01*
X12191Y-22675D02*
X11718Y-22675D01*
X11718Y-22510D01*
X11741Y-22469D01*
X11763Y-22448D01*
X11808Y-22428D01*
X11876Y-22428D01*
X11921Y-22448D01*
X11943Y-22469D01*
X11966Y-22510D01*
X11966Y-22675D01*
X12191Y-22242D02*
X11718Y-22242D01*
X12056Y-22098D01*
X11718Y-21953D01*
X12191Y-21953D01*
X12011Y-21747D02*
X12011Y-21417D01*
X11718Y-21087D02*
X12056Y-21087D01*
X12123Y-21108D01*
X12168Y-21149D01*
X12191Y-21211D01*
X12191Y-21252D01*
X11718Y-20943D02*
X11718Y-20695D01*
X12191Y-20819D02*
X11718Y-20819D01*
X12056Y-20571D02*
X12056Y-20365D01*
X12191Y-20613D02*
X11718Y-20468D01*
X12191Y-20324D01*
X11741Y-19953D02*
X11718Y-19994D01*
X11718Y-20056D01*
X11741Y-20118D01*
X11786Y-20159D01*
X11831Y-20180D01*
X11921Y-20200D01*
X11988Y-20200D01*
X12078Y-20180D01*
X12123Y-20159D01*
X12168Y-20118D01*
X12191Y-20056D01*
X12191Y-20015D01*
X12168Y-19953D01*
X12146Y-19932D01*
X11988Y-19932D01*
X11988Y-20015D01*
G54D13*
X11959Y-15659D02*
X11959Y-15265D01*
X12207Y-15659D02*
X12021Y-15434D01*
X12207Y-15265D02*
X11959Y-15490D01*
X12392Y-15659D02*
X12392Y-15396D01*
X12392Y-15265D02*
X12371Y-15284D01*
X12392Y-15303D01*
X12413Y-15284D01*
X12392Y-15265D01*
X12392Y-15303D01*
X12846Y-15621D02*
X12825Y-15640D01*
X12763Y-15659D01*
X12722Y-15659D01*
X12660Y-15640D01*
X12619Y-15603D01*
X12598Y-15565D01*
X12578Y-15490D01*
X12578Y-15434D01*
X12598Y-15359D01*
X12619Y-15321D01*
X12660Y-15284D01*
X12722Y-15265D01*
X12763Y-15265D01*
X12825Y-15284D01*
X12846Y-15303D01*
X13011Y-15546D02*
X13217Y-15546D01*
X12970Y-15659D02*
X13114Y-15265D01*
X13258Y-15659D01*
X13403Y-15659D02*
X13403Y-15265D01*
X13506Y-15265D01*
X13568Y-15284D01*
X13609Y-15321D01*
X13629Y-15359D01*
X13650Y-15434D01*
X13650Y-15490D01*
X13629Y-15565D01*
X13609Y-15603D01*
X13568Y-15640D01*
X13506Y-15659D01*
X13403Y-15659D01*
X14166Y-15659D02*
X14166Y-15396D01*
X14166Y-15471D02*
X14186Y-15434D01*
X14207Y-15415D01*
X14248Y-15396D01*
X14289Y-15396D01*
X14413Y-15303D02*
X14434Y-15284D01*
X14475Y-15265D01*
X14578Y-15265D01*
X14619Y-15284D01*
X14640Y-15303D01*
X14661Y-15340D01*
X14661Y-15378D01*
X14640Y-15434D01*
X14392Y-15659D01*
X14661Y-15659D01*
G54D14*
X12021Y-13039D02*
X12021Y-12448D01*
X12192Y-12870D01*
X12363Y-12448D01*
X12363Y-13039D01*
X12826Y-13039D02*
X12826Y-12729D01*
X12801Y-12673D01*
X12753Y-12645D01*
X12655Y-12645D01*
X12606Y-12673D01*
X12826Y-13010D02*
X12777Y-13039D01*
X12655Y-13039D01*
X12606Y-13010D01*
X12582Y-12954D01*
X12582Y-12898D01*
X12606Y-12842D01*
X12655Y-12814D01*
X12777Y-12814D01*
X12826Y-12785D01*
X13069Y-12645D02*
X13069Y-13235D01*
X13069Y-12673D02*
X13118Y-12645D01*
X13216Y-12645D01*
X13264Y-12673D01*
X13289Y-12701D01*
X13313Y-12757D01*
X13313Y-12926D01*
X13289Y-12982D01*
X13264Y-13010D01*
X13216Y-13039D01*
X13118Y-13039D01*
X13069Y-13010D01*
X13606Y-13039D02*
X13557Y-13010D01*
X13532Y-12954D01*
X13532Y-12448D01*
X13995Y-13010D02*
X13947Y-13039D01*
X13849Y-13039D01*
X13801Y-13010D01*
X13776Y-12954D01*
X13776Y-12729D01*
X13801Y-12673D01*
X13849Y-12645D01*
X13947Y-12645D01*
X13995Y-12673D01*
X14020Y-12729D01*
X14020Y-12785D01*
X13776Y-12842D01*
X12168Y-13353D02*
X12168Y-13775D01*
X12143Y-13860D01*
X12094Y-13916D01*
X12021Y-13944D01*
X11973Y-13944D01*
X12338Y-13353D02*
X12631Y-13353D01*
X12484Y-13944D02*
X12484Y-13353D01*
X12777Y-13775D02*
X13021Y-13775D01*
X12728Y-13944D02*
X12899Y-13353D01*
X13069Y-13944D01*
X13508Y-13382D02*
X13459Y-13353D01*
X13386Y-13353D01*
X13313Y-13382D01*
X13264Y-13438D01*
X13240Y-13494D01*
X13216Y-13607D01*
X13216Y-13691D01*
X13240Y-13803D01*
X13264Y-13860D01*
X13313Y-13916D01*
X13386Y-13944D01*
X13435Y-13944D01*
X13508Y-13916D01*
X13532Y-13888D01*
X13532Y-13691D01*
X13435Y-13691D01*
X11997Y-14681D02*
X12241Y-14681D01*
X11948Y-14850D02*
X12119Y-14259D01*
X12289Y-14850D01*
X12679Y-14850D02*
X12679Y-14259D01*
X12679Y-14821D02*
X12631Y-14850D01*
X12533Y-14850D01*
X12484Y-14821D01*
X12460Y-14793D01*
X12436Y-14737D01*
X12436Y-14568D01*
X12460Y-14512D01*
X12484Y-14484D01*
X12533Y-14456D01*
X12631Y-14456D01*
X12679Y-14484D01*
X13142Y-14850D02*
X13142Y-14540D01*
X13118Y-14484D01*
X13069Y-14456D01*
X12972Y-14456D01*
X12923Y-14484D01*
X13142Y-14821D02*
X13094Y-14850D01*
X12972Y-14850D01*
X12923Y-14821D01*
X12899Y-14765D01*
X12899Y-14709D01*
X12923Y-14653D01*
X12972Y-14625D01*
X13094Y-14625D01*
X13142Y-14596D01*
X13386Y-14456D02*
X13386Y-15046D01*
X13386Y-14484D02*
X13435Y-14456D01*
X13532Y-14456D01*
X13581Y-14484D01*
X13606Y-14512D01*
X13630Y-14568D01*
X13630Y-14737D01*
X13606Y-14793D01*
X13581Y-14821D01*
X13532Y-14850D01*
X13435Y-14850D01*
X13386Y-14821D01*
X13776Y-14456D02*
X13971Y-14456D01*
X13849Y-14259D02*
X13849Y-14765D01*
X13874Y-14821D01*
X13922Y-14850D01*
X13971Y-14850D01*
X14337Y-14821D02*
X14288Y-14850D01*
X14190Y-14850D01*
X14142Y-14821D01*
X14117Y-14765D01*
X14117Y-14540D01*
X14142Y-14484D01*
X14190Y-14456D01*
X14288Y-14456D01*
X14337Y-14484D01*
X14361Y-14540D01*
X14361Y-14596D01*
X14117Y-14653D01*
X14580Y-14850D02*
X14580Y-14456D01*
X14580Y-14568D02*
X14605Y-14512D01*
X14629Y-14484D01*
X14678Y-14456D01*
X14727Y-14456D01*
G54D15*
X11900Y-18900D02*
X12300Y-18900D01*
X12300Y-18900D02*
X12300Y-18500D01*
X12300Y-18500D02*
X15500Y-18500D01*
X15500Y-18500D02*
X15500Y-19300D01*
X15500Y-19300D02*
X12300Y-19300D01*
X12300Y-19300D02*
X12300Y-18900D01*
X12300Y-18700D02*
X12500Y-18500D01*
X15900Y-18900D02*
X15500Y-18900D01*
X11900Y-16900D02*
X12300Y-16900D01*
X12300Y-16900D02*
X12300Y-16500D01*
X12300Y-16500D02*
X15500Y-16500D01*
X15500Y-16500D02*
X15500Y-17300D01*
X15500Y-17300D02*
X12300Y-17300D01*
X12300Y-17300D02*
X12300Y-16900D01*
X12300Y-16700D02*
X12500Y-16500D01*
X15900Y-16900D02*
X15500Y-16900D01*
X19800Y-17100D02*
X20200Y-17100D01*
X20200Y-17100D02*
X20200Y-16700D01*
X20200Y-16700D02*
X23400Y-16700D01*
X23400Y-16700D02*
X23400Y-17500D01*
X23400Y-17500D02*
X20200Y-17500D01*
X20200Y-17500D02*
X20200Y-17100D01*
X20200Y-16900D02*
X20400Y-16700D01*
X23800Y-17100D02*
X23400Y-17100D01*
G54D16*
X22913Y-22850D02*
X22913Y-20850D01*
X22913Y-20850D02*
X12913Y-20850D01*
X12913Y-20850D02*
X12913Y-22850D01*
X12913Y-22850D02*
X22913Y-22850D01*
G54D15*
X16400Y-13100D02*
X20400Y-13100D01*
X20400Y-13100D02*
X20400Y-15100D01*
X20400Y-15100D02*
X16400Y-15100D01*
X16400Y-15100D02*
X16400Y-13100D01*
G54D17*
X13816Y-20122D02*
X13650Y-19860D01*
X13530Y-20122D02*
X13530Y-19572D01*
X13721Y-19572D01*
X13769Y-19598D01*
X13792Y-19625D01*
X13816Y-19677D01*
X13816Y-19755D01*
X13792Y-19808D01*
X13769Y-19834D01*
X13721Y-19860D01*
X13530Y-19860D01*
X13983Y-19572D02*
X14292Y-19572D01*
X14126Y-19782D01*
X14197Y-19782D01*
X14245Y-19808D01*
X14269Y-19834D01*
X14292Y-19886D01*
X14292Y-20017D01*
X14269Y-20070D01*
X14245Y-20096D01*
X14197Y-20122D01*
X14054Y-20122D01*
X14007Y-20096D01*
X13983Y-20070D01*
X13554Y-19122D02*
X13269Y-19122D01*
X13411Y-19122D02*
X13411Y-18572D01*
X13364Y-18651D01*
X13316Y-18703D01*
X13269Y-18729D01*
X13864Y-18572D02*
X13911Y-18572D01*
X13959Y-18598D01*
X13983Y-18625D01*
X14007Y-18677D01*
X14030Y-18782D01*
X14030Y-18913D01*
X14007Y-19017D01*
X13983Y-19070D01*
X13959Y-19096D01*
X13911Y-19122D01*
X13864Y-19122D01*
X13816Y-19096D01*
X13792Y-19070D01*
X13769Y-19017D01*
X13745Y-18913D01*
X13745Y-18782D01*
X13769Y-18677D01*
X13792Y-18625D01*
X13816Y-18598D01*
X13864Y-18572D01*
X14245Y-19122D02*
X14245Y-18572D01*
X14530Y-19122D02*
X14316Y-18808D01*
X14530Y-18572D02*
X14245Y-18886D01*
X13816Y-18022D02*
X13650Y-17760D01*
X13530Y-18022D02*
X13530Y-17472D01*
X13721Y-17472D01*
X13769Y-17498D01*
X13792Y-17525D01*
X13816Y-17577D01*
X13816Y-17655D01*
X13792Y-17708D01*
X13769Y-17734D01*
X13721Y-17760D01*
X13530Y-17760D01*
X14007Y-17525D02*
X14030Y-17498D01*
X14078Y-17472D01*
X14197Y-17472D01*
X14245Y-17498D01*
X14269Y-17525D01*
X14292Y-17577D01*
X14292Y-17629D01*
X14269Y-17708D01*
X13983Y-18022D01*
X14292Y-18022D01*
X13554Y-17122D02*
X13269Y-17122D01*
X13411Y-17122D02*
X13411Y-16572D01*
X13364Y-16651D01*
X13316Y-16703D01*
X13269Y-16729D01*
X13864Y-16572D02*
X13911Y-16572D01*
X13959Y-16598D01*
X13983Y-16625D01*
X14007Y-16677D01*
X14030Y-16782D01*
X14030Y-16913D01*
X14007Y-17017D01*
X13983Y-17070D01*
X13959Y-17096D01*
X13911Y-17122D01*
X13864Y-17122D01*
X13816Y-17096D01*
X13792Y-17070D01*
X13769Y-17017D01*
X13745Y-16913D01*
X13745Y-16782D01*
X13769Y-16677D01*
X13792Y-16625D01*
X13816Y-16598D01*
X13864Y-16572D01*
X14245Y-17122D02*
X14245Y-16572D01*
X14530Y-17122D02*
X14316Y-16808D01*
X14530Y-16572D02*
X14245Y-16886D01*
X22616Y-18422D02*
X22450Y-18160D01*
X22330Y-18422D02*
X22330Y-17872D01*
X22521Y-17872D01*
X22569Y-17898D01*
X22592Y-17925D01*
X22616Y-17977D01*
X22616Y-18055D01*
X22592Y-18108D01*
X22569Y-18134D01*
X22521Y-18160D01*
X22330Y-18160D01*
X23092Y-18422D02*
X22807Y-18422D01*
X22950Y-18422D02*
X22950Y-17872D01*
X22902Y-17951D01*
X22854Y-18003D01*
X22807Y-18029D01*
X21454Y-17322D02*
X21169Y-17322D01*
X21311Y-17322D02*
X21311Y-16772D01*
X21264Y-16851D01*
X21216Y-16903D01*
X21169Y-16929D01*
X21764Y-16772D02*
X21811Y-16772D01*
X21859Y-16798D01*
X21883Y-16825D01*
X21907Y-16877D01*
X21930Y-16982D01*
X21930Y-17113D01*
X21907Y-17217D01*
X21883Y-17270D01*
X21859Y-17296D01*
X21811Y-17322D01*
X21764Y-17322D01*
X21716Y-17296D01*
X21692Y-17270D01*
X21669Y-17217D01*
X21645Y-17113D01*
X21645Y-16982D01*
X21669Y-16877D01*
X21692Y-16825D01*
X21716Y-16798D01*
X21764Y-16772D01*
X22145Y-17322D02*
X22145Y-16772D01*
X22430Y-17322D02*
X22216Y-17008D01*
X22430Y-16772D02*
X22145Y-17086D01*
G54D18*
X17866Y-19961D02*
X17866Y-20247D01*
X17847Y-20304D01*
X17809Y-20342D01*
X17752Y-20361D01*
X17714Y-20361D01*
X18266Y-20361D02*
X18038Y-20361D01*
X18152Y-20361D02*
X18152Y-19961D01*
X18114Y-20019D01*
X18076Y-20057D01*
X18038Y-20076D01*
G54D17*
X20866Y-13861D02*
X20866Y-14147D01*
X20847Y-14204D01*
X20809Y-14242D01*
X20752Y-14261D01*
X20714Y-14261D01*
X21038Y-13900D02*
X21057Y-13880D01*
X21095Y-13861D01*
X21190Y-13861D01*
X21228Y-13880D01*
X21247Y-13900D01*
X21266Y-13938D01*
X21266Y-13976D01*
X21247Y-14033D01*
X21019Y-14261D01*
X21266Y-14261D01*
M02*
